{
.appVersion = "1352";
classes = (
{
automatic = 1;

glyphs = (
{
glyphname = A;
lastChange = "2021-01-08 00:23:11 +0000";
layers = (
{
anchors = (
{
name = bottom;
position = "{342, 0}";
},
{
name = ogonek;
position = "{648, 0}";
},
{
name = top;
position = "{342, 720}";
}
);
guideLines = (
{
angle = 67.5;
position = "{-72, -200}";
}
);
layerId = "AB099EFE-E788-4EFC-8633-CF147CB782A6";
paths = (
{
closed = 1;
nodes = (
"32 0 LINE",
"66 0 LINE",
"162 242 LINE",
"168 254 LINE",
"338 676 LINE",
"342 676 LINE",
"512 252 LINE",
"518 240 LINE",
"614 0 LINE",
"648 0 LINE",
"354 720 LINE",
"326 720 LINE"
);
},
{
closed = 1;
nodes = (
"148 232 LINE",
"534 232 LINE",
"534 262 LINE",
"148 262 LINE"
);
}
);
width = 680;
},
{
anchors = (
{
name = bottom;
position = "{350, 0}";
},
{
name = ogonek;
position = "{682, 0}";
},
{
name = top;
position = "{350, 720}";
}
);
associatedMasterId = "AB099EFE-E788-4EFC-8633-CF147CB782A6";
guideLines = (
{
angle = 67.5;
position = "{-72, -200}";
}
);
layerId = "BFE82E42-5985-4933-9EFC-E234A0040BAA";
name = "{88}";
paths = (
{
closed = 1;
nodes = (
"16 0 LINE",
"108 0 LINE",
"196 216 LINE",
"208 246 LINE",
"348 600 LINE",
"352 600 LINE",
"492 246 LINE",
"504 214 LINE",
"592 0 LINE",
"684 0 LINE",
"386 720 LINE",
"314 720 LINE"
);
},
{
closed = 1;
nodes = (
"154 190 LINE",
"546 190 LINE",
"546 270 LINE",
"154 270 LINE"
);
}
);
width = 700;
},
{
anchors = (
{
name = bottom;
position = "{370, 0}";
},
{
name = ogonek;
position = "{744, 0}";
},
{
name = top;
position = "{370, 720}";
}
);
guideLines = (
{
angle = 67.5;
position = "{-110, -200}";
}
);
layerId = "2D8F7115-C311-411E-929D-56333CF7FFB2";
paths = (
{
closed = 1;
nodes = (
"-4 0 LINE",
"188 0 LINE",
"254 176 LINE",
"268 246 LINE",
"368 514 LINE",
"372 514 LINE",
"472 246 LINE",
"486 176 LINE",
"552 0 LINE",
"744 0 LINE",
"446 720 LINE",
"294 720 LINE"
);
},
{
closed = 1;
nodes = (
"172 132 LINE",
"568 132 LINE",
"568 278 LINE",
"172 278 LINE"
);
}
);
width = 740;
}
);
leftKerningGroup = LAT_A_UC;
rightKerningGroup = LAT_A_UC;
unicode = 0041;
},
{
glyphname = AE;
lastChange = "2021-01-08 00:23:11 +0000";
layers = (
{
anchors = (
{
name = bottom;
position = "{544, 0}";
},
{
name = top;
position = "{562, 720}";
}
);
layerId = "AB099EFE-E788-4EFC-8633-CF147CB782A6";
paths = (
{
closed = 1;
nodes = (
"10 0 LINE",
"44 0 LINE",
"182 242 LINE",
"426 678 LINE",
"452 678 LINE",
"446 720 LINE",
"418 720 LINE"
);
},
{
closed = 1;
nodes = (
"168 232 LINE",
"478 232 LINE",
"478 262 LINE",
"168 262 LINE"
);
},
{
closed = 1;
nodes = (
"456 690 LINE",
"838 690 LINE",
"838 720 LINE",
"424 720 LINE",
"466 244 LINE",
"488 0 LINE",
"838 0 LINE",
"838 30 LINE",
"516 30 LINE"
);
},
{
closed = 1;
nodes = (
"790 354 LINE",
"790 384 LINE",
"476 384 LINE",
"480 354 LINE"
);
}
);
width = 906;
},
{
anchors = (
{
name = bottom;
position = "{549, 0}";
},
{
name = top;
position = "{560, 720}";
}
);
associatedMasterId = "AB099EFE-E788-4EFC-8633-CF147CB782A6";
layerId = "7149F11A-89A7-4316-9A40-A0C5F52F514C";
name = "{88}";
paths = (
{
closed = 1;
nodes = (
"8 0 LINE",
"100 0 LINE",
"224 240 LINE",
"430 636 LINE",
"450 636 LINE",
"444 720 LINE",
"388 720 LINE"
);
},
{
closed = 1;
nodes = (
"182 192 LINE",
"512 192 LINE",
"512 268 LINE",
"182 268 LINE"
);
},
{
closed = 1;
nodes = (
"510 640 LINE",
"846 640 LINE",
"846 720 LINE",
"428 720 LINE",
"462 236 LINE",
"478 0 LINE",
"846 0 LINE",
"846 80 LINE",
"554 80 LINE"
);
},
{
closed = 1;
nodes = (
"802 328 LINE",
"802 404 LINE",
"520 404 LINE",
"526 328 LINE"
);
}
);
width = 908;
},
{
anchors = (
{
name = bottom;
position = "{550, 0}";
},
{
name = top;
position = "{550, 720}";
}
);
background = {
components = (
{
name = A;
transform = "{1, 0, 0.03492, 1, -8, 0}";
}
);
};
layerId = "2D8F7115-C311-411E-929D-56333CF7FFB2";
paths = (
{
closed = 1;
nodes = (
"-4 0 LINE",
"184 0 LINE",
"284 234 LINE",
"420 564 LINE",
"440 564 LINE",
"432 720 LINE",
"328 720 LINE"
);
},
{
closed = 1;
nodes = (
"196 132 LINE",
"540 132 LINE",
"540 278 LINE",
"196 278 LINE"
);
},
{
closed = 1;
nodes = (
"588 560 LINE",
"852 560 LINE",
"852 720 LINE",
"424 720 LINE",
"446 220 LINE",
"458 0 LINE",
"852 0 LINE",
"852 160 LINE",
"612 160 LINE"
);
},
{
closed = 1;
nodes = (
"810 286 LINE",
"810 438 LINE",
"582 438 LINE",
"592 286 LINE"
);
}
);
width = 896;
}
);
leftKerningGroup = LAT_AE_UC;
rightKerningGroup = LAT_E_UC;
rightMetricsKey = E;
unicode = 00C6;
},
{
glyphname = B;
lastChange = "2021-01-08 00:38:52 +0000";
layers = (
{
anchors = (
{
name = bottom;
position = "{290, 0}";
},
{
name = center;
position = "{120, 206}";
},
{
name = top;
position = "{286, 720}";
}
);
layerId = "AB099EFE-E788-4EFC-8633-CF147CB782A6";
paths = (
{
closed = 1;
nodes = (
"302 0 LINE SMOOTH",
"440 0 OFFCURVE",
"528 76 OFFCURVE",
"528 192 CURVE SMOOTH",
"528 292 OFFCURVE",
"466 360 OFFCURVE",
"364 378 CURVE",
"364 372 LINE",
"428 400 OFFCURVE",
"470 460 OFFCURVE",
"470 536 CURVE SMOOTH",
"470 646 OFFCURVE",
"392 720 OFFCURVE",
"280 720 CURVE SMOOTH",
"110 720 LINE",
"110 690 LINE",
"280 690 LINE SMOOTH",
"372 690 OFFCURVE",
"438 630 OFFCURVE",
"438 536 CURVE SMOOTH",
"438 446 OFFCURVE",
"372 386 OFFCURVE",
"280 386 CURVE SMOOTH",
"110 386 LINE",
"110 356 LINE",
"302 356 LINE SMOOTH",
"422 356 OFFCURVE",
"496 292 OFFCURVE",
"496 192 CURVE SMOOTH",
"496 92 OFFCURVE",
"422 30 OFFCURVE",
"302 30 CURVE SMOOTH",
"128 30 LINE",
"128 0 LINE"
);
},
{
closed = 1;
nodes = (
"132 0 LINE",
"132 720 LINE",
"100 720 LINE",
"100 0 LINE"
);
}
);
width = 594;
},
{
anchors = (
{
name = bottom;
position = "{340, 0}";
},
{
name = center;
position = "{154, 226}";
},
{
name = top;
position = "{304, 720}";
}
);
layerId = "2D8F7115-C311-411E-929D-56333CF7FFB2";
paths = (
{
closed = 1;
nodes = (
"388 0 LINE SMOOTH",
"526 0 OFFCURVE",
"628 86 OFFCURVE",
"628 212 CURVE SMOOTH",
"628 330 OFFCURVE",
"538 380 OFFCURVE",
"444 394 CURVE",
"440 350 LINE",
"510 374 OFFCURVE",
"570 450 OFFCURVE",
"570 536 CURVE SMOOTH",
"570 640 OFFCURVE",
"480 720 OFFCURVE",
"320 720 CURVE SMOOTH",
"230 720 LINE",
"230 564 LINE",
"320 564 LINE SMOOTH",
"366 564 OFFCURVE",
"398 544 OFFCURVE",
"398 498 CURVE SMOOTH",
"398 460 OFFCURVE",
"374 430 OFFCURVE",
"332 430 CURVE SMOOTH",
"230 430 LINE",
"230 298 LINE",
"370 298 LINE SMOOTH",
"416 298 OFFCURVE",
"450 272 OFFCURVE",
"450 230 CURVE SMOOTH",
"450 184 OFFCURVE",
"418 156 OFFCURVE",
"376 156 CURVE SMOOTH",
"230 156 LINE",
"230 0 LINE"
);
},
{
closed = 1;
nodes = (
"244 0 LINE",
"244 720 LINE",
"64 720 LINE",
"64 0 LINE"
);
}
);
width = 652;
},
{
anchors = (
{
name = bottom;
position = "{312, 0}";
},
{
name = center;
position = "{138, 208}";
},
{
name = top;
position = "{310, 720}";
}
);
associatedMasterId = "AB099EFE-E788-4EFC-8633-CF147CB782A6";
hints = (
{
horizontal = 1;
origin = "{0, 22}";
type = Delta;
settings = {
deltaV = {
"{100, 370, 0, 0, 0, 0}" = {
"12" = -1;
};
};
};
},
{
horizontal = 1;
origin = "{0, 23}";
type = Delta;
settings = {
deltaV = {
"{100, 370, 0, 0, 0, 0}" = {
"12" = -1;
};
};
};
},
{
horizontal = 1;
origin = "{0, 24}";
type = Delta;
settings = {
deltaV = {
"{100, 370, 0, 0, 0, 0}" = {
"12" = -1;
};
};
};
},
{
horizontal = 1;
origin = "{0, 25}";
type = Delta;
settings = {
deltaV = {
"{100, 370, 0, 0, 0, 0}" = {
"12" = -1;
};
};
};
},
{
horizontal = 1;
origin = "{0, 23, 1, 1}";
type = Delta;
settings = {
deltaV = {
"{100, 370, 0, 0, 0, 0}" = {
"12" = -1;
};
};
};
},
{
horizontal = 1;
origin = "{0, 25, 1, 1}";
type = Delta;
settings = {
deltaV = {
"{100, 370, 0, 0, 0, 0}" = {
"12" = -1;
};
};
};
}
);
layerId = "5AD6DEE3-C1BF-45C1-B31B-12614FF61D47";
name = "{106}";
paths = (
{
closed = 1;
nodes = (
"324 0 LINE SMOOTH",
"472 0 OFFCURVE",
"564 82 OFFCURVE",
"564 200 CURVE SMOOTH",
"564 298 OFFCURVE",
"502 364 OFFCURVE",
"402 390 CURVE",
"402 364 LINE",
"462 384 OFFCURVE",
"514 460 OFFCURVE",
"514 538 CURVE SMOOTH",
"514 644 OFFCURVE",
"420 720 OFFCURVE",
"272 720 CURVE SMOOTH",
"168 720 LINE",
"168 628 LINE",
"278 628 LINE SMOOTH",
"358 628 OFFCURVE",
"410 590 OFFCURVE",
"410 522 CURVE SMOOTH",
"410 458 OFFCURVE",
"362 412 OFFCURVE",
"286 412 CURVE SMOOTH",
"168 412 LINE",
"168 320 LINE",
"316 320 LINE SMOOTH",
"404 320 OFFCURVE",
"460 278 OFFCURVE",
"460 206 CURVE SMOOTH",
"460 136 OFFCURVE",
"410 92 OFFCURVE",
"330 92 CURVE SMOOTH",
"178 92 LINE",
"178 0 LINE"
);
},
{
closed = 1;
nodes = (
"188 0 LINE",
"188 720 LINE",
"84 720 LINE",
"84 0 LINE"
);
}
);
width = 616;
},
{
anchors = (
{
name = bottom;
position = "{308, 0}";
},
{
name = center;
position = "{135, 208}";
},
{
name = top;
position = "{306, 720}";
}
);
associatedMasterId = "AB099EFE-E788-4EFC-8633-CF147CB782A6";
hints = (
{
horizontal = 1;
origin = "{0, 22}";
type = Delta;
settings = {
deltaV = {
"{100, 370, 0, 0, 0, 0}" = {
"12" = -1;
};
};
};
},
{
horizontal = 1;
origin = "{0, 23}";
type = Delta;
settings = {
deltaV = {
"{100, 370, 0, 0, 0, 0}" = {
"12" = -1;
};
};
};
},
{
horizontal = 1;
origin = "{0, 24}";
type = Delta;
settings = {
deltaV = {
"{100, 370, 0, 0, 0, 0}" = {
"12" = -1;
};
};
};
},
{
horizontal = 1;
origin = "{0, 25}";
type = Delta;
settings = {
deltaV = {
"{100, 370, 0, 0, 0, 0}" = {
"12" = -1;
};
};
};
},
{
horizontal = 1;
origin = "{0, 23, 1, 1}";
type = Delta;
settings = {
deltaV = {
"{100, 370, 0, 0, 0, 0}" = {
"12" = -1;
};
};
};
},
{
horizontal = 1;
origin = "{0, 25, 1, 1}";
type = Delta;
settings = {
deltaV = {
"{100, 370, 0, 0, 0, 0}" = {
"12" = -1;
};
};
};
}
);
layerId = "46AE161E-E7E4-4A76-8372-28D8648BDE50";
name = "{88}";
paths = (
{
closed = 1;
nodes = (
"320 0 LINE SMOOTH",
"466 0 OFFCURVE",
"557 81 OFFCURVE",
"558 198 CURVE SMOOTH",
"557 297 OFFCURVE",
"495 363 OFFCURVE",
"394 388 CURVE",
"394 366 LINE",
"455 388 OFFCURVE",
"505 460 OFFCURVE",
"506 538 CURVE SMOOTH",
"505 644 OFFCURVE",
"415 720 OFFCURVE",
"276 720 CURVE SMOOTH",
"156 720 LINE",
"156 644 LINE",
"280 644 LINE SMOOTH",
"363 644 OFFCURVE",
"418 600 OFFCURVE",
"418 526 CURVE SMOOTH",
"418 455 OFFCURVE",
"366 406 OFFCURVE",
"286 406 CURVE SMOOTH",
"156 406 LINE",
"156 330 LINE",
"314 330 LINE SMOOTH",
"410 330 OFFCURVE",
"470 281 OFFCURVE",
"470 204 CURVE SMOOTH",
"470 125 OFFCURVE",
"414 75 OFFCURVE",
"326 76 CURVE SMOOTH",
"168 76 LINE",
"168 0 LINE"
);
},
{
closed = 1;
nodes = (
"176 0 LINE",
"176 720 LINE",
"90 720 LINE",
"90 0 LINE"
);
}
);
width = 612;
}
);
leftKerningGroup = LAT_H_UC;
leftMetricsKey = H;
rightKerningGroup = LAT_B_UC;
unicode = 0042;
},
{
glyphname = C;
lastChange = "2021-01-08 00:23:11 +0000";
layers = (
{
anchors = (
{
name = base;
position = "{424, 0}";
},
{
name = bottom;
position = "{404, 0}";
},
{
name = cedilla;
position = "{404, 0}";
},
{
name = top;
position = "{404, 720}";
}
);
guideLines = (
{
angle = 67.5;
position = "{508, 360}";
},
{
angle = 112.5;
position = "{512, 360}";
}
);
layerId = "AB099EFE-E788-4EFC-8633-CF147CB782A6";
paths = (
{
closed = 1;
nodes = (
"488 -8 OFFCURVE",
"575 24 OFFCURVE",
"630 76 CURVE",
"616 108 LINE",
"572 58 OFFCURVE",
"492 24 OFFCURVE",
"404 22 CURVE SMOOTH",
"236 24 OFFCURVE",
"92 164 OFFCURVE",
"92 360 CURVE SMOOTH",
"92 560 OFFCURVE",
"246 700 OFFCURVE",
"406 698 CURVE SMOOTH",
"484 700 OFFCURVE",
"564 670 OFFCURVE",
"614 620 CURVE",
"628 652 LINE",
"575 696 OFFCURVE",
"494 728 OFFCURVE",
"406 728 CURVE SMOOTH",
"224 728 OFFCURVE",
"60 576 OFFCURVE",
"60 360 CURVE SMOOTH",
"60 148 OFFCURVE",
"218 -8 OFFCURVE",
"402 -8 CURVE SMOOTH"
);
}
);
width = 674;
},
{
anchors = (
{
name = base;
position = "{408, 0}";
},
{
name = bottom;
position = "{402, 0}";
},
{
name = cedilla;
position = "{414, 0}";
},
{
name = top;
position = "{398, 720}";
}
);
layerId = "2D8F7115-C311-411E-929D-56333CF7FFB2";
paths = (
{
closed = 1;
nodes = (
"488 -8 OFFCURVE",
"566 8 OFFCURVE",
"632 46 CURVE",
"564 206 LINE",
"530 170 OFFCURVE",
"468 156 OFFCURVE",
"420 156 CURVE SMOOTH",
"300 156 OFFCURVE",
"202 240 OFFCURVE",
"202 362 CURVE SMOOTH",
"202 482 OFFCURVE",
"300 564 OFFCURVE",
"412 564 CURVE SMOOTH",
"476 564 OFFCURVE",
"530 540 OFFCURVE",
"562 510 CURVE",
"630 670 LINE",
"562 710 OFFCURVE",
"484 728 OFFCURVE",
"412 728 CURVE SMOOTH",
"198 728 OFFCURVE",
"20 572 OFFCURVE",
"20 360 CURVE SMOOTH",
"20 148 OFFCURVE",
"200 -8 OFFCURVE",
"418 -8 CURVE SMOOTH"
);
}
);
width = 656;
},
{
anchors = (
{
name = base;
position = "{420, 0}";
},
{
name = bottom;
position = "{404, 0}";
},
{
name = cedilla;
position = "{410, 0}";
},
{
name = top;
position = "{404, 720}";
}
);
associatedMasterId = "AB099EFE-E788-4EFC-8633-CF147CB782A6";
guideLines = (
{
angle = 67.5;
position = "{510, 360}";
},
{
angle = 112.5;
position = "{514, 360}";
}
);
layerId = "902DFDB2-63EE-445A-9A4F-8706B9CE2395";
name = "{88}";
paths = (
{
closed = 1;
nodes = (
"492 -8 OFFCURVE",
"576 19 OFFCURVE",
"634 66 CURVE",
"602 144 LINE",
"559 100 OFFCURVE",
"486 72 OFFCURVE",
"414 72 CURVE SMOOTH",
"261 72 OFFCURVE",
"135 197 OFFCURVE",
"136 362 CURVE SMOOTH",
"135 531 OFFCURVE",
"271 649 OFFCURVE",
"414 648 CURVE SMOOTH",
"483 649 OFFCURVE",
"556 623 OFFCURVE",
"600 582 CURVE",
"632 660 LINE",
"573 701 OFFCURVE",
"494 728 OFFCURVE",
"412 728 CURVE SMOOTH",
"218 728 OFFCURVE",
"47 576 OFFCURVE",
"48 360 CURVE SMOOTH",
"48 148 OFFCURVE",
"214 -8 OFFCURVE",
"410 -8 CURVE SMOOTH"
);
}
);
width = 672;
}
);
leftKerningGroup = LAT_O_UC;
leftMetricsKey = O;
rightKerningGroup = LAT_C_UC;
unicode = 0043;
},
{
glyphname = D;
lastChange = "2021-01-08 00:23:11 +0000";
layers = (
{
anchors = (
{
name = bottom;
position = "{344, 0}";
},
{
name = center;
position = "{114, 370}";
},
{
name = top;
position = "{342, 720}";
}
);
layerId = "AB099EFE-E788-4EFC-8633-CF147CB782A6";
paths = (
{
closed = 1;
nodes = (
"100 0 LINE",
"322 0 LINE SMOOTH",
"520 0 OFFCURVE",
"636 154 OFFCURVE",
"634 368 CURVE SMOOTH",
"636 570 OFFCURVE",
"520 720 OFFCURVE",
"322 720 CURVE SMOOTH",
"100 720 LINE"
);
},
{
closed = 1;
nodes = (
"132 30 LINE",
"132 690 LINE",
"318 690 LINE SMOOTH",
"500 690 OFFCURVE",
"602 548 OFFCURVE",
"602 368 CURVE SMOOTH",
"602 178 OFFCURVE",
"500 30 OFFCURVE",
"318 30 CURVE SMOOTH"
);
}
);
width = 694;
},
{
anchors = (
{
name = bottom;
position = "{336, 0}";
},
{
name = center;
position = "{160, 360}";
},
{
name = top;
position = "{338, 720}";
}
);
layerId = "2D8F7115-C311-411E-929D-56333CF7FFB2";
paths = (
{
closed = 1;
nodes = (
"64 0 LINE",
"328 0 LINE SMOOTH",
"498 0 OFFCURVE",
"686 116 OFFCURVE",
"686 364 CURVE SMOOTH",
"686 610 OFFCURVE",
"498 720 OFFCURVE",
"314 720 CURVE SMOOTH",
"64 720 LINE"
);
},
{
closed = 1;
nodes = (
"244 160 LINE",
"244 560 LINE",
"334 560 LINE SMOOTH",
"394 560 OFFCURVE",
"506 518 OFFCURVE",
"506 364 CURVE SMOOTH",
"506 208 OFFCURVE",
"394 160 OFFCURVE",
"334 160 CURVE SMOOTH"
);
}
);
width = 706;
},
{
anchors = (
{
name = bottom;
position = "{344, 0}";
},
{
name = center;
position = "{134, 366}";
},
{
name = top;
position = "{344, 720}";
}
);
associatedMasterId = "AB099EFE-E788-4EFC-8633-CF147CB782A6";
layerId = "69F3414A-C527-4678-8850-EC48B63F9165";
name = "{88}";
paths = (
{
closed = 1;
nodes = (
"90 0 LINE",
"328 0 LINE SMOOTH",
"515 0 OFFCURVE",
"658 140 OFFCURVE",
"658 366 CURVE SMOOTH",
"658 585 OFFCURVE",
"515 720 OFFCURVE",
"322 720 CURVE SMOOTH",
"90 720 LINE"
);
},
{
closed = 1;
nodes = (
"178 80 LINE",
"178 640 LINE",
"328 640 LINE SMOOTH",
"463 639 OFFCURVE",
"569 537 OFFCURVE",
"570 366 CURVE SMOOTH",
"569 189 OFFCURVE",
"463 80 OFFCURVE",
"328 80 CURVE SMOOTH"
);
}
);
width = 706;
}
);
leftKerningGroup = LAT_H_UC;
leftMetricsKey = H;
rightKerningGroup = LAT_O_UC;
rightMetricsKey = O;
unicode = 0044;
},
{
glyphname = E;
lastChange = "2021-01-08 00:23:11 +0000";
layers = (
{
anchors = (
{
name = bottom;
position = "{292, 0}";
},
{
name = cedilla;
position = "{286, 0}";
},
{
name = ogonek;
position = "{472, 0}";
},
{
name = top;
position = "{286, 720}";
},
{
name = topleft;
position = "{20, 720}";
}
);
hints = (
{
horizontal = 1;
origin = "{0, 0}";
target = "{0, 3}";
type = TTStem;
options = 4;
},
{
horizontal = 1;
origin = "{0, 4}";
target = "{0, 7}";
type = TTStem;
options = 1;
},
{
horizontal = 1;
origin = "{0, 11}";
target = "{0, 8}";
type = TTStem;
options = 4;
},
{
horizontal = 1;
origin = "{0, 5}";
type = Anchor;
options = 1;
},
{
horizontal = 1;
origin = "{0, 4}";
type = Anchor;
options = 1;
},
{
horizontal = 1;
origin = "{0, 5}";
type = Anchor;
options = 1;
},
{
horizontal = 1;
origin = "{0, 6}";
type = Anchor;
options = 1;
},
{
horizontal = 1;
origin = "{0, 7}";
type = Anchor;
options = 1;
}
);
layerId = "AB099EFE-E788-4EFC-8633-CF147CB782A6";
paths = (
{
closed = 1;
nodes = (
"100 0 LINE",
"472 0 LINE",
"472 30 LINE",
"132 30 LINE",
"132 354 LINE",
"424 354 LINE",
"424 384 LINE",
"132 384 LINE",
"132 690 LINE",
"472 690 LINE",
"472 720 LINE",
"100 720 LINE"
);
}
);
width = 540;
},
{
anchors = (
{
name = bottom;
position = "{286, 0}";
},
{
name = cedilla;
position = "{284, 0}";
},
{
name = ogonek;
position = "{490, 0}";
},
{
name = top;
position = "{284, 720}";
},
{
name = topleft;
position = "{12, 720}";
}
);
hints = (
{
horizontal = 1;
origin = "{0, 0}";
target = "{0, 3}";
type = TTStem;
options = 4;
},
{
horizontal = 1;
origin = "{0, 4}";
target = "{0, 7}";
type = TTStem;
options = 1;
},
{
horizontal = 1;
origin = "{0, 11}";
target = "{0, 8}";
type = TTStem;
options = 4;
},
{
horizontal = 1;
origin = "{0, 5}";
type = Anchor;
options = 1;
},
{
horizontal = 1;
origin = "{0, 4}";
type = Anchor;
options = 1;
},
{
horizontal = 1;
origin = "{0, 5}";
type = Anchor;
options = 1;
},
{
horizontal = 1;
origin = "{0, 6}";
type = Anchor;
options = 1;
},
{
horizontal = 1;
origin = "{0, 7}";
type = Anchor;
options = 1;
}
);
layerId = "2D8F7115-C311-411E-929D-56333CF7FFB2";
paths = (
{
closed = 1;
nodes = (
"64 0 LINE",
"492 0 LINE",
"492 160 LINE",
"244 160 LINE",
"244 286 LINE",
"448 286 LINE",
"448 440 LINE",
"244 440 LINE",
"244 560 LINE",
"492 560 LINE",
"492 720 LINE",
"64 720 LINE"
);
}
);
width = 536;
},
{
anchors = (
{
name = bottom;
position = "{293, 0}";
},
{
name = cedilla;
position = "{288, 0}";
},
{
name = ogonek;
position = "{482, 0}";
},
{
name = top;
position = "{288, 720}";
},
{
name = topleft;
position = "{20, 720}";
}
);
associatedMasterId = "AB099EFE-E788-4EFC-8633-CF147CB782A6";
hints = (
{
horizontal = 1;
origin = "{0, 0}";
target = "{0, 3}";
type = TTStem;
options = 4;
},
{
horizontal = 1;
origin = "{0, 4}";
target = "{0, 7}";
type = TTStem;
options = 1;
},
{
horizontal = 1;
origin = "{0, 11}";
target = "{0, 8}";
type = TTStem;
options = 4;
},
{
horizontal = 1;
origin = "{0, 5}";
type = Anchor;
options = 1;
},
{
horizontal = 1;
origin = "{0, 4}";
type = Anchor;
options = 1;
},
{
horizontal = 1;
origin = "{0, 5}";
type = Anchor;
options = 1;
},
{
horizontal = 1;
origin = "{0, 6}";
type = Anchor;
options = 1;
},
{
horizontal = 1;
origin = "{0, 7}";
type = Anchor;
options = 1;
}
);
layerId = "BC87528E-7981-4E13-BBAC-5EDCF2AA5125";
name = "{88}";
paths = (
{
closed = 1;
nodes = (
"90 0 LINE",
"484 0 LINE",
"484 80 LINE",
"178 80 LINE",
"178 326 LINE",
"436 326 LINE",
"436 406 LINE",
"178 406 LINE",
"178 640 LINE",
"484 640 LINE",
"484 720 LINE",
"90 720 LINE"
);
}
);
width = 546;
}
);
leftKerningGroup = LAT_H_UC;
leftMetricsKey = H;
rightKerningGroup = LAT_E_UC;
unicode = 0045;
},
{
glyphname = F;
lastChange = "2021-01-08 00:23:11 +0000";
layers = (
{
anchors = (
{
name = bottom;
position = "{116, 0}";
},
{
name = center;
position = "{116, 184}";
},
{
name = top;
position = "{296, 720}";
}
);
layerId = "AB099EFE-E788-4EFC-8633-CF147CB782A6";
paths = (
{
closed = 1;
nodes = (
"100 0 LINE",
"132 0 LINE",
"132 354 LINE",
"420 354 LINE",
"420 384 LINE",
"132 384 LINE",
"132 690 LINE",
"460 690 LINE",
"460 720 LINE",
"100 720 LINE"
);
}
);
width = 500;
},
{
anchors = (
{
name = bottom;
position = "{154, 0}";
},
{
name = center;
position = "{154, 142}";
},
{
name = top;
position = "{308, 720}";
}
);
layerId = "2D8F7115-C311-411E-929D-56333CF7FFB2";
paths = (
{
closed = 1;
nodes = (
"64 0 LINE",
"244 0 LINE",
"244 256 LINE",
"448 256 LINE",
"448 416 LINE",
"244 416 LINE",
"244 560 LINE",
"492 560 LINE",
"492 720 LINE",
"64 720 LINE"
);
}
);
width = 516;
},
{
anchors = (
{
name = bottom;
position = "{133, 0}";
},
{
name = center;
position = "{133, 168}";
},
{
name = top;
position = "{304, 720}";
}
);
associatedMasterId = "AB099EFE-E788-4EFC-8633-CF147CB782A6";
layerId = "B7438167-CA9F-4AD9-8BE6-EC339DB37552";
name = "{88}";
paths = (
{
closed = 1;
nodes = (
"90 0 LINE",
"178 0 LINE",
"178 316 LINE",
"434 316 LINE",
"434 396 LINE",
"178 396 LINE",
"178 640 LINE",
"476 640 LINE",
"476 720 LINE",
"90 720 LINE"
);
}
);
width = 512;
}
);
leftKerningGroup = LAT_H_UC;
leftMetricsKey = H;
rightKerningGroup = LAT_F_UC;
unicode = 0046;
},
{
glyphname = G;
lastChange = "2021-01-08 05:50:44 +0000";
layers = (
{
anchors = (
{
name = bottom;
position = "{386, 0}";
},
{
name = hook;
position = "{628, 652}";
},
{
name = top;
position = "{386, 720}";
}
);
layerId = "AB099EFE-E788-4EFC-8633-CF147CB782A6";
paths = (
{
closed = 1;
nodes = (
"582 -8 OFFCURVE",
"696 132 OFFCURVE",
"696 344 CURVE SMOOTH",
"696 370 LINE",
"376 370 LINE",
"376 340 LINE",
"664 340 LINE",
"664 166 OFFCURVE",
"574 20 OFFCURVE",
"400 20 CURVE SMOOTH",
"230 20 OFFCURVE",
"92 160 OFFCURVE",
"92 360 CURVE SMOOTH",
"92 552 OFFCURVE",
"222 698 OFFCURVE",
"404 698 CURVE SMOOTH",
"486 698 OFFCURVE",
"564 670 OFFCURVE",
"614 620 CURVE",
"628 652 LINE",
"580 692 OFFCURVE",
"500 728 OFFCURVE",
"402 728 CURVE SMOOTH",
"200 728 OFFCURVE",
"60 570 OFFCURVE",
"60 360 CURVE SMOOTH",
"60 142 OFFCURVE",
"212 -8 OFFCURVE",
"400 -8 CURVE SMOOTH"
);
}
);
width = 756;
},
{
anchors = (
{
name = bottom;
position = "{390, 0}";
},
{
name = hook;
position = "{632, 670}";
},
{
name = top;
position = "{390, 720}";
}
);
layerId = "2D8F7115-C311-411E-929D-56333CF7FFB2";
paths = (
{
closed = 1;
nodes = (
"600 -8 OFFCURVE",
"732 120 OFFCURVE",
"732 292 CURVE SMOOTH",
"732 424 LINE",
"380 422 LINE",
"380 274 LINE",
"564 274 LINE",
"564 202 OFFCURVE",
"492 152 OFFCURVE",
"404 152 CURVE SMOOTH",
"282 152 OFFCURVE",
"204 242 OFFCURVE",
"204 360 CURVE SMOOTH",
"204 486 OFFCURVE",
"292 564 OFFCURVE",
"412 564 CURVE SMOOTH",
"476 564 OFFCURVE",
"530 540 OFFCURVE",
"562 510 CURVE",
"630 670 LINE",
"562 710 OFFCURVE",
"484 728 OFFCURVE",
"410 728 CURVE SMOOTH",
"200 728 OFFCURVE",
"20 580 OFFCURVE",
"20 356 CURVE SMOOTH",
"20 148 OFFCURVE",
"178 -8 OFFCURVE",
"400 -8 CURVE SMOOTH"
);
}
);
width = 756;
},
{
anchors = (
{
name = bottom;
position = "{394, 0}";
},
{
name = hook;
position = "{632, 660}";
},
{
name = top;
position = "{386, 720}";
}
);
associatedMasterId = "AB099EFE-E788-4EFC-8633-CF147CB782A6";
layerId = "CAE06344-F22A-4531-9FD8-C303921C266F";
name = "{88}";
paths = (
{
closed = 1;
nodes = (
"587 -8 OFFCURVE",
"707 133 OFFCURVE",
"708 328 CURVE SMOOTH",
"708 392 LINE",
"376 392 LINE",
"376 312 LINE",
"620 312 LINE",
"619 179 OFFCURVE",
"538 71 OFFCURVE",
"398 72 CURVE SMOOTH",
"249 71 OFFCURVE",
"135 189 OFFCURVE",
"136 362 CURVE SMOOTH",
"135 528 OFFCURVE",
"245 648 OFFCURVE",
"404 648 CURVE SMOOTH",
"483 648 OFFCURVE",
"555 620 OFFCURVE",
"598 578 CURVE",
"632 660 LINE",
"574 700 OFFCURVE",
"496 728 OFFCURVE",
"404 728 CURVE SMOOTH",
"193 728 OFFCURVE",
"47 572 OFFCURVE",
"48 360 CURVE SMOOTH",
"47 142 OFFCURVE",
"200 -8 OFFCURVE",
"398 -8 CURVE SMOOTH"
);
}
);
width = 752;
}
);
leftKerningGroup = LAT_O_UC;
leftMetricsKey = O;
rightKerningGroup = LAT_G_UC;
unicode = 0047;
},
{
glyphname = H;
lastChange = "2021-01-08 00:23:11 +0000";
layers = (
{
anchors = (
{
name = bottom;
position = "{350, 0}";
},
{
name = center;
position = "{350, 530}";
},
{
name = top;
position = "{350, 720}";
}
);
layerId = "AB099EFE-E788-4EFC-8633-CF147CB782A6";
paths = (
{
closed = 1;
nodes = (
"100 0 LINE",
"132 0 LINE",
"132 354 LINE",
"566 354 LINE",
"566 0 LINE",
"598 0 LINE",
"598 720 LINE",
"566 720 LINE",
"566 384 LINE",
"132 384 LINE",
"132 720 LINE",
"100 720 LINE"
);
}
);
width = 698;
},
{
anchors = (
{
name = bottom;
position = "{363, 0}";
},
{
name = center;
position = "{363, 548}";
},
{
name = top;
position = "{363, 720}";
}
);
associatedMasterId = "AB099EFE-E788-4EFC-8633-CF147CB782A6";
layerId = "8BF37DDA-56C3-4E70-8EA0-0B42FD4B4662";
name = "{88}";
paths = (
{
closed = 1;
nodes = (
"90 0 LINE",
"178 0 LINE",
"178 328 LINE",
"548 328 LINE",
"548 0 LINE",
"636 0 LINE",
"636 720 LINE",
"548 720 LINE",
"548 408 LINE",
"178 408 LINE",
"178 720 LINE",
"90 720 LINE"
);
}
);
width = 726;
},
{
anchors = (
{
name = bottom;
position = "{376, 0}";
},
{
name = center;
position = "{376, 578}";
},
{
name = top;
position = "{376, 720}";
}
);
layerId = "2D8F7115-C311-411E-929D-56333CF7FFB2";
paths = (
{
closed = 1;
nodes = (
"64 0 LINE",
"244 0 LINE",
"244 282 LINE",
"508 282 LINE",
"508 0 LINE",
"688 0 LINE",
"688 720 LINE",
"508 720 LINE",
"508 442 LINE",
"244 442 LINE",
"244 720 LINE",
"64 720 LINE"
);
}
);
width = 752;
}
);
leftKerningGroup = LAT_H_UC;
rightKerningGroup = LAT_H_UC;
unicode = 0048;
},
{
glyphname = I;
lastChange = "2021-01-08 00:23:11 +0000";
layers = (
{
anchors = (
{
name = bottom;
position = "{120, 0}";
},
{
name = ogonek;
position = "{136, 0}";
},
{
name = top;
position = "{120, 720}";
}
);
layerId = "AB099EFE-E788-4EFC-8633-CF147CB782A6";
paths = (
{
closed = 1;
nodes = (
"104 0 LINE",
"136 0 LINE",
"136 720 LINE",
"104 720 LINE"
);
}
);
width = 240;
},
{
anchors = (
{
name = bottom;
position = "{166, 0}";
},
{
name = ogonek;
position = "{256, 0}";
},
{
name = top;
position = "{166, 720}";
}
);
layerId = "2D8F7115-C311-411E-929D-56333CF7FFB2";
paths = (
{
closed = 1;
nodes = (
"76 0 LINE",
"256 0 LINE",
"256 720 LINE",
"76 720 LINE"
);
}
);
width = 332;
},
{
anchors = (
{
name = bottom;
position = "{140, 0}";
},
{
name = ogonek;
position = "{184, 0}";
},
{
name = top;
position = "{140, 720}";
}
);
associatedMasterId = "AB099EFE-E788-4EFC-8633-CF147CB782A6";
layerId = "787C6819-84DE-4901-BB7C-BD7BC4C39BB5";
name = "{88}";
paths = (
{
closed = 1;
nodes = (
"96 0 LINE",
"184 0 LINE",
"184 720 LINE",
"96 720 LINE"
);
}
);
width = 280;
}
);
leftKerningGroup = LAT_H_UC;
rightKerningGroup = LAT_H_UC;
unicode = 0049;
},
{
color = 10;
glyphname = I.ss03;
lastChange = "2020-06-28 03:09:56 +0000";
layers = (
{
anchors = (
{
name = bottom;
position = "{184, 0}";
},
{
name = ogonek;
position = "{288, 0}";
},
{
name = top;
position = "{184, 720}";
}
);
layerId = "AB099EFE-E788-4EFC-8633-CF147CB782A6";
paths = (
{
closed = 1;
nodes = (
"168 0 LINE",
"200 0 LINE",
"200 720 LINE",
"168 720 LINE"
);
},
{
closed = 1;
nodes = (
"80 690 LINE",
"288 690 LINE",
"288 720 LINE",
"80 720 LINE"
);
},
{
closed = 1;
nodes = (
"80 0 LINE",
"288 0 LINE",
"288 30 LINE",
"80 30 LINE"
);
}
);
width = 368;
},
{
anchors = (
{
name = bottom;
position = "{244, 0}";
},
{
name = ogonek;
position = "{428, 0}";
},
{
name = top;
position = "{244, 720}";
}
);
layerId = "2D8F7115-C311-411E-929D-56333CF7FFB2";
paths = (
{
closed = 1;
nodes = (
"154 0 LINE",
"334 0 LINE",
"334 720 LINE",
"154 720 LINE"
);
},
{
closed = 1;
nodes = (
"60 564 LINE",
"428 564 LINE",
"428 720 LINE",
"60 720 LINE"
);
},
{
closed = 1;
nodes = (
"60 0 LINE",
"428 0 LINE",
"428 156 LINE",
"60 156 LINE"
);
}
);
width = 488;
},
{
anchors = (
{
name = bottom;
position = "{208, 0}";
},
{
name = ogonek;
position = "{344, 0}";
},
{
name = top;
position = "{208, 720}";
}
);
associatedMasterId = "AB099EFE-E788-4EFC-8633-CF147CB782A6";
layerId = "FEF13201-9ED5-42CC-B3FA-7E72E5D546A3";
name = "{88}";
paths = (
{
closed = 1;
nodes = (
"164 0 LINE",
"252 0 LINE",
"252 720 LINE",
"164 720 LINE"
);
},
{
closed = 1;
nodes = (
"72 642 LINE",
"344 642 LINE",
"344 720 LINE",
"72 720 LINE"
);
},
{
closed = 1;
nodes = (
"72 0 LINE",
"344 0 LINE",
"344 78 LINE",
"72 78 LINE"
);
}
);
width = 416;
}
);
leftKerningGroup = LAT_ISS03_UC;
rightKerningGroup = LAT_ISS03_UC;
},
{
glyphname = J;
lastChange = "2021-01-08 00:23:11 +0000";
layers = (
{
anchors = (
{
name = bottom;
position = "{212, 0}";
},
{
name = top;
position = "{336, 720}";
}
);
layerId = "AB099EFE-E788-4EFC-8633-CF147CB782A6";
paths = (
{
closed = 1;
nodes = (
"326 76 OFFCURVE",
"264 24 OFFCURVE",
"186 22 CURVE SMOOTH",
"108 24 OFFCURVE",
"56 82 OFFCURVE",
"56 170 CURVE",
"24 170 LINE",
"26 66 OFFCURVE",
"90 -8 OFFCURVE",
"188 -8 CURVE SMOOTH",
"284 -8 OFFCURVE",
"358 60 OFFCURVE",
"358 212 CURVE SMOOTH",
"358 720 LINE",
"326 720 LINE",
"326 210 LINE SMOOTH"
);
}
);
width = 458;
},
{
anchors = (
{
name = bottom;
position = "{272, 0}";
},
{
name = top;
position = "{388, 720}";
}
);
layerId = "2D8F7115-C311-411E-929D-56333CF7FFB2";
paths = (
{
closed = 1;
nodes = (
"302 182 OFFCURVE",
"276 152 OFFCURVE",
"238 152 CURVE SMOOTH",
"198 152 OFFCURVE",
"172 186 OFFCURVE",
"172 242 CURVE",
"4 242 LINE",
"4 90 OFFCURVE",
"96 -8 OFFCURVE",
"242 -8 CURVE SMOOTH",
"388 -8 OFFCURVE",
"482 84 OFFCURVE",
"482 228 CURVE SMOOTH",
"482 720 LINE",
"302 720 LINE",
"302 226 LINE SMOOTH"
);
}
);
width = 546;
},
{
anchors = (
{
name = bottom;
position = "{228, 0}";
},
{
name = top;
position = "{359, 720}";
}
);
associatedMasterId = "AB099EFE-E788-4EFC-8633-CF147CB782A6";
layerId = "AFF542C5-1D80-4C96-ADAF-4F1285FD1578";
name = "{88}";
paths = (
{
closed = 1;
nodes = (
"320 116 OFFCURVE",
"272 72 OFFCURVE",
"210 72 CURVE SMOOTH",
"145 72 OFFCURVE",
"103 121 OFFCURVE",
"104 198 CURVE",
"20 198 LINE",
"21 75 OFFCURVE",
"95 -8 OFFCURVE",
"212 -8 CURVE SMOOTH",
"326 -8 OFFCURVE",
"408 69 OFFCURVE",
"408 218 CURVE SMOOTH",
"408 720 LINE",
"320 720 LINE",
"320 216 LINE SMOOTH"
);
}
);
width = 498;
}
);
leftKerningGroup = LAT_J_UC;
rightKerningGroup = LAT_U_UC;
rightMetricsKey = H;
unicode = 004A;
},
{
glyphname = K;
lastChange = "2021-01-08 00:23:11 +0000";
layers = (
{
anchors = (
{
name = bottom;
position = "{308, 0}";
},
{
name = top;
position = "{308, 720}";
}
);
layerId = "AB099EFE-E788-4EFC-8633-CF147CB782A6";
paths = (
{
closed = 1;
nodes = (
"132 0 LINE",
"132 346 LINE",
"148 346 LINE",
"130 358 LINE",
"512 0 LINE",
"556 0 LINE",
"160 372 LINE",
"160 350 LINE",
"530 720 LINE",
"486 720 LINE",
"130 362 LINE",
"148 374 LINE",
"132 374 LINE",
"132 720 LINE",
"100 720 LINE",
"100 0 LINE"
);
}
);
width = 592;
},
{
anchors = (
{
name = bottom;
position = "{356, 0}";
},
{
name = top;
position = "{338, 720}";
}
);
guideLines = (
{
angle = 120;
position = "{628, 0}";
}
);
layerId = "2D8F7115-C311-411E-929D-56333CF7FFB2";
paths = (
{
closed = 1;
nodes = (
"244 0 LINE",
"244 312 LINE",
"286 312 LINE",
"228 338 LINE",
"480 0 LINE",
"694 0 LINE",
"382 414 LINE",
"382 316 LINE",
"686 720 LINE",
"470 720 LINE",
"228 378 LINE",
"286 404 LINE",
"244 404 LINE",
"244 720 LINE",
"64 720 LINE",
"64 0 LINE"
);
}
);
width = 694;
},
{
anchors = (
{
name = bottom;
position = "{330, 0}";
},
{
name = top;
position = "{322, 720}";
}
);
associatedMasterId = "AB099EFE-E788-4EFC-8633-CF147CB782A6";
layerId = "A0D9A2DE-A6AD-4B49-A9A4-BFE069F1957D";
name = "{88}";
paths = (
{
closed = 1;
nodes = (
"178 0 LINE",
"178 334 LINE",
"204 334 LINE",
"168 350 LINE",
"502 0 LINE",
"612 0 LINE",
"248 382 LINE",
"248 338 LINE",
"592 720 LINE",
"484 720 LINE",
"168 368 LINE",
"204 386 LINE",
"178 386 LINE",
"178 720 LINE",
"90 720 LINE",
"90 0 LINE"
);
}
);
width = 638;
}
);
leftKerningGroup = LAT_H_UC;
leftMetricsKey = H;
rightKerningGroup = LAT_K_UC;
unicode = 004B;
},
{
glyphname = L;
lastChange = "2021-01-08 00:23:11 +0000";
layers = (
{
anchors = (
{
name = bottom;
position = "{292, 0}";
},
{
name = center;
position = "{116, 360}";
},
{
name = dot;
position = "{374, 360}";
},
{
name = top;
position = "{116, 720}";
},
{
name = topright;
position = "{376, 720}";
}
);
layerId = "AB099EFE-E788-4EFC-8633-CF147CB782A6";
paths = (
{
closed = 1;
nodes = (
"100 0 LINE",
"470 0 LINE",
"470 30 LINE",
"132 30 LINE",
"132 720 LINE",
"100 720 LINE"
);
}
);
width = 496;
},
{
anchors = (
{
name = bottom;
position = "{282, 0}";
},
{
name = center;
position = "{152, 370}";
},
{
name = dot;
position = "{420, 368}";
},
{
name = top;
position = "{158, 720}";
},
{
name = topright;
position = "{310, 720}";
}
);
layerId = "2D8F7115-C311-411E-929D-56333CF7FFB2";
paths = (
{
closed = 1;
nodes = (
"64 0 LINE",
"490 0 LINE",
"490 160 LINE",
"244 160 LINE",
"244 720 LINE",
"64 720 LINE"
);
}
);
width = 498;
},
{
anchors = (
{
name = bottom;
position = "{291, 0}";
},
{
name = center;
position = "{134, 364}";
},
{
name = dot;
position = "{394, 364}";
},
{
name = top;
position = "{134, 720}";
},
{
name = topright;
position = "{354, 720}";
}
);
associatedMasterId = "AB099EFE-E788-4EFC-8633-CF147CB782A6";
layerId = "71172311-3D93-4B68-A2BD-CBF00078A740";
name = "{88}";
paths = (
{
closed = 1;
nodes = (
"90 0 LINE",
"482 0 LINE",
"482 80 LINE",
"178 80 LINE",
"178 720 LINE",
"90 720 LINE"
);
}
);
width = 504;
}
);
leftKerningGroup = LAT_H_UC;
leftMetricsKey = H;
rightKerningGroup = LAT_L_UC;
unicode = 004C;
},
{
glyphname = M;
lastChange = "2021-01-08 00:23:11 +0000";
layers = (
{
anchors = (
{
name = bottom;
position = "{392, 0}";
},
{
name = top;
position = "{392, 720}";
}
);
layerId = "AB099EFE-E788-4EFC-8633-CF147CB782A6";
paths = (
{
closed = 1;
nodes = (
"100 0 LINE",
"132 0 LINE",
"132 522 LINE",
"132 658 LINE",
"136 658 LINE",
"382 134 LINE",
"402 134 LINE",
"648 658 LINE",
"652 658 LINE",
"652 522 LINE",
"652 0 LINE",
"684 0 LINE",
"684 720 LINE",
"644 720 LINE",
"396 188 LINE",
"390 188 LINE",
"140 720 LINE",
"100 720 LINE"
);
}
);
width = 784;
},
{
anchors = (
{
name = bottom;
position = "{444, 0}";
},
{
name = top;
position = "{444, 720}";
}
);
layerId = "2D8F7115-C311-411E-929D-56333CF7FFB2";
paths = (
{
closed = 1;
nodes = (
"64 0 LINE",
"244 0 LINE",
"244 196 LINE",
"240 398 LINE",
"244 398 LINE",
"428 150 LINE",
"460 150 LINE",
"646 398 LINE",
"650 398 LINE",
"644 196 LINE",
"644 0 LINE",
"826 0 LINE",
"826 720 LINE",
"694 720 LINE",
"446 400 LINE",
"442 400 LINE",
"194 720 LINE",
"64 720 LINE"
);
}
);
width = 890;
},
{
anchors = (
{
name = bottom;
position = "{414, 0}";
},
{
name = top;
position = "{414, 720}";
}
);
associatedMasterId = "AB099EFE-E788-4EFC-8633-CF147CB782A6";
layerId = "86B9C816-2A2A-4777-96B5-5E7AB1C7640E";
name = "{88}";
paths = (
{
closed = 1;
nodes = (
"90 0 LINE",
"176 0 LINE",
"176 394 LINE",
"174 536 LINE",
"178 536 LINE",
"398 140 LINE",
"430 140 LINE",
"650 536 LINE",
"654 536 LINE",
"652 394 LINE",
"652 0 LINE",
"738 0 LINE",
"738 720 LINE",
"666 720 LINE",
"416 272 LINE",
"412 272 LINE",
"162 720 LINE",
"90 720 LINE"
);
}
);
width = 828;
}
);
leftKerningGroup = LAT_H_UC;
leftMetricsKey = H;
rightKerningGroup = LAT_H_UC;
rightMetricsKey = H;
unicode = 004D;
},
{
glyphname = N;
lastChange = "2021-01-08 00:38:55 +0000";
layers = (
{
anchors = (
{
name = bottom;
position = "{344, 0}";
},
{
name = leghookright;
position = "{586, 0}";
},
{
name = top;
position = "{352, 720}";
}
);
layerId = "AB099EFE-E788-4EFC-8633-CF147CB782A6";
paths = (
{
closed = 1;
nodes = (
"100 0 LINE",
"132 0 LINE",
"132 472 LINE",
"132 660 LINE",
"136 660 LINE",
"224 528 LINE",
"572 0 LINE",
"602 0 LINE",
"602 720 LINE",
"570 720 LINE",
"570 252 LINE",
"570 58 LINE",
"566 58 LINE",
"480 190 LINE",
"130 720 LINE",
"100 720 LINE"
);
}
);
width = 702;
},
{
anchors = (
{
name = bottom;
position = "{382, 0}";
},
{
name = leghookright;
position = "{618, 0}";
},
{
name = top;
position = "{384, 720}";
}
);
layerId = "2D8F7115-C311-411E-929D-56333CF7FFB2";
paths = (
{
closed = 1;
nodes = (
"64 0 LINE",
"244 0 LINE",
"244 254 LINE",
"240 414 LINE",
"244 414 LINE",
"290 348 LINE",
"572 0 LINE",
"704 0 LINE",
"704 720 LINE",
"522 720 LINE",
"522 466 LINE",
"526 316 LINE",
"522 316 LINE",
"476 380 LINE",
"194 720 LINE",
"64 720 LINE"
);
}
);
width = 768;
},
{
anchors = (
{
name = bottom;
position = "{366, 0}";
},
{
name = leghookright;
position = "{604, 0}";
},
{
name = top;
position = "{370, 720}";
}
);
associatedMasterId = "AB099EFE-E788-4EFC-8633-CF147CB782A6";
background = {
paths = (
{
closed = 1;
nodes = (
"546 190 LINE",
"62 874 LINE",
"84 720 LINE",
"84 0 LINE",
"188 0 LINE",
"188 536 LINE",
"674 -146 LINE",
"650 -2 LINE",
"650 720 LINE",
"546 720 LINE"
);
}
);
};
layerId = "94E0382F-BC24-4C69-AAF8-052F59CB1787";
name = "{106}";
paths = (
{
closed = 1;
nodes = (
"84 0 LINE",
"188 0 LINE",
"188 352 LINE",
"188 524 LINE",
"192 524 LINE",
"256 438 LINE",
"580 0 LINE",
"656 0 LINE",
"656 720 LINE",
"552 720 LINE",
"552 372 LINE",
"552 196 LINE",
"548 196 LINE",
"484 284 LINE",
"160 720 LINE",
"84 720 LINE"
);
}
);
width = 742;
},
{
anchors = (
{
name = bottom;
position = "{368, 0}";
},
{
name = leghookright;
position = "{604, 0}";
},
{
name = top;
position = "{368, 720}";
}
);
associatedMasterId = "AB099EFE-E788-4EFC-8633-CF147CB782A6";
layerId = "83D44B34-9626-46EA-B10D-BE62614EBD02";
name = "{88}";
paths = (
{
closed = 1;
nodes = (
"90 0 LINE",
"178 0 LINE",
"178 382 LINE",
"176 556 LINE",
"180 556 LINE",
"250 460 LINE",
"582 0 LINE",
"646 0 LINE",
"646 720 LINE",
"558 720 LINE",
"558 344 LINE",
"560 164 LINE",
"556 164 LINE",
"488 262 LINE",
"154 720 LINE",
"90 720 LINE"
);
}
);
width = 736;
}
);
leftKerningGroup = LAT_H_UC;
leftMetricsKey = H;
rightKerningGroup = LAT_H_UC;
rightMetricsKey = H;
unicode = 004E;
},
{
glyphname = O;
lastChange = "2021-01-08 06:02:59 +0000";
layers = (
{
anchors = (
{
name = bottom;
position = "{400, 0}";
},
{
name = center;
position = "{402, 360}";
},
{
name = horn;
position = "{560, 688}";
},
{
name = ogonek;
position = "{466, 0}";
},
{
name = top;
position = "{400, 720}";
},
{
name = topleft;
position = "{38, 720}";
},
{
name = topright;
position = "{766, 720}";
}
);
layerId = "AB099EFE-E788-4EFC-8633-CF147CB782A6";
paths = (
{
closed = 1;
nodes = (
"596 -8 OFFCURVE",
"744 150 OFFCURVE",
"744 360 CURVE SMOOTH",
"744 570 OFFCURVE",
"596 728 OFFCURVE",
"400 728 CURVE SMOOTH",
"208 728 OFFCURVE",
"60 570 OFFCURVE",
"60 360 CURVE SMOOTH",
"60 150 OFFCURVE",
"208 -8 OFFCURVE",
"400 -8 CURVE SMOOTH"
);
},
{
closed = 1;
nodes = (
"228 22 OFFCURVE",
"92 164 OFFCURVE",
"92 360 CURVE SMOOTH",
"92 554 OFFCURVE",
"228 698 OFFCURVE",
"400 698 CURVE SMOOTH",
"576 698 OFFCURVE",
"712 554 OFFCURVE",
"712 360 CURVE SMOOTH",
"712 164 OFFCURVE",
"576 22 OFFCURVE",
"400 22 CURVE SMOOTH"
);
}
);
width = 804;
},
{
anchors = (
{
name = bottom;
position = "{396, 0}";
},
{
name = center;
position = "{396, 360}";
},
{
name = horn;
position = "{550, 696}";
},
{
name = ogonek;
position = "{472, 0}";
},
{
name = top;
position = "{396, 720}";
},
{
name = topleft;
position = "{-2, 720}";
},
{
name = topright;
position = "{794, 720}";
}
);
layerId = "2D8F7115-C311-411E-929D-56333CF7FFB2";
paths = (
{
closed = 1;
nodes = (
"602 -8 OFFCURVE",
"772 156 OFFCURVE",
"772 360 CURVE SMOOTH",
"772 564 OFFCURVE",
"604 728 OFFCURVE",
"396 728 CURVE SMOOTH",
"188 728 OFFCURVE",
"20 564 OFFCURVE",
"20 360 CURVE SMOOTH",
"20 156 OFFCURVE",
"188 -8 OFFCURVE",
"396 -8 CURVE SMOOTH"
);
},
{
closed = 1;
nodes = (
"284 156 OFFCURVE",
"200 243 OFFCURVE",
"200 360 CURVE SMOOTH",
"200 477 OFFCURVE",
"284 564 OFFCURVE",
"396 564 CURVE SMOOTH",
"508 564 OFFCURVE",
"592 477 OFFCURVE",
"592 360 CURVE SMOOTH",
"592 243 OFFCURVE",
"508 156 OFFCURVE",
"396 156 CURVE SMOOTH"
);
}
);
width = 792;
},
{
anchors = (
{
name = bottom;
position = "{400, 0}";
},
{
name = center;
position = "{402, 360}";
},
{
name = horn;
position = "{554, 694}";
},
{
name = ogonek;
position = "{468, 0}";
},
{
name = top;
position = "{400, 720}";
},
{
name = topleft;
position = "{26, 718}";
},
{
name = topright;
position = "{774, 718}";
}
);
associatedMasterId = "AB099EFE-E788-4EFC-8633-CF147CB782A6";
layerId = "B51E8ABC-071E-4402-B051-E2039DE042B2";
name = "{88}";
paths = (
{
closed = 1;
nodes = (
"603 -8 OFFCURVE",
"755 148 OFFCURVE",
"756 360 CURVE SMOOTH",
"755 570 OFFCURVE",
"603 728 OFFCURVE",
"400 728 CURVE SMOOTH",
"198 728 OFFCURVE",
"47 570 OFFCURVE",
"48 360 CURVE SMOOTH",
"47 148 OFFCURVE",
"199 -8 OFFCURVE",
"400 -8 CURVE SMOOTH"
);
},
{
closed = 1;
nodes = (
"248 72 OFFCURVE",
"135 193 OFFCURVE",
"136 360 CURVE SMOOTH",
"135 527 OFFCURVE",
"251 648 OFFCURVE",
"400 648 CURVE SMOOTH",
"551 648 OFFCURVE",
"666 527 OFFCURVE",
"668 360 CURVE SMOOTH",
"669 196 OFFCURVE",
"555 72 OFFCURVE",
"400 72 CURVE SMOOTH"
);
}
);
width = 804;
}
);
leftKerningGroup = LAT_O_UC;
rightKerningGroup = LAT_O_UC;
unicode = 004F;
},
{
glyphname = OE;
lastChange = "2021-01-08 00:23:11 +0000";
layers = (
{
anchors = (
{
name = bottom;
position = "{582, 0}";
},
{
name = top;
position = "{582, 720}";
}
);
layerId = "AB099EFE-E788-4EFC-8633-CF147CB782A6";
paths = (
{
closed = 1;
nodes = (
"538 -8 OFFCURVE",
"658 78 OFFCURVE",
"700 222 CURVE",
"686 222 LINE",
"686 0 LINE",
"1058 0 LINE",
"1058 30 LINE",
"718 30 LINE",
"718 354 LINE",
"1010 354 LINE",
"1010 384 LINE",
"718 384 LINE",
"718 690 LINE",
"1058 690 LINE",
"1058 720 LINE",
"686 720 LINE",
"686 498 LINE",
"700 498 LINE",
"658 642 OFFCURVE",
"538 728 OFFCURVE",
"396 728 CURVE SMOOTH",
"206 728 OFFCURVE",
"60 572 OFFCURVE",
"60 360 CURVE SMOOTH",
"60 150 OFFCURVE",
"206 -8 OFFCURVE",
"396 -8 CURVE SMOOTH"
);
},
{
closed = 1;
nodes = (
"224 22 OFFCURVE",
"92 166 OFFCURVE",
"92 360 CURVE SMOOTH",
"92 556 OFFCURVE",
"224 700 OFFCURVE",
"398 698 CURVE SMOOTH",
"574 700 OFFCURVE",
"690 556 OFFCURVE",
"690 360 CURVE SMOOTH",
"690 164 OFFCURVE",
"574 22 OFFCURVE",
"398 20 CURVE SMOOTH"
);
}
);
width = 1126;
},
{
anchors = (
{
name = bottom;
position = "{518, 0}";
},
{
name = top;
position = "{518, 720}";
}
);
layerId = "2D8F7115-C311-411E-929D-56333CF7FFB2";
paths = (
{
closed = 1;
nodes = (
"502 -8 OFFCURVE",
"586 50 OFFCURVE",
"636 150 CURVE",
"570 150 LINE",
"570 0 LINE",
"976 0 LINE",
"976 160 LINE",
"730 160 LINE",
"730 286 LINE",
"934 286 LINE",
"934 438 LINE",
"730 438 LINE",
"730 560 LINE",
"976 560 LINE",
"976 720 LINE",
"570 720 LINE",
"570 570 LINE",
"636 570 LINE",
"586 672 OFFCURVE",
"518 732 OFFCURVE",
"380 732 CURVE SMOOTH",
"190 732 OFFCURVE",
"22 574 OFFCURVE",
"20 360 CURVE SMOOTH",
"22 146 OFFCURVE",
"190 -8 OFFCURVE",
"380 -8 CURVE SMOOTH"
);
},
{
closed = 1;
nodes = (
"284 144 OFFCURVE",
"200 236 OFFCURVE",
"200 360 CURVE SMOOTH",
"200 484 OFFCURVE",
"284 576 OFFCURVE",
"392 576 CURVE SMOOTH",
"504 576 OFFCURVE",
"586 484 OFFCURVE",
"586 360 CURVE SMOOTH",
"586 236 OFFCURVE",
"504 144 OFFCURVE",
"392 144 CURVE SMOOTH"
);
}
);
width = 1020;
},
{
anchors = (
{
name = bottom;
position = "{562, 0}";
},
{
name = top;
position = "{562, 720}";
}
);
associatedMasterId = "AB099EFE-E788-4EFC-8633-CF147CB782A6";
layerId = "8F70DAA8-0AA5-44FD-A186-9E3DE6767B52";
name = "{88}";
paths = (
{
closed = 1;
nodes = (
"527 -8 OFFCURVE",
"634 67 OFFCURVE",
"680 196 CURVE",
"646 196 LINE",
"646 0 LINE",
"1030 0 LINE",
"1030 80 LINE",
"726 80 LINE",
"726 326 LINE",
"984 326 LINE",
"984 406 LINE",
"726 406 LINE",
"726 640 LINE",
"1030 640 LINE",
"1030 720 LINE",
"646 720 LINE",
"646 526 LINE",
"680 526 LINE",
"634 653 OFFCURVE",
"533 730 OFFCURVE",
"394 730 CURVE SMOOTH",
"203 730 OFFCURVE",
"49 573 OFFCURVE",
"48 360 CURVE SMOOTH",
"49 148 OFFCURVE",
"203 -8 OFFCURVE",
"394 -8 CURVE SMOOTH"
);
},
{
closed = 1;
nodes = (
"250 68 OFFCURVE",
"136 192 OFFCURVE",
"136 360 CURVE SMOOTH",
"136 529 OFFCURVE",
"250 653 OFFCURVE",
"400 652 CURVE SMOOTH",
"551 653 OFFCURVE",
"654 529 OFFCURVE",
"654 360 CURVE SMOOTH",
"654 191 OFFCURVE",
"551 68 OFFCURVE",
"400 68 CURVE SMOOTH"
);
}
);
width = 1092;
}
);
leftKerningGroup = LAT_O_UC;
leftMetricsKey = O;
rightKerningGroup = LAT_E_UC;
rightMetricsKey = E;
unicode = 0152;
},
{
glyphname = P;
lastChange = "2021-01-08 00:23:11 +0000";
layers = (
{
anchors = (
{
name = bottom;
position = "{116, 0}";
},
{
name = top;
position = "{310, 720}";
}
);
layerId = "AB099EFE-E788-4EFC-8633-CF147CB782A6";
paths = (
{
closed = 1;
nodes = (
"284 324 LINE SMOOTH",
"408 324 OFFCURVE",
"488 416 OFFCURVE",
"488 526 CURVE SMOOTH",
"488 644 OFFCURVE",
"398 720 OFFCURVE",
"278 720 CURVE SMOOTH",
"116 720 LINE",
"116 690 LINE",
"274 690 LINE SMOOTH",
"382 690 OFFCURVE",
"456 628 OFFCURVE",
"456 526 CURVE SMOOTH",
"456 424 OFFCURVE",
"384 354 OFFCURVE",
"278 354 CURVE SMOOTH",
"116 354 LINE",
"116 324 LINE"
);
},
{
closed = 1;
nodes = (
"132 0 LINE",
"132 720 LINE",
"100 720 LINE",
"100 0 LINE"
);
}
);
width = 542;
},
{
anchors = (
{
name = bottom;
position = "{154, 0}";
},
{
name = top;
position = "{328, 720}";
}
);
layerId = "2D8F7115-C311-411E-929D-56333CF7FFB2";
paths = (
{
closed = 1;
nodes = (
"322 220 LINE SMOOTH",
"482 220 OFFCURVE",
"592 322 OFFCURVE",
"592 476 CURVE SMOOTH",
"592 624 OFFCURVE",
"490 720 OFFCURVE",
"318 720 CURVE SMOOTH",
"208 720 LINE",
"208 560 LINE",
"308 560 LINE SMOOTH",
"374 560 OFFCURVE",
"416 524 OFFCURVE",
"416 470 CURVE SMOOTH",
"416 418 OFFCURVE",
"376 378 OFFCURVE",
"314 378 CURVE SMOOTH",
"208 378 LINE",
"208 220 LINE"
);
},
{
closed = 1;
nodes = (
"244 0 LINE",
"244 720 LINE",
"64 720 LINE",
"64 0 LINE"
);
}
);
width = 612;
},
{
anchors = (
{
name = bottom;
position = "{134, 0}";
},
{
name = top;
position = "{320, 720}";
}
);
associatedMasterId = "AB099EFE-E788-4EFC-8633-CF147CB782A6";
layerId = "8693DD1E-D2EA-488A-849C-EF28A0719D6C";
name = "{88}";
paths = (
{
closed = 1;
nodes = (
"302 286 LINE SMOOTH",
"440 286 OFFCURVE",
"528 380 OFFCURVE",
"528 508 CURVE SMOOTH",
"528 636 OFFCURVE",
"436 720 OFFCURVE",
"296 720 CURVE SMOOTH",
"154 720 LINE",
"154 640 LINE",
"290 640 LINE SMOOTH",
"382 640 OFFCURVE",
"440 590 OFFCURVE",
"440 506 CURVE SMOOTH",
"440 422 OFFCURVE",
"384 366 OFFCURVE",
"296 366 CURVE SMOOTH",
"154 366 LINE",
"154 286 LINE"
);
},
{
closed = 1;
nodes = (
"178 0 LINE",
"178 720 LINE",
"90 720 LINE",
"90 0 LINE"
);
}
);
width = 576;
}
);
leftKerningGroup = LAT_H_UC;
leftMetricsKey = H;
rightKerningGroup = LAT_P_UC;
unicode = 0050;
},
{
glyphname = Thorn;
lastChange = "2021-01-08 00:23:11 +0000";
layers = (
{
layerId = "AB099EFE-E788-4EFC-8633-CF147CB782A6";
paths = (
{
closed = 1;
nodes = (
"316 160 LINE SMOOTH",
"436 160 OFFCURVE",
"516 244 OFFCURVE",
"516 362 CURVE SMOOTH",
"516 480 OFFCURVE",
"436 556 OFFCURVE",
"316 556 CURVE SMOOTH",
"122 556 LINE",
"122 526 LINE",
"320 526 LINE SMOOTH",
"418 526 OFFCURVE",
"484 464 OFFCURVE",
"484 362 CURVE SMOOTH",
"484 260 OFFCURVE",
"418 190 OFFCURVE",
"320 190 CURVE SMOOTH",
"122 190 LINE",
"122 160 LINE"
);
},
{
closed = 1;
nodes = (
"132 0 LINE",
"132 720 LINE",
"100 720 LINE",
"100 0 LINE"
);
}
);
width = 568;
},
{
layerId = "2D8F7115-C311-411E-929D-56333CF7FFB2";
paths = (
{
closed = 1;
nodes = (
"328 112 LINE SMOOTH",
"486 112 OFFCURVE",
"588 218 OFFCURVE",
"588 366 CURVE SMOOTH",
"588 520 OFFCURVE",
"482 610 OFFCURVE",
"324 610 CURVE SMOOTH",
"204 610 LINE",
"204 454 LINE",
"314 454 LINE SMOOTH",
"376 454 OFFCURVE",
"416 418 OFFCURVE",
"416 362 CURVE SMOOTH",
"416 308 OFFCURVE",
"378 268 OFFCURVE",
"320 268 CURVE SMOOTH",
"204 268 LINE",
"204 112 LINE"
);
},
{
closed = 1;
nodes = (
"240 0 LINE",
"240 720 LINE",
"64 720 LINE",
"64 0 LINE"
);
}
);
width = 616;
},
{
associatedMasterId = "AB099EFE-E788-4EFC-8633-CF147CB782A6";
layerId = "43AD5461-7898-4B26-AADB-1221583B31D2";
name = "{88}";
paths = (
{
closed = 1;
nodes = (
"326 142 LINE SMOOTH",
"462 142 OFFCURVE",
"552 234 OFFCURVE",
"552 364 CURVE SMOOTH",
"552 496 OFFCURVE",
"460 576 OFFCURVE",
"324 576 CURVE SMOOTH",
"154 576 LINE",
"154 496 LINE",
"324 496 LINE SMOOTH",
"412 496 OFFCURVE",
"466 448 OFFCURVE",
"466 362 CURVE SMOOTH",
"466 278 OFFCURVE",
"412 222 OFFCURVE",
"326 222 CURVE SMOOTH",
"154 222 LINE",
"154 142 LINE"
);
},
{
closed = 1;
nodes = (
"176 0 LINE",
"176 720 LINE",
"90 720 LINE",
"90 0 LINE"
);
}
);
width = 600;
}
);
leftKerningGroup = LAT_H_UC;
leftMetricsKey = H;
rightKerningGroup = LAT_P_SC;
unicode = 00DE;
},
{
glyphname = Q;
lastChange = "2021-01-08 00:23:11 +0000";
layers = (
{
anchors = (
{
name = bottom;
position = "{402, 0}";
},
{
name = top;
position = "{398, 720}";
}
);
components = (
{
name = O;
}
);
layerId = "AB099EFE-E788-4EFC-8633-CF147CB782A6";
paths = (
{
closed = 1;
nodes = (
"676 0 LINE",
"616 84 LINE",
"610 92 LINE",
"484 268 LINE",
"448 268 LINE",
"586 74 LINE",
"592 66 LINE",
"640 0 LINE"
);
}
);
width = 812;
},
{
anchors = (
{
name = bottom;
position = "{394, 0}";
},
{
name = top;
position = "{394, 720}";
}
);
components = (
{
name = O;
}
);
layerId = "2D8F7115-C311-411E-929D-56333CF7FFB2";
paths = (
{
closed = 1;
nodes = (
"806 0 LINE",
"684 146 LINE",
"586 220 LINE",
"508 308 LINE",
"314 308 LINE",
"462 156 LINE",
"546 98 LINE",
"626 0 LINE"
);
}
);
width = 834;
},
{
anchors = (
{
name = bottom;
position = "{402, 0}";
},
{
name = top;
position = "{402, 720}";
}
);
associatedMasterId = "AB099EFE-E788-4EFC-8633-CF147CB782A6";
components = (
{
alignment = -1;
name = O;
}
);
layerId = "48847FE0-D015-492A-8C08-025152E57E1B";
name = "{88}";
paths = (
{
closed = 1;
nodes = (
"730 0 LINE",
"648 110 LINE",
"616 144 LINE",
"508 292 LINE",
"414 292 LINE",
"552 106 LINE",
"580 78 LINE",
"636 0 LINE"
);
}
);
width = 812;
}
);
leftKerningGroup = LAT_O_UC;
leftMetricsKey = O;
rightKerningGroup = LAT_Q_UC;
rightMetricsKey = "=O+8";
unicode = 0051;
},
{
glyphname = R;
lastChange = "2021-01-08 00:23:11 +0000";
layers = (
{
anchors = (
{
name = bottom;
position = "{314, 0}";
},
{
name = top;
position = "{280, 720}";
}
);
guideLines = (
{
angle = 120;
position = "{544, 0}";
},
{
angle = 67.5;
position = "{132, 2}";
}
);
layerId = "AB099EFE-E788-4EFC-8633-CF147CB782A6";
paths = (
{
closed = 1;
nodes = (
"116 690 LINE",
"274 690 LINE SMOOTH",
"382 690 OFFCURVE",
"456 628 OFFCURVE",
"456 526 CURVE SMOOTH",
"456 424 OFFCURVE",
"384 354 OFFCURVE",
"278 354 CURVE SMOOTH",
"116 354 LINE",
"116 324 LINE",
"284 324 LINE SMOOTH",
"408 324 OFFCURVE",
"488 416 OFFCURVE",
"488 526 CURVE SMOOTH",
"488 644 OFFCURVE",
"398 720 OFFCURVE",
"278 720 CURVE SMOOTH",
"116 720 LINE"
);
},
{
closed = 1;
nodes = (
"132 720 LINE",
"100 720 LINE",
"100 0 LINE",
"132 0 LINE"
);
},
{
closed = 1;
nodes = (
"278 328 LINE",
"500 0 LINE",
"536 0 LINE",
"302 350 LINE"
);
}
);
width = 588;
},
{
anchors = (
{
name = bottom;
position = "{342, 0}";
},
{
name = top;
position = "{312, 720}";
}
);
guideLines = (
{
angle = 120;
position = "{650, 0}";
}
);
layerId = "2D8F7115-C311-411E-929D-56333CF7FFB2";
paths = (
{
closed = 1;
nodes = (
"192 560 LINE",
"308 560 LINE SMOOTH",
"372 560 OFFCURVE",
"416 524 OFFCURVE",
"416 470 CURVE SMOOTH",
"416 418 OFFCURVE",
"374 382 OFFCURVE",
"314 382 CURVE SMOOTH",
"192 382 LINE",
"192 236 LINE",
"288 236 LINE SMOOTH",
"478 236 OFFCURVE",
"592 348 OFFCURVE",
"592 494 CURVE SMOOTH",
"592 640 OFFCURVE",
"480 720 OFFCURVE",
"336 720 CURVE SMOOTH",
"192 720 LINE"
);
},
{
closed = 1;
nodes = (
"244 720 LINE",
"64 720 LINE",
"64 0 LINE",
"244 0 LINE"
);
},
{
closed = 1;
nodes = (
"312 262 LINE",
"456 0 LINE",
"658 0 LINE",
"444 368 LINE"
);
}
);
width = 680;
},
{
anchors = (
{
name = bottom;
position = "{328, 0}";
},
{
name = top;
position = "{300, 720}";
}
);
associatedMasterId = "AB099EFE-E788-4EFC-8633-CF147CB782A6";
guideLines = (
{
angle = 120;
position = "{544, 0}";
},
{
angle = 67.5;
position = "{132, 2}";
}
);
hints = (
{
horizontal = 1;
origin = "{0, 10}";
type = Delta;
settings = {
deltaV = {
"{100, 88, 0, 0, 0, 0}" = {
"12" = 3;
};
};
};
},
{
horizontal = 1;
origin = "{0, 9}";
type = Delta;
settings = {
deltaV = {
"{100, 88, 0, 0, 0, 0}" = {
"12" = 3;
};
};
};
},
{
horizontal = 1;
origin = "{0, 8}";
type = Delta;
settings = {
deltaV = {
"{100, 88, 0, 0, 0, 0}" = {
"12" = 3;
};
};
};
},
{
horizontal = 1;
origin = "{0, 7}";
type = Delta;
settings = {
deltaV = {
"{100, 88, 0, 0, 0, 0}" = {
"12" = 3;
};
};
};
},
{
horizontal = 1;
origin = "{0, 8, 1, 0}";
type = Delta;
settings = {
deltaV = {
"{100, 88, 0, 0, 0, 0}" = {
"12" = 3;
};
};
};
},
{
horizontal = 1;
origin = "{0, 10, 1, 0}";
type = Delta;
settings = {
deltaV = {
"{100, 88, 0, 0, 0, 0}" = {
"12" = 3;
};
};
};
},
{
horizontal = 1;
origin = "{0, 13, 2, 1}";
type = Delta;
settings = {
deltaV = {
"{100, 88, 0, 0, 0, 0}" = {
"12" = 3;
};
};
};
},
{
horizontal = 1;
origin = "{0, 13, 2, 3}";
type = Delta;
settings = {
deltaV = {
"{100, 88, 0, 0, 0, 0}" = {
"12" = 3;
};
};
};
}
);
layerId = "935AF4A0-7721-472C-97D6-A77D2FAF60E5";
name = "{88}";
paths = (
{
closed = 1;
nodes = (
"148 640 LINE",
"290 640 LINE SMOOTH",
"381 640 OFFCURVE",
"444 589 OFFCURVE",
"444 506 CURVE SMOOTH",
"444 422 OFFCURVE",
"383 368 OFFCURVE",
"296 368 CURVE SMOOTH",
"148 368 LINE",
"148 292 LINE",
"290 292 LINE SMOOTH",
"438 292 OFFCURVE",
"530 390 OFFCURVE",
"530 514 CURVE SMOOTH",
"530 642 OFFCURVE",
"432 720 OFFCURVE",
"304 720 CURVE SMOOTH",
"148 720 LINE"
);
},
{
closed = 1;
nodes = (
"178 720 LINE",
"90 720 LINE",
"90 0 LINE",
"178 0 LINE"
);
},
{
closed = 1;
nodes = (
"294 306 LINE",
"486 0 LINE",
"586 0 LINE",
"360 358 LINE"
);
}
);
width = 630;
}
);
leftKerningGroup = LAT_H_UC;
leftMetricsKey = H;
rightKerningGroup = LAT_R_UC;
unicode = 0052;
},
{
glyphname = S;
lastChange = "2021-01-08 00:23:11 +0000";
layers = (
{
anchors = (
{
name = bottom;
position = "{282, 0}";
},
{
name = cedilla;
position = "{272, 0}";
},
{
name = top;
position = "{268, 720}";
}
);
layerId = "AB099EFE-E788-4EFC-8633-CF147CB782A6";
paths = (
{
closed = 1;
nodes = (
"380 -8 OFFCURVE",
"478 64 OFFCURVE",
"478 178 CURVE SMOOTH",
"478 324 OFFCURVE",
"324 366 OFFCURVE",
"262 390 CURVE SMOOTH",
"192 416 OFFCURVE",
"112 462 OFFCURVE",
"112 556 CURVE SMOOTH",
"112 638 OFFCURVE",
"170 698 OFFCURVE",
"262 698 CURVE SMOOTH",
"350 698 OFFCURVE",
"398 644 OFFCURVE",
"420 602 CURVE",
"448 614 LINE",
"424 666 OFFCURVE",
"364 728 OFFCURVE",
"262 728 CURVE SMOOTH",
"158 728 OFFCURVE",
"80 662 OFFCURVE",
"80 556 CURVE SMOOTH",
"80 446 OFFCURVE",
"170 394 OFFCURVE",
"270 356 CURVE SMOOTH",
"338 330 OFFCURVE",
"446 290 OFFCURVE",
"446 178 CURVE SMOOTH",
"446 82 OFFCURVE",
"364 22 OFFCURVE",
"272 22 CURVE SMOOTH",
"194 22 OFFCURVE",
"120 68 OFFCURVE",
"92 142 CURVE",
"60 128 LINE",
"90 62 OFFCURVE",
"158 -8 OFFCURVE",
"270 -8 CURVE SMOOTH"
);
}
);
userData = {
RMXScaler = {
height = 139;
width = 140;
};
};
width = 546;
},
{
anchors = (
{
name = bottom;
position = "{286, 0}";
},
{
name = cedilla;
position = "{288, 0}";
},
{
name = top;
position = "{282, 720}";
}
);
associatedMasterId = "AB099EFE-E788-4EFC-8633-CF147CB782A6";
guideLines = (
{
angle = 22.5;
position = "{486, 600}";
}
);
layerId = "E4C95551-37F9-4825-B9E4-5E46651ECDDB";
name = "{88}";
paths = (
{
closed = 1;
nodes = (
"406 -8 OFFCURVE",
"506 76 OFFCURVE",
"506 196 CURVE SMOOTH",
"506 342 OFFCURVE",
"360 386 OFFCURVE",
"300 408 CURVE SMOOTH",
"244 428 OFFCURVE",
"162 462 OFFCURVE",
"162 544 CURVE SMOOTH",
"162 612 OFFCURVE",
"216 648 OFFCURVE",
"276 648 CURVE SMOOTH",
"344 648 OFFCURVE",
"388 602 OFFCURVE",
"406 568 CURVE",
"484 600 LINE",
"454 666 OFFCURVE",
"384 728 OFFCURVE",
"276 728 CURVE SMOOTH",
"158 728 OFFCURVE",
"76 656 OFFCURVE",
"76 546 CURVE SMOOTH",
"76 432 OFFCURVE",
"160 374 OFFCURVE",
"260 338 CURVE SMOOTH",
"304 322 OFFCURVE",
"420 288 OFFCURVE",
"420 194 CURVE SMOOTH",
"420 122 OFFCURVE",
"358 72 OFFCURVE",
"284 72 CURVE SMOOTH",
"212 72 OFFCURVE",
"156 128 OFFCURVE",
"136 190 CURVE",
"54 156 LINE",
"82 72 OFFCURVE",
"174 -8 OFFCURVE",
"286 -8 CURVE SMOOTH"
);
}
);
userData = {
RMXScaler = {
height = 139;
width = 140;
};
};
width = 564;
},
{
anchors = (
{
name = bottom;
position = "{314, 0}";
},
{
name = cedilla;
position = "{326, 0}";
},
{
name = top;
position = "{298, 720}";
}
);
guideLines = (
{
angle = 22.5;
position = "{296, 288}";
},
{
angle = 90;
position = "{64, -108}";
},
{
angle = 90;
position = "{516, -108}";
}
);
layerId = "2D8F7115-C311-411E-929D-56333CF7FFB2";
paths = (
{
closed = 1;
nodes = (
"454 -8 OFFCURVE",
"560 96 OFFCURVE",
"560 222 CURVE SMOOTH",
"560 358 OFFCURVE",
"434 402 OFFCURVE",
"380 420 CURVE SMOOTH",
"332 436 OFFCURVE",
"234 456 OFFCURVE",
"234 514 CURVE SMOOTH",
"234 548 OFFCURVE",
"268 568 OFFCURVE",
"298 568 CURVE SMOOTH",
"338 568 OFFCURVE",
"368 534 OFFCURVE",
"378 506 CURVE",
"544 574 LINE",
"508 666 OFFCURVE",
"416 728 OFFCURVE",
"296 728 CURVE SMOOTH",
"160 728 OFFCURVE",
"54 650 OFFCURVE",
"54 518 CURVE SMOOTH",
"54 396 OFFCURVE",
"144 338 OFFCURVE",
"242 306 CURVE SMOOTH",
"300 286 OFFCURVE",
"380 272 OFFCURVE",
"380 216 CURVE SMOOTH",
"380 180 OFFCURVE",
"344 156 OFFCURVE",
"308 156 CURVE SMOOTH",
"254 156 OFFCURVE",
"216 202 OFFCURVE",
"200 246 CURVE",
"28 174 LINE",
"60 72 OFFCURVE",
"180 -8 OFFCURVE",
"306 -8 CURVE SMOOTH"
);
}
);
userData = {
RMXScaler = {
height = 137;
weight = 160;
width = 140;
};
};
width = 596;
},
{
anchors = (
{
name = bottom;
position = "{302, 0}";
},
{
name = cedilla;
position = "{310, 0}";
},
{
name = top;
position = "{294, 720}";
}
);
associatedMasterId = "AB099EFE-E788-4EFC-8633-CF147CB782A6";
layerId = "189FC121-1A31-44F2-BAF9-F118C42A5042";
name = "{140}";
paths = (
{
closed = 1;
nodes = (
"438 -8 OFFCURVE",
"540 86 OFFCURVE",
"540 208 CURVE SMOOTH",
"540 348 OFFCURVE",
"408 398 OFFCURVE",
"348 418 CURVE SMOOTH",
"300 434 OFFCURVE",
"208 458 OFFCURVE",
"208 528 CURVE SMOOTH",
"208 578 OFFCURVE",
"252 602 OFFCURVE",
"294 602 CURVE SMOOTH",
"348 602 OFFCURVE",
"384 554 OFFCURVE",
"394 532 CURVE",
"522 584 LINE",
"488 664 OFFCURVE",
"408 728 OFFCURVE",
"292 728 CURVE SMOOTH",
"164 728 OFFCURVE",
"70 652 OFFCURVE",
"70 528 CURVE SMOOTH",
"70 410 OFFCURVE",
"156 354 OFFCURVE",
"254 320 CURVE SMOOTH",
"314 300 OFFCURVE",
"402 276 OFFCURVE",
"402 206 CURVE SMOOTH",
"402 156 OFFCURVE",
"354 120 OFFCURVE",
"302 120 CURVE SMOOTH",
"238 120 OFFCURVE",
"194 170 OFFCURVE",
"176 220 CURVE",
"44 164 LINE",
"74 72 OFFCURVE",
"180 -8 OFFCURVE",
"304 -8 CURVE SMOOTH"
);
}
);
userData = {
RMXScaler = {
height = 139;
width = 140;
};
};
width = 590;
},
{
anchors = (
{
name = bottom;
position = "{312, 0}";
},
{
name = cedilla;
position = "{322, 0}";
},
{
name = top;
position = "{300, 720}";
}
);
associatedMasterId = "AB099EFE-E788-4EFC-8633-CF147CB782A6";
guideLines = (
{
angle = 22.5;
position = "{538, 580}";
}
);
layerId = "969825C1-611F-47A8-BA5F-C0E6DA0B2EE3";
name = "{160}";
paths = (
{
closed = 1;
nodes = (
"454 -8 OFFCURVE",
"554 94 OFFCURVE",
"554 214 CURVE SMOOTH",
"554 352 OFFCURVE",
"424 402 OFFCURVE",
"368 420 CURVE SMOOTH",
"318 436 OFFCURVE",
"226 456 OFFCURVE",
"226 522 CURVE SMOOTH",
"226 564 OFFCURVE",
"264 586 OFFCURVE",
"300 586 CURVE SMOOTH",
"348 586 OFFCURVE",
"380 542 OFFCURVE",
"388 518 CURVE",
"538 580 LINE",
"502 664 OFFCURVE",
"418 728 OFFCURVE",
"298 728 CURVE SMOOTH",
"166 728 OFFCURVE",
"66 652 OFFCURVE",
"66 524 CURVE SMOOTH",
"66 413 OFFCURVE",
"154 344 OFFCURVE",
"252 312 CURVE SMOOTH",
"296 298 OFFCURVE",
"394 274 OFFCURVE",
"394 212 CURVE SMOOTH",
"394 172 OFFCURVE",
"356 138 OFFCURVE",
"308 138 CURVE SMOOTH",
"252 138 OFFCURVE",
"210 184 OFFCURVE",
"192 234 CURVE",
"40 170 LINE",
"70 76 OFFCURVE",
"180 -8 OFFCURVE",
"310 -8 CURVE SMOOTH"
);
}
);
userData = {
RMXScaler = {
height = 139;
width = 140;
};
};
width = 602;
}
);
leftKerningGroup = LAT_S_UC;
rightKerningGroup = LAT_S_UC;
unicode = 0053;
userData = {
RMXScaler = {
source = s;
};
};
},
{
glyphname = Germandbls;
lastChange = "2021-01-08 00:23:11 +0000";
layers = (
{
layerId = "AB099EFE-E788-4EFC-8633-CF147CB782A6";
paths = (
{
closed = 1;
nodes = (
"476 -8 OFFCURVE",
"578 92 OFFCURVE",
"578 224 CURVE SMOOTH",
"578 348 OFFCURVE",
"486 442 OFFCURVE",
"330 436 CURVE",
"346 420 LINE",
"464 690 LINE",
"464 698 LINE",
"406 720 OFFCURVE",
"342 728 OFFCURVE",
"290 728 CURVE SMOOTH",
"92 728 OFFCURVE",
"92 604 OFFCURVE",
"92 550 CURVE SMOOTH",
"92 0 LINE",
"124 0 LINE",
"124 552 LINE SMOOTH",
"124 600 OFFCURVE",
"124 698 OFFCURVE",
"284 698 CURVE SMOOTH",
"336 698 OFFCURVE",
"402 688 OFFCURVE",
"434 676 CURVE",
"432 692 LINE",
"314 422 LINE",
"314 408 LINE",
"334 408 LINE SMOOTH",
"462 408 OFFCURVE",
"546 340 OFFCURVE",
"546 224 CURVE SMOOTH",
"546 104 OFFCURVE",
"452 22 OFFCURVE",
"344 22 CURVE SMOOTH",
"310 22 OFFCURVE",
"272 30 OFFCURVE",
"246 40 CURVE",
"246 8 LINE",
"268 -2 OFFCURVE",
"306 -8 OFFCURVE",
"340 -8 CURVE SMOOTH"
);
}
);
width = 644;
},
{
layerId = "2D8F7115-C311-411E-929D-56333CF7FFB2";
paths = (
{
closed = 1;
nodes = (
"584 -8 OFFCURVE",
"692 88 OFFCURVE",
"692 234 CURVE SMOOTH",
"692 348 OFFCURVE",
"628 440 OFFCURVE",
"508 456 CURVE",
"514 374 LINE",
"634 654 LINE",
"634 672 LINE",
"580 702 OFFCURVE",
"464 728 OFFCURVE",
"362 728 CURVE SMOOTH",
"182 728 OFFCURVE",
"60 646 OFFCURVE",
"60 498 CURVE SMOOTH",
"60 0 LINE",
"240 0 LINE",
"240 476 LINE SMOOTH",
"240 506 OFFCURVE",
"252 572 OFFCURVE",
"370 572 CURVE SMOOTH",
"414 572 OFFCURVE",
"444 562 OFFCURVE",
"452 550 CURVE",
"442 594 LINE",
"356 360 LINE",
"356 330 LINE",
"408 330 LINE SMOOTH",
"484 330 OFFCURVE",
"518 286 OFFCURVE",
"518 236 CURVE SMOOTH",
"518 180 OFFCURVE",
"476 152 OFFCURVE",
"398 152 CURVE SMOOTH",
"394 152 OFFCURVE",
"398 152 OFFCURVE",
"346 158 CURVE",
"346 -6 LINE",
"368 -6 OFFCURVE",
"384 -8 OFFCURVE",
"410 -8 CURVE SMOOTH"
);
}
);
width = 716;
},
{
associatedMasterId = "AB099EFE-E788-4EFC-8633-CF147CB782A6";
layerId = "D309BA26-5EFD-4494-B421-1A54124A95CB";
name = "{88}";
paths = (
{
closed = 1;
nodes = (
"516 -8 OFFCURVE",
"624 86 OFFCURVE",
"624 228 CURVE SMOOTH",
"624 348 OFFCURVE",
"544 440 OFFCURVE",
"400 444 CURVE",
"416 404 LINE",
"534 676 LINE",
"534 688 LINE",
"474 714 OFFCURVE",
"390 728 OFFCURVE",
"320 728 CURVE SMOOTH",
"168 728 OFFCURVE",
"84 660 OFFCURVE",
"84 530 CURVE SMOOTH",
"84 0 LINE",
"172 0 LINE",
"172 524 LINE SMOOTH",
"172 604 OFFCURVE",
"222 648 OFFCURVE",
"324 648 CURVE SMOOTH",
"374 648 OFFCURVE",
"426 636 OFFCURVE",
"444 626 CURVE",
"440 656 LINE",
"334 400 LINE",
"334 378 LINE",
"366 378 LINE SMOOTH",
"474 378 OFFCURVE",
"538 320 OFFCURVE",
"538 230 CURVE SMOOTH",
"538 138 OFFCURVE",
"470 72 OFFCURVE",
"370 72 CURVE SMOOTH",
"352 72 OFFCURVE",
"330 74 OFFCURVE",
"288 86 CURVE",
"288 4 LINE",
"308 -4 OFFCURVE",
"342 -8 OFFCURVE",
"372 -8 CURVE SMOOTH"
);
}
);
width = 678;
}
);
leftKerningGroup = LAT_GERMANDBLS_UC;
rightKerningGroup = LAT_GERMANDBLS_UC;
rightMetricsKey = B;
unicode = 1E9E;
},
{
glyphname = Schwa;
lastChange = "2021-01-08 00:23:11 +0000";
layers = (
{
anchors = (
{
name = bottom;
position = "{374, -24}";
},
{
name = top;
position = "{376, 750}";
}
);
layerId = "AB099EFE-E788-4EFC-8633-CF147CB782A6";
paths = (
{
closed = 1;
nodes = (
"554 -8 OFFCURVE",
"678 132 OFFCURVE",
"678 362 CURVE SMOOTH",
"678 594 OFFCURVE",
"552 728 OFFCURVE",
"370 728 CURVE SMOOTH",
"260 728 OFFCURVE",
"154 678 OFFCURVE",
"98 588 CURVE",
"128 574 LINE",
"184 660 OFFCURVE",
"282 698 OFFCURVE",
"374 698 CURVE SMOOTH",
"540 698 OFFCURVE",
"646 576 OFFCURVE",
"646 366 CURVE SMOOTH",
"646 144 OFFCURVE",
"526 22 OFFCURVE",
"372 22 CURVE SMOOTH",
"218 22 OFFCURVE",
"110 144 OFFCURVE",
"106 354 CURVE",
"658 354 LINE",
"658 384 LINE",
"74 384 LINE",
"74 362 LINE SMOOTH",
"74 150 OFFCURVE",
"184 -8 OFFCURVE",
"374 -8 CURVE SMOOTH"
);
}
);
width = 718;
},
{
anchors = (
{
name = bottom;
position = "{398, -24}";
},
{
name = top;
position = "{386, 740}";
}
);
layerId = "2D8F7115-C311-411E-929D-56333CF7FFB2";
paths = (
{
closed = 1;
nodes = (
"590 -8 OFFCURVE",
"734 142 OFFCURVE",
"734 354 CURVE SMOOTH",
"734 578 OFFCURVE",
"574 728 OFFCURVE",
"368 728 CURVE SMOOTH",
"236 728 OFFCURVE",
"120 664 OFFCURVE",
"60 560 CURVE",
"216 492 LINE",
"246 538 OFFCURVE",
"304 572 OFFCURVE",
"370 572 CURVE SMOOTH",
"476 572 OFFCURVE",
"556 488 OFFCURVE",
"556 356 CURVE SMOOTH",
"556 238 OFFCURVE",
"492 144 OFFCURVE",
"376 144 CURVE SMOOTH",
"284 144 OFFCURVE",
"202 202 OFFCURVE",
"202 272 CURVE",
"606 272 LINE",
"606 410 LINE",
"34 412 LINE",
"34 330 LINE SMOOTH",
"34 118 OFFCURVE",
"180 -8 OFFCURVE",
"376 -8 CURVE SMOOTH"
);
}
);
width = 750;
},
{
anchors = (
{
name = bottom;
position = "{386, -24}";
},
{
name = top;
position = "{384, 748}";
}
);
associatedMasterId = "AB099EFE-E788-4EFC-8633-CF147CB782A6";
layerId = "EE465929-7769-4598-896A-D8A2A252E8CC";
name = "{88}";
paths = (
{
closed = 1;
nodes = (
"552 -6 OFFCURVE",
"702 138 OFFCURVE",
"702 360 CURVE SMOOTH",
"702 578 OFFCURVE",
"558 730 OFFCURVE",
"362 730 CURVE SMOOTH",
"240 730 OFFCURVE",
"132 670 OFFCURVE",
"78 580 CURVE",
"158 544 LINE",
"200 614 OFFCURVE",
"286 650 OFFCURVE",
"366 650 CURVE SMOOTH",
"518 650 OFFCURVE",
"612 520 OFFCURVE",
"614 364 CURVE SMOOTH",
"616 188 OFFCURVE",
"506 74 OFFCURVE",
"366 70 CURVE SMOOTH",
"232 66 OFFCURVE",
"144 168 OFFCURVE",
"144 314 CURVE",
"630 314 LINE",
"630 390 LINE",
"54 390 LINE",
"54 330 LINE SMOOTH",
"54 130 OFFCURVE",
"184 -14 OFFCURVE",
"370 -10 CURVE SMOOTH"
);
}
);
width = 736;
}
);
leftKerningGroup = LAT_SCHWA_UC;
rightKerningGroup = LAT_O_UC;
unicode = 018F;
},
{
glyphname = T;
lastChange = "2021-01-08 00:23:11 +0000";
layers = (
{
anchors = (
{
name = bottom;
position = "{258, 0}";
},
{
name = cedilla;
position = "{252, 0}";
},
{
name = center;
position = "{258, 360}";
},
{
name = top;
position = "{258, 720}";
}
);
layerId = "AB099EFE-E788-4EFC-8633-CF147CB782A6";
paths = (
{
closed = 1;
nodes = (
"274 0 LINE",
"274 698 LINE",
"242 698 LINE",
"242 0 LINE"
);
},
{
closed = 1;
nodes = (
"478 690 LINE",
"478 720 LINE",
"36 720 LINE",
"36 690 LINE"
);
}
);
width = 514;
},
{
anchors = (
{
name = bottom;
position = "{280, 0}";
},
{
name = cedilla;
position = "{280, 0}";
},
{
name = center;
position = "{280, 328}";
},
{
name = top;
position = "{280, 720}";
}
);
layerId = "2D8F7115-C311-411E-929D-56333CF7FFB2";
paths = (
{
closed = 1;
nodes = (
"370 0 LINE",
"370 584 LINE",
"188 584 LINE",
"188 0 LINE"
);
},
{
closed = 1;
nodes = (
"538 560 LINE",
"538 720 LINE",
"20 720 LINE",
"20 560 LINE"
);
}
);
width = 558;
},
{
anchors = (
{
name = bottom;
position = "{270, 0}";
},
{
name = cedilla;
position = "{266, 0}";
},
{
name = center;
position = "{270, 348}";
},
{
name = top;
position = "{270, 720}";
}
);
associatedMasterId = "AB099EFE-E788-4EFC-8633-CF147CB782A6";
layerId = "296BF549-AD09-4235-ADB8-170685C8F35A";
name = "{88}";
paths = (
{
closed = 1;
nodes = (
"314 0 LINE",
"314 656 LINE",
"226 656 LINE",
"226 0 LINE"
);
},
{
closed = 1;
nodes = (
"506 642 LINE",
"506 720 LINE",
"34 720 LINE",
"34 642 LINE"
);
}
);
width = 540;
}
);
leftKerningGroup = LAT_T_UC;
rightKerningGroup = LAT_T_UC;
unicode = 0054;
},
{
glyphname = U;
lastChange = "2021-01-08 00:23:11 +0000";
layers = (
{
anchors = (
{
name = bottom;
position = "{336, 0}";
},
{
name = horn;
position = "{554, 720}";
},
{
name = ogonek;
position = "{400, 0}";
},
{
name = top;
position = "{336, 720}";
}
);
layerId = "AB099EFE-E788-4EFC-8633-CF147CB782A6";
paths = (
{
closed = 1;
nodes = (
"100 86 OFFCURVE",
"194 -8 OFFCURVE",
"336 -8 CURVE SMOOTH",
"480 -8 OFFCURVE",
"572 86 OFFCURVE",
"572 232 CURVE SMOOTH",
"572 720 LINE",
"540 720 LINE",
"540 240 LINE SMOOTH",
"540 106 OFFCURVE",
"460 22 OFFCURVE",
"336 22 CURVE SMOOTH",
"214 22 OFFCURVE",
"132 106 OFFCURVE",
"132 240 CURVE SMOOTH",
"132 720 LINE",
"100 720 LINE",
"100 232 LINE SMOOTH"
);
}
);
width = 672;
},
{
anchors = (
{
name = bottom;
position = "{356, 0}";
},
{
name = horn;
position = "{604, 720}";
},
{
name = ogonek;
position = "{424, 0}";
},
{
name = top;
position = "{356, 720}";
}
);
layerId = "2D8F7115-C311-411E-929D-56333CF7FFB2";
paths = (
{
closed = 1;
nodes = (
"64 108 OFFCURVE",
"178 -8 OFFCURVE",
"356 -8 CURVE SMOOTH",
"534 -8 OFFCURVE",
"648 108 OFFCURVE",
"648 286 CURVE SMOOTH",
"648 720 LINE",
"468 720 LINE",
"468 270 LINE SMOOTH",
"468 198 OFFCURVE",
"424 152 OFFCURVE",
"356 152 CURVE SMOOTH",
"290 152 OFFCURVE",
"244 196 OFFCURVE",
"244 270 CURVE SMOOTH",
"244 720 LINE",
"64 720 LINE",
"64 286 LINE SMOOTH"
);
}
);
width = 712;
},
{
anchors = (
{
name = bottom;
position = "{348, 0}";
},
{
name = horn;
position = "{578, 720}";
},
{
name = ogonek;
position = "{414, 0}";
},
{
name = top;
position = "{348, 720}";
}
);
associatedMasterId = "AB099EFE-E788-4EFC-8633-CF147CB782A6";
layerId = "0776097E-BE96-4615-B71A-92AF09A2F364";
name = "{88}";
paths = (
{
closed = 1;
nodes = (
"90 94 OFFCURVE",
"192 -8 OFFCURVE",
"348 -8 CURVE SMOOTH",
"506 -8 OFFCURVE",
"606 94 OFFCURVE",
"606 252 CURVE SMOOTH",
"606 720 LINE",
"518 720 LINE",
"518 252 LINE SMOOTH",
"518 144 OFFCURVE",
"452 72 OFFCURVE",
"348 72 CURVE SMOOTH",
"246 72 OFFCURVE",
"178 144 OFFCURVE",
"178 252 CURVE SMOOTH",
"178 720 LINE",
"90 720 LINE",
"90 252 LINE SMOOTH"
);
}
);
width = 696;
}
);
leftKerningGroup = LAT_U_UC;
leftMetricsKey = H;
rightKerningGroup = LAT_U_UC;
rightMetricsKey = H;
unicode = 0055;
},
{
glyphname = V;
lastChange = "2021-01-08 00:23:11 +0000";
layers = (
{
anchors = (
{
name = bottom;
position = "{344, 0}";
},
{
name = top;
position = "{340, 720}";
}
);
layerId = "AB099EFE-E788-4EFC-8633-CF147CB782A6";
paths = (
{
closed = 1;
nodes = (
"356 0 LINE",
"652 720 LINE",
"616 720 LINE",
"444 294 LINE",
"344 40 LINE",
"340 40 LINE",
"240 294 LINE",
"68 720 LINE",
"32 720 LINE",
"328 0 LINE"
);
}
);
width = 684;
},
{
anchors = (
{
name = bottom;
position = "{368, 0}";
},
{
name = top;
position = "{366, 720}";
}
);
layerId = "2D8F7115-C311-411E-929D-56333CF7FFB2";
paths = (
{
closed = 1;
nodes = (
"444 0 LINE",
"736 720 LINE",
"538 720 LINE",
"434 438 LINE",
"368 242 LINE",
"364 242 LINE",
"296 438 LINE",
"192 720 LINE",
"-4 720 LINE",
"292 0 LINE"
);
}
);
width = 732;
},
{
anchors = (
{
name = bottom;
position = "{354, 0}";
},
{
name = top;
position = "{350, 720}";
}
);
associatedMasterId = "AB099EFE-E788-4EFC-8633-CF147CB782A6";
layerId = "0D7ABE1B-ED2C-477C-ADA0-3A50A773B746";
name = "{106}";
paths = (
{
closed = 1;
nodes = (
"394 0 LINE",
"690 720 LINE",
"574 720 LINE",
"440 366 LINE",
"354 152 LINE",
"350 152 LINE",
"262 366 LINE",
"128 720 LINE",
"12 720 LINE",
"310 0 LINE"
);
}
);
width = 702;
},
{
anchors = (
{
name = bottom;
position = "{350, 0}";
},
{
name = top;
position = "{350, 720}";
}
);
associatedMasterId = "AB099EFE-E788-4EFC-8633-CF147CB782A6";
layerId = "5FECEC37-E71F-43A1-9FB9-F11C65084772";
name = "{88}";
paths = (
{
closed = 1;
nodes = (
"386 0 LINE",
"684 720 LINE",
"588 720 LINE",
"442 348 LINE",
"352 126 LINE",
"348 126 LINE",
"258 348 LINE",
"112 720 LINE",
"16 720 LINE",
"314 0 LINE"
);
}
);
width = 700;
}
);
leftKerningGroup = LAT_V_UC;
rightKerningGroup = LAT_V_UC;
unicode = 0056;
},
{
glyphname = W;
lastChange = "2021-01-08 00:23:11 +0000";
layers = (
{
anchors = (
{
name = bottom;
position = "{450, 0}";
},
{
name = top;
position = "{450, 720}";
}
);
layerId = "AB099EFE-E788-4EFC-8633-CF147CB782A6";
paths = (
{
closed = 1;
nodes = (
"228 0 LINE",
"268 0 LINE",
"448 606 LINE",
"452 606 LINE",
"632 0 LINE",
"672 0 LINE",
"868 720 LINE",
"834 720 LINE",
"676 134 LINE",
"654 36 LINE",
"650 36 LINE",
"462 672 LINE",
"438 672 LINE",
"250 36 LINE",
"246 36 LINE",
"224 134 LINE",
"66 720 LINE",
"32 720 LINE"
);
}
);
width = 900;
},
{
anchors = (
{
name = bottom;
position = "{502, 0}";
},
{
name = top;
position = "{502, 720}";
}
);
layerId = "2D8F7115-C311-411E-929D-56333CF7FFB2";
paths = (
{
closed = 1;
nodes = (
"212 0 LINE",
"356 0 LINE",
"500 312 LINE",
"504 312 LINE",
"648 0 LINE",
"794 0 LINE",
"1004 720 LINE",
"818 720 LINE",
"738 430 LINE",
"696 250 LINE",
"692 250 LINE",
"538 638 LINE",
"466 638 LINE",
"312 250 LINE",
"308 250 LINE",
"266 430 LINE",
"188 720 LINE",
"0 720 LINE"
);
}
);
width = 1004;
},
{
anchors = (
{
name = bottom;
position = "{468, 0}";
},
{
name = top;
position = "{468, 720}";
}
);
associatedMasterId = "AB099EFE-E788-4EFC-8633-CF147CB782A6";
layerId = "44F0B799-A1C9-41C2-9401-FFB8B8F0CDF7";
name = "{88}";
paths = (
{
closed = 1;
nodes = (
"230 0 LINE",
"310 0 LINE",
"466 448 LINE",
"470 448 LINE",
"626 0 LINE",
"706 0 LINE",
"916 720 LINE",
"826 720 LINE",
"710 300 LINE",
"664 122 LINE",
"660 122 LINE",
"486 646 LINE",
"450 646 LINE",
"276 122 LINE",
"272 122 LINE",
"226 300 LINE",
"110 720 LINE",
"20 720 LINE"
);
}
);
width = 936;
}
);
leftKerningGroup = LAT_W_UC;
rightKerningGroup = LAT_W_UC;
unicode = 0057;
},
{
color = 9;
glyphname = W.ss03;
lastChange = "2020-06-28 03:30:14 +0000";
layers = (
{
anchors = (
{
name = bottom;
position = "{458, -24}";
},
{
name = top;
position = "{454, 754}";
}
);
layerId = "AB099EFE-E788-4EFC-8633-CF147CB782A6";
paths = (
{
closed = 1;
nodes = (
"228 0 LINE",
"270 0 LINE",
"350 292 LINE",
"450 658 LINE",
"454 658 LINE",
"554 292 LINE",
"636 0 LINE",
"676 0 LINE",
"872 720 LINE",
"838 720 LINE",
"724 290 LINE",
"658 40 LINE",
"654 40 LINE",
"586 290 LINE",
"466 720 LINE",
"438 720 LINE",
"318 290 LINE",
"250 40 LINE",
"246 40 LINE",
"180 290 LINE",
"66 720 LINE",
"32 720 LINE"
);
}
);
width = 904;
},
{
anchors = (
{
name = bottom;
position = "{496, -24}";
},
{
name = top;
position = "{492, 744}";
}
);
layerId = "2D8F7115-C311-411E-929D-56333CF7FFB2";
paths = (
{
closed = 1;
nodes = (
"180 0 LINE",
"354 0 LINE",
"436 236 LINE",
"492 396 LINE",
"496 396 LINE",
"550 236 LINE",
"634 0 LINE",
"806 0 LINE",
"974 720 LINE",
"790 720 LINE",
"736 432 LINE",
"706 240 LINE",
"700 240 LINE",
"652 396 LINE",
"544 720 LINE",
"442 720 LINE",
"336 398 LINE",
"286 240 LINE",
"282 240 LINE",
"250 432 LINE",
"198 720 LINE",
"12 720 LINE"
);
}
);
width = 986;
},
{
anchors = (
{
name = bottom;
position = "{470, -6}";
},
{
name = top;
position = "{468, 728}";
}
);
associatedMasterId = "AB099EFE-E788-4EFC-8633-CF147CB782A6";
layerId = "16142012-0122-4351-A73A-1D96C5AD7AE3";
name = "{88}";
paths = (
{
closed = 1;
nodes = (
"224 0 LINE",
"308 0 LINE",
"378 234 LINE",
"466 534 LINE",
"470 534 LINE",
"558 234 LINE",
"628 0 LINE",
"712 0 LINE",
"912 720 LINE",
"824 720 LINE",
"720 336 LINE",
"672 134 LINE",
"668 134 LINE",
"606 346 LINE",
"494 720 LINE",
"442 720 LINE",
"330 346 LINE",
"268 134 LINE",
"264 134 LINE",
"216 336 LINE",
"114 720 LINE",
"24 720 LINE"
);
}
);
width = 936;
}
);
leftKerningGroup = LAT_W_UC;
rightKerningGroup = LAT_W_UC;
},
{
glyphname = X;
lastChange = "2021-01-08 00:23:11 +0000";
layers = (
{
anchors = (
{
name = bottom;
position = "{310, 0}";
},
{
name = top;
position = "{310, 720}";
}
);
layerId = "AB099EFE-E788-4EFC-8633-CF147CB782A6";
paths = (
{
closed = 1;
nodes = (
"86 0 LINE",
"310 336 LINE",
"316 336 LINE",
"332 356 LINE",
"332 360 LINE",
"576 720 LINE",
"540 720 LINE",
"314 384 LINE",
"308 384 LINE",
"292 362 LINE",
"292 358 LINE",
"48 0 LINE"
);
},
{
closed = 1;
nodes = (
"576 0 LINE",
"332 358 LINE",
"332 362 LINE",
"316 384 LINE",
"310 384 LINE",
"84 720 LINE",
"48 720 LINE",
"292 360 LINE",
"292 356 LINE",
"308 336 LINE",
"314 336 LINE",
"538 0 LINE"
);
}
);
width = 624;
},
{
anchors = (
{
name = bottom;
position = "{368, 0}";
},
{
name = top;
position = "{368, 720}";
}
);
backgroundImage = {
crop = "{{307.016, 0}, {160.838, 213}}";
imagePath = ../../Ideation/Client/image_480.png;
locked = "1";
transform = "{4.775, 0, 0, 4.775, -1472, -146}";
};
layerId = "2D8F7115-C311-411E-929D-56333CF7FFB2";
paths = (
{
closed = 1;
nodes = (
"224 0 LINE",
"366 226 LINE",
"370 226 LINE",
"492 360 LINE",
"492 362 LINE",
"720 720 LINE",
"510 720 LINE",
"368 476 LINE",
"364 476 LINE",
"244 360 LINE",
"244 358 LINE",
"12 0 LINE"
);
},
{
closed = 1;
nodes = (
"724 0 LINE",
"492 358 LINE",
"492 360 LINE",
"370 476 LINE",
"366 476 LINE",
"224 720 LINE",
"16 720 LINE",
"244 362 LINE",
"244 360 LINE",
"364 226 LINE",
"368 226 LINE",
"510 0 LINE"
);
}
);
width = 736;
},
{
anchors = (
{
name = bottom;
position = "{336, 0}";
},
{
name = top;
position = "{336, 720}";
}
);
associatedMasterId = "AB099EFE-E788-4EFC-8633-CF147CB782A6";
layerId = "E1C0632A-B306-4DBA-9476-DDA17C87B229";
name = "{88}";
paths = (
{
closed = 1;
nodes = (
"142 0 LINE",
"334 294 LINE",
"340 294 LINE",
"394 358 LINE",
"394 362 LINE",
"632 720 LINE",
"532 720 LINE",
"338 420 LINE",
"332 420 LINE",
"278 362 LINE",
"278 358 LINE",
"36 0 LINE"
);
},
{
closed = 1;
nodes = (
"636 0 LINE",
"394 358 LINE",
"394 362 LINE",
"340 420 LINE",
"334 420 LINE",
"140 720 LINE",
"40 720 LINE",
"278 362 LINE",
"278 358 LINE",
"332 294 LINE",
"338 294 LINE",
"530 0 LINE"
);
}
);
width = 672;
}
);
leftKerningGroup = LAT_X_UC;
rightKerningGroup = LAT_X_UC;
unicode = 0058;
},
{
glyphname = Y;
lastChange = "2021-01-08 00:23:11 +0000";
layers = (
{
anchors = (
{
name = bottom;
position = "{298, 0}";
},
{
name = top;
position = "{298, 720}";
}
);
layerId = "AB099EFE-E788-4EFC-8633-CF147CB782A6";
paths = (
{
closed = 1;
nodes = (
"282 0 LINE",
"314 0 LINE",
"314 332 LINE",
"564 720 LINE",
"528 720 LINE",
"394 510 LINE",
"300 366 LINE",
"296 366 LINE",
"202 510 LINE",
"68 720 LINE",
"32 720 LINE",
"282 332 LINE"
);
}
);
width = 596;
},
{
anchors = (
{
name = bottom;
position = "{334, 0}";
},
{
name = top;
position = "{334, 720}";
}
);
layerId = "2D8F7115-C311-411E-929D-56333CF7FFB2";
paths = (
{
closed = 1;
nodes = (
"244 0 LINE",
"424 0 LINE",
"424 270 LINE",
"672 720 LINE",
"466 720 LINE",
"402 590 LINE",
"336 442 LINE",
"332 442 LINE",
"266 590 LINE",
"202 720 LINE",
"-4 720 LINE",
"244 270 LINE"
);
}
);
width = 668;
},
{
anchors = (
{
name = bottom;
position = "{316, 0}";
},
{
name = top;
position = "{316, 720}";
}
);
associatedMasterId = "AB099EFE-E788-4EFC-8633-CF147CB782A6";
layerId = "B47E59EA-22E6-4BA7-A99B-6048E7A47800";
name = "{88}";
paths = (
{
closed = 1;
nodes = (
"272 0 LINE",
"360 0 LINE",
"360 310 LINE",
"610 720 LINE",
"510 720 LINE",
"402 540 LINE",
"318 396 LINE",
"314 396 LINE",
"230 540 LINE",
"122 720 LINE",
"22 720 LINE",
"272 310 LINE"
);
}
);
width = 632;
}
);
leftKerningGroup = LAT_Y_UC;
rightKerningGroup = LAT_Y_UC;
unicode = 0059;
},
{
glyphname = Z;
lastChange = "2021-01-08 00:23:11 +0000";
layers = (
{
anchors = (
{
name = bottom;
position = "{318, 0}";
},
{
name = top;
position = "{314, 720}";
}
);
guideLines = (
{
angle = 58;
position = "{194, 112}";
}
);
layerId = "AB099EFE-E788-4EFC-8633-CF147CB782A6";
paths = (
{
closed = 1;
nodes = (
"68 0 LINE",
"538 0 LINE",
"538 30 LINE",
"112 30 LINE",
"112 32 LINE",
"528 702 LINE",
"528 720 LINE",
"94 720 LINE",
"94 690 LINE",
"484 690 LINE",
"484 688 LINE",
"68 18 LINE"
);
}
);
width = 606;
},
{
anchors = (
{
name = bottom;
position = "{306, 0}";
},
{
name = top;
position = "{306, 720}";
}
);
guideLines = (
{
angle = 63;
position = "{178, 112}";
}
);
layerId = "2D8F7115-C311-411E-929D-56333CF7FFB2";
paths = (
{
closed = 1;
nodes = (
"28 0 LINE",
"584 0 LINE",
"584 158 LINE",
"292 158 LINE",
"292 160 LINE",
"576 694 LINE",
"576 720 LINE",
"42 720 LINE",
"42 562 LINE",
"314 562 LINE",
"314 560 LINE",
"28 24 LINE"
);
}
);
width = 612;
},
{
anchors = (
{
name = bottom;
position = "{316, 0}";
},
{
name = top;
position = "{314, 720}";
}
);
associatedMasterId = "AB099EFE-E788-4EFC-8633-CF147CB782A6";
guideLines = (
{
angle = 58;
position = "{194, 112}";
}
);
layerId = "09092BEB-4556-4577-993B-2D6F660C8AA9";
name = "{88}";
paths = (
{
closed = 1;
nodes = (
"56 0 LINE",
"558 0 LINE",
"558 80 LINE",
"190 80 LINE",
"190 82 LINE",
"552 700 LINE",
"552 720 LINE",
"78 720 LINE",
"78 640 LINE",
"418 640 LINE",
"418 638 LINE",
"56 20 LINE"
);
}
);
width = 614;
}
);
leftKerningGroup = LAT_Z_UC;
rightKerningGroup = LAT_Z_UC;
unicode = 005A;
},
{
glyphname = a;
lastChange = "2021-01-08 04:27:01 +0000";
layers = (
{
anchors = (
{
name = bottom;
position = "{248, 0}";
},
{
name = ogonek;
position = "{454, -8}";
},
{
name = top;
position = "{256, 512}";
}
);
layerId = "AB099EFE-E788-4EFC-8633-CF147CB782A6";
paths = (
{
closed = 1;
nodes = (
"296 -8 OFFCURVE",
"358 38 OFFCURVE",
"390 92 CURVE",
"382 88 LINE",
"394 88 LINE",
"390 92 LINE",
"396 46 OFFCURVE",
"410 14 OFFCURVE",
"442 -2 CURVE SMOOTH",
"454 -8 LINE",
"466 20 LINE",
"462 22 LINE SMOOTH",
"438 34 OFFCURVE",
"420 64 OFFCURVE",
"420 114 CURVE SMOOTH",
"420 334 LINE SMOOTH",
"420 448 OFFCURVE",
"382 520 OFFCURVE",
"256 520 CURVE SMOOTH",
"205 520 OFFCURVE",
"129 495 OFFCURVE",
"90 464 CURVE",
"104 438 LINE",
"141 468 OFFCURVE",
"210 492 OFFCURVE",
"254 492 CURVE SMOOTH",
"352 492 OFFCURVE",
"390 444 OFFCURVE",
"390 338 CURVE SMOOTH",
"390 274 LINE",
"390 270 LINE",
"390 176 LINE SMOOTH",
"390 94 OFFCURVE",
"302 20 OFFCURVE",
"216 20 CURVE SMOOTH",
"144 20 OFFCURVE",
"86 72 OFFCURVE",
"86 138 CURVE SMOOTH",
"86 214 OFFCURVE",
"160 268 OFFCURVE",
"304 268 CURVE SMOOTH",
"400 268 LINE",
"400 296 LINE",
"304 296 LINE SMOOTH",
"142 296 OFFCURVE",
"56 232 OFFCURVE",
"56 138 CURVE SMOOTH",
"56 54 OFFCURVE",
"126 -8 OFFCURVE",
"216 -8 CURVE SMOOTH"
);
}
);
width = 518;
},
{
anchors = (
{
name = bottom;
position = "{266, 0}";
},
{
name = ogonek;
position = "{464, -8}";
},
{
name = top;
position = "{270, 518}";
}
);
associatedMasterId = "AB099EFE-E788-4EFC-8633-CF147CB782A6";
layerId = "D40FEF4C-C717-41A2-92D8-F5D98632150B";
name = "{88}";
paths = (
{
closed = 1;
nodes = (
"300 -8 OFFCURVE",
"364 34 OFFCURVE",
"390 86 CURVE",
"368 72 LINE",
"400 72 LINE",
"384 78 LINE",
"384 48 OFFCURVE",
"414 14 OFFCURVE",
"450 -2 CURVE SMOOTH",
"464 -8 LINE",
"496 68 LINE",
"486 72 LINE SMOOTH",
"462 82 OFFCURVE",
"454 106 OFFCURVE",
"454 150 CURVE SMOOTH",
"454 332 LINE SMOOTH",
"454 434 OFFCURVE",
"414 526 OFFCURVE",
"274 526 CURVE SMOOTH",
"208 526 OFFCURVE",
"134 506 OFFCURVE",
"82 476 CURVE",
"114 400 LINE",
"154 428 OFFCURVE",
"218 448 OFFCURVE",
"266 448 CURVE SMOOTH",
"374 448 OFFCURVE",
"374 364 OFFCURVE",
"374 330 CURVE SMOOTH",
"374 272 LINE",
"376 242 LINE",
"376 188 LINE SMOOTH",
"376 108 OFFCURVE",
"292 64 OFFCURVE",
"228 64 CURVE SMOOTH",
"174 64 OFFCURVE",
"130 94 OFFCURVE",
"130 146 CURVE SMOOTH",
"130 222 OFFCURVE",
"214 240 OFFCURVE",
"290 240 CURVE",
"392 240 LINE",
"392 308 LINE",
"284 308 LINE SMOOTH",
"122 308 OFFCURVE",
"48 240 OFFCURVE",
"48 146 CURVE SMOOTH",
"48 50 OFFCURVE",
"122 -8 OFFCURVE",
"218 -8 CURVE SMOOTH"
);
}
);
width = 538;
},
{
anchors = (
{
name = bottom;
position = "{270, 0}";
},
{
name = ogonek;
position = "{484, -8}";
},
{
name = top;
position = "{282, 528}";
}
);
layerId = "2D8F7115-C311-411E-929D-56333CF7FFB2";
paths = (
{
closed = 1;
nodes = (
"286 -8 OFFCURVE",
"354 28 OFFCURVE",
"374 68 CURVE",
"322 58 LINE",
"400 58 LINE",
"358 88 LINE",
"364 54 OFFCURVE",
"400 17 OFFCURVE",
"464 -2 CURVE SMOOTH",
"484 -8 LINE",
"544 136 LINE",
"532 140 LINE SMOOTH",
"512 147 OFFCURVE",
"502 162 OFFCURVE",
"502 194 CURVE SMOOTH",
"502 348 LINE SMOOTH",
"502 428 OFFCURVE",
"476 536 OFFCURVE",
"274 536 CURVE SMOOTH",
"172 536 OFFCURVE",
"94 508 OFFCURVE",
"56 486 CURVE",
"114 358 LINE",
"152 382 OFFCURVE",
"214 398 OFFCURVE",
"258 398 CURVE SMOOTH",
"300 398 OFFCURVE",
"338 382 OFFCURVE",
"338 346 CURVE SMOOTH",
"338 270 LINE",
"344 250 LINE",
"344 182 LINE SMOOTH",
"344 134 OFFCURVE",
"284 120 OFFCURVE",
"252 120 CURVE SMOOTH",
"218 120 OFFCURVE",
"192 138 OFFCURVE",
"192 166 CURVE SMOOTH",
"192 198 OFFCURVE",
"216 214 OFFCURVE",
"266 214 CURVE SMOOTH",
"364 214 LINE",
"364 318 LINE",
"230 318 LINE SMOOTH",
"104 318 OFFCURVE",
"24 248 OFFCURVE",
"24 152 CURVE SMOOTH",
"24 64 OFFCURVE",
"96 -8 OFFCURVE",
"204 -8 CURVE SMOOTH"
);
}
);
width = 568;
},
{
anchors = (
{
name = bottom;
position = "{268, 0}";
},
{
name = ogonek;
position = "{472, -8}";
},
{
name = top;
position = "{274, 524}";
}
);
associatedMasterId = "AB099EFE-E788-4EFC-8633-CF147CB782A6";
guideLines = (
{
angle = 67.5;
position = "{472, -8}";
}
);
layerId = "5A1ABFEF-EF5F-438D-8AA9-81A56DE78ADA";
name = "{140}";
paths = (
{
closed = 1;
nodes = (
"292 -8 OFFCURVE",
"362 32 OFFCURVE",
"384 76 CURVE",
"356 62 LINE",
"396 62 LINE",
"372 78 LINE",
"376 50 OFFCURVE",
"398 20 OFFCURVE",
"456 -2 CURVE SMOOTH",
"472 -8 LINE",
"520 106 LINE",
"508 110 LINE SMOOTH",
"484 118 OFFCURVE",
"478 136 OFFCURVE",
"478 176 CURVE SMOOTH",
"478 338 LINE SMOOTH",
"478 406 OFFCURVE",
"470 532 OFFCURVE",
"276 532 CURVE SMOOTH",
"188 532 OFFCURVE",
"106 506 OFFCURVE",
"66 482 CURVE",
"110 378 LINE",
"144 400 OFFCURVE",
"206 420 OFFCURVE",
"256 420 CURVE SMOOTH",
"324 420 OFFCURVE",
"350 384 OFFCURVE",
"350 336 CURVE SMOOTH",
"350 270 LINE",
"358 242 LINE",
"358 190 LINE SMOOTH",
"358 122 OFFCURVE",
"282 96 OFFCURVE",
"240 96 CURVE SMOOTH",
"194 96 OFFCURVE",
"160 118 OFFCURVE",
"160 158 CURVE SMOOTH",
"160 200 OFFCURVE",
"196 222 OFFCURVE",
"258 222 CURVE SMOOTH",
"376 222 LINE",
"376 312 LINE",
"262 312 LINE SMOOTH",
"110 312 OFFCURVE",
"32 246 OFFCURVE",
"32 152 CURVE SMOOTH",
"32 62 OFFCURVE",
"104 -8 OFFCURVE",
"210 -8 CURVE SMOOTH"
);
}
);
width = 552;
}
);
leftKerningGroup = LAT_ASS02_LC;
rightKerningGroup = LAT_A_LC;
rightMetricsKey = u;
unicode = 0061;
},
{
color = 4;
glyphname = a.ss01;
lastChange = "2021-01-08 01:36:39 +0000";
layers = (
{
anchors = (
{
name = bottom;
position = "{298, 0}";
},
{
name = center;
position = "{310, 256}";
},
{
name = ogonek;
position = "{538, 0}";
},
{
name = top;
position = "{310, 512}";
},
{
name = topright;
position = "{610, 512}";
}
);
components = (
{
alignment = -1;
name = _part.bowl.ss01;
transform = "{-1, 0, 0, 1, 624, 0}";
}
);
layerId = "AB099EFE-E788-4EFC-8633-CF147CB782A6";
paths = (
{
closed = 1;
nodes = (
"538 0 LINE",
"538 512 LINE",
"508 512 LINE",
"508 396 LINE",
"498 396 LINE",
"510 372 LINE",
"510 140 LINE",
"496 116 LINE",
"508 116 LINE",
"508 0 LINE"
);
}
);
width = 616;
},
{
anchors = (
{
name = bottom;
position = "{312, 0}";
},
{
name = center;
position = "{318, 262}";
},
{
name = ogonek;
position = "{558, 0}";
},
{
name = top;
position = "{322, 518}";
},
{
name = topright;
position = "{612, 518}";
}
);
associatedMasterId = "AB099EFE-E788-4EFC-8633-CF147CB782A6";
components = (
{
alignment = -1;
name = _part.bowl.ss01;
transform = "{-1, 0, 0, 1, 636, 0}";
}
);
layerId = "C9EFF8C1-B8EE-4ECD-9EEB-4C6D972FBAC7";
name = "{88}";
paths = (
{
closed = 1;
nodes = (
"558 0 LINE",
"558 518 LINE",
"474 518 LINE",
"474 444 LINE",
"460 444 LINE",
"482 416 LINE",
"482 102 LINE",
"460 74 LINE",
"474 74 LINE",
"474 0 LINE"
);
}
);
width = 630;
},
{
anchors = (
{
name = bottom;
position = "{328, 0}";
},
{
name = center;
position = "{326, 264}";
},
{
name = ogonek;
position = "{584, 0}";
},
{
name = top;
position = "{334, 528}";
},
{
name = topright;
position = "{628, 528}";
}
);
components = (
{
alignment = -1;
name = _part.bowl.ss01;
transform = "{-1, 0, 0, 1, 648, 0}";
}
);
layerId = "2D8F7115-C311-411E-929D-56333CF7FFB2";
paths = (
{
closed = 1;
nodes = (
"584 0 LINE",
"584 528 LINE",
"420 528 LINE",
"420 472 LINE",
"400 472 LINE",
"422 420 LINE",
"422 88 LINE",
"404 60 LINE",
"420 60 LINE",
"420 0 LINE"
);
}
);
width = 634;
},
{
anchors = (
{
name = bottom;
position = "{322, 0}";
},
{
name = center;
position = "{324, 264}";
},
{
name = ogonek;
position = "{570, 0}";
},
{
name = top;
position = "{330, 522}";
},
{
name = topright;
position = "{622, 522}";
}
);
associatedMasterId = "AB099EFE-E788-4EFC-8633-CF147CB782A6";
components = (
{
alignment = -1;
name = _part.bowl.ss01;
transform = "{-1, 0, 0, 1, 644, 0}";
}
);
layerId = "AC8A3195-6078-46FD-AA9D-1AC5F6AC1630";
name = "{120}";
paths = (
{
closed = 1;
nodes = (
"570 0 LINE",
"570 522 LINE",
"460 522 LINE",
"460 454 LINE",
"444 454 LINE",
"462 418 LINE",
"462 98 LINE",
"444 70 LINE",
"460 70 LINE",
"460 0 LINE"
);
}
);
width = 642;
}
);
leftKerningGroup = LAT_O_LC;
leftMetricsKey = o;
rightKerningGroup = LAT_ASS01_LC;
},
{
color = 6;
glyphname = a.ss02;
lastChange = "2021-01-08 01:36:39 +0000";
layers = (
{
anchors = (
{
name = bottom;
position = "{288, 0}";
},
{
name = ogonek;
position = "{538, -8}";
},
{
name = top;
position = "{288, 512}";
},
{
name = topright;
position = "{566, 512}";
}
);
components = (
{
name = _part.bowl;
transform = "{-1, 0, 0, 1, 588, 0}";
}
);
layerId = "AB099EFE-E788-4EFC-8633-CF147CB782A6";
paths = (
{
closed = 1;
nodes = (
"550 20 LINE",
"520 34 OFFCURVE",
"504 52 OFFCURVE",
"504 108 CURVE SMOOTH",
"504 512 LINE",
"474 512 LINE",
"474 408 LINE",
"462 408 LINE",
"476 366 LINE",
"476 144 LINE",
"464 108 LINE",
"478 108 LINE",
"474 114 LINE",
"474 42 OFFCURVE",
"494 17 OFFCURVE",
"538 -8 CURVE"
);
}
);
width = 602;
},
{
anchors = (
{
name = bottom;
position = "{306, 0}";
},
{
name = ogonek;
position = "{550, -8}";
},
{
name = top;
position = "{306, 528}";
},
{
name = topright;
position = "{604, 528}";
}
);
components = (
{
name = _part.bowl;
transform = "{-1, 0, 0, 1, 630, 0}";
}
);
layerId = "2D8F7115-C311-411E-929D-56333CF7FFB2";
paths = (
{
closed = 1;
nodes = (
"610 136 LINE",
"576 148 OFFCURVE",
"568 155 OFFCURVE",
"568 204 CURVE SMOOTH",
"568 528 LINE",
"404 528 LINE",
"404 482 LINE",
"380 482 LINE",
"404 436 LINE",
"404 134 LINE",
"384 70 LINE",
"428 70 LINE",
"418 78 LINE",
"433 36 OFFCURVE",
"484 9 OFFCURVE",
"550 -8 CURVE"
);
}
);
width = 634;
},
{
anchors = (
{
name = bottom;
position = "{302, 0}";
},
{
name = ogonek;
position = "{536, -8}";
},
{
name = top;
position = "{308, 518}";
},
{
name = topright;
position = "{584, 518}";
}
);
associatedMasterId = "AB099EFE-E788-4EFC-8633-CF147CB782A6";
components = (
{
alignment = -1;
name = _part.bowl;
transform = "{-1, 0, 0, 1, 604, 0}";
}
);
layerId = "8800A8A0-C1A8-4E64-8632-EB559640DF97";
name = "{88}";
paths = (
{
closed = 1;
nodes = (
"568 68 LINE",
"534 81 OFFCURVE",
"526 100 OFFCURVE",
"526 146 CURVE SMOOTH",
"526 518 LINE",
"442 518 LINE",
"442 456 LINE",
"414 456 LINE",
"456 402 LINE",
"456 142 LINE",
"430 80 LINE",
"478 80 LINE",
"452 96 LINE",
"456 42 OFFCURVE",
"485 16 OFFCURVE",
"536 -8 CURVE"
);
}
);
width = 610;
}
);
leftKerningGroup = LAT_O_LC;
leftMetricsKey = o;
rightKerningGroup = LAT_A_LC;
rightMetricsKey = u;
},
{
glyphname = ae;
lastChange = "2021-01-08 05:32:17 +0000";
layers = (
{
anchors = (
{
name = bottom;
position = "{410, 0}";
},
{
name = top;
position = "{402, 512}";
}
);
layerId = "AB099EFE-E788-4EFC-8633-CF147CB782A6";
paths = (
{
closed = 1;
nodes = (
"314 -8 OFFCURVE",
"385 59 OFFCURVE",
"406 144 CURVE",
"400 144 LINE",
"431 50 OFFCURVE",
"502 -8 OFFCURVE",
"602 -8 CURVE SMOOTH",
"668 -8 OFFCURVE",
"724 18 OFFCURVE",
"766 58 CURVE",
"754 90 LINE",
"720 52 OFFCURVE",
"660 20 OFFCURVE",
"598 20 CURVE SMOOTH",
"492 20 OFFCURVE",
"413 113 OFFCURVE",
"412 266 CURVE SMOOTH",
"414 407 OFFCURVE",
"488 492 OFFCURVE",
"592 492 CURVE SMOOTH",
"702 492 OFFCURVE",
"768 400 OFFCURVE",
"766 276 CURVE",
"406 276 LINE",
"406 248 LINE",
"796 248 LINE",
"798 262 OFFCURVE",
"798 272 OFFCURVE",
"798 278 CURVE SMOOTH",
"798 424 OFFCURVE",
"714 520 OFFCURVE",
"592 520 CURVE SMOOTH",
"505 520 OFFCURVE",
"435 472 OFFCURVE",
"402 382 CURVE",
"410 382 LINE",
"399 468 OFFCURVE",
"357 520 OFFCURVE",
"252 520 CURVE SMOOTH",
"196 520 OFFCURVE",
"122 495 OFFCURVE",
"84 464 CURVE",
"98 438 LINE",
"134 468 OFFCURVE",
"201 492 OFFCURVE",
"250 492 CURVE SMOOTH",
"346 492 OFFCURVE",
"382 444 OFFCURVE",
"382 338 CURVE SMOOTH",
"382 194 LINE SMOOTH",
"382 78 OFFCURVE",
"291 20 OFFCURVE",
"214 20 CURVE SMOOTH",
"136 20 OFFCURVE",
"86 70 OFFCURVE",
"86 134 CURVE SMOOTH",
"86 208 OFFCURVE",
"152 248 OFFCURVE",
"292 248 CURVE SMOOTH",
"390 248 LINE",
"390 276 LINE",
"296 276 LINE SMOOTH",
"140 276 OFFCURVE",
"56 230 OFFCURVE",
"56 134 CURVE SMOOTH",
"56 48 OFFCURVE",
"122 -8 OFFCURVE",
"214 -8 CURVE SMOOTH"
);
}
);
width = 852;
},
{
anchors = (
{
name = bottom;
position = "{426, 0}";
},
{
name = top;
position = "{424, 518}";
}
);
associatedMasterId = "AB099EFE-E788-4EFC-8633-CF147CB782A6";
layerId = "0E3DB635-11FF-4F4F-AC72-BA6CB2FC7FF1";
name = "{88}";
paths = (
{
closed = 1;
nodes = (
"339 -8 OFFCURVE",
"408 57 OFFCURVE",
"432 120 CURVE",
"410 120 LINE",
"449 41 OFFCURVE",
"512 -8 OFFCURVE",
"612 -8 CURVE SMOOTH",
"678 -8 OFFCURVE",
"742 15 OFFCURVE",
"780 50 CURVE",
"750 122 LINE",
"713 87 OFFCURVE",
"664 67 OFFCURVE",
"610 68 CURVE SMOOTH",
"517 67 OFFCURVE",
"451 136 OFFCURVE",
"452 264 CURVE SMOOTH",
"451 387 OFFCURVE",
"515 450 OFFCURVE",
"598 450 CURVE SMOOTH",
"685 450 OFFCURVE",
"736 384 OFFCURVE",
"734 298 CURVE",
"440 298 LINE",
"440 226 LINE",
"810 226 LINE",
"812 237 OFFCURVE",
"814 254 OFFCURVE",
"814 276 CURVE SMOOTH",
"814 433 OFFCURVE",
"724 526 OFFCURVE",
"602 526 CURVE SMOOTH",
"525 526 OFFCURVE",
"456 490 OFFCURVE",
"416 422 CURVE",
"438 422 LINE",
"419 483 OFFCURVE",
"372 526 OFFCURVE",
"268 526 CURVE SMOOTH",
"196 526 OFFCURVE",
"118 503 OFFCURVE",
"80 476 CURVE",
"110 404 LINE",
"140 429 OFFCURVE",
"209 450 OFFCURVE",
"266 450 CURVE SMOOTH",
"376 450 OFFCURVE",
"378 377 OFFCURVE",
"378 300 CURVE SMOOTH",
"378 190 LINE SMOOTH",
"378 116 OFFCURVE",
"305 67 OFFCURVE",
"234 68 CURVE SMOOTH",
"176 67 OFFCURVE",
"131 96 OFFCURVE",
"132 148 CURVE SMOOTH",
"131 199 OFFCURVE",
"177 226 OFFCURVE",
"282 226 CURVE SMOOTH",
"392 226 LINE",
"392 298 LINE",
"282 298 LINE SMOOTH",
"136 298 OFFCURVE",
"48 244 OFFCURVE",
"48 146 CURVE SMOOTH",
"48 51 OFFCURVE",
"126 -8 OFFCURVE",
"230 -8 CURVE SMOOTH"
);
}
);
width = 858;
},
{
anchors = (
{
name = bottom;
position = "{422, 0}";
},
{
name = top;
position = "{426, 528}";
}
);
background = {
paths = (
{
closed = 0;
nodes = (
"264 116 LINE",
"230 116 OFFCURVE",
"202 134 OFFCURVE",
"202 162 CURVE SMOOTH",
"202 197 OFFCURVE",
"228 214 OFFCURVE",
"278 214 CURVE SMOOTH",
"376 214 LINE",
"376 312 LINE",
"242 312 LINE SMOOTH",
"116 312 OFFCURVE",
"36 243 OFFCURVE",
"36 150 CURVE SMOOTH",
"36 63 OFFCURVE",
"108 -8 OFFCURVE",
"216 -8 CURVE SMOOTH"
);
}
);
};
layerId = "2D8F7115-C311-411E-929D-56333CF7FFB2";
paths = (
{
closed = 1;
nodes = (
"344 -8 OFFCURVE",
"422 66 OFFCURVE",
"430 110 CURVE",
"388 110 LINE",
"428 40 OFFCURVE",
"500 -8 OFFCURVE",
"600 -8 CURVE SMOOTH",
"666 -8 OFFCURVE",
"736 10 OFFCURVE",
"770 34 CURVE",
"718 160 LINE",
"684 136 OFFCURVE",
"648 124 OFFCURVE",
"608 124 CURVE SMOOTH",
"566 124 OFFCURVE",
"470 138 OFFCURVE",
"470 270 CURVE SMOOTH",
"470 378 OFFCURVE",
"536 408 OFFCURVE",
"582 408 CURVE SMOOTH",
"636 408 OFFCURVE",
"674 366 OFFCURVE",
"674 314 CURVE",
"452 314 LINE",
"460 216 LINE",
"814 216 LINE",
"818 236 OFFCURVE",
"820 256 OFFCURVE",
"820 280 CURVE SMOOTH",
"820 470 OFFCURVE",
"694 536 OFFCURVE",
"592 536 CURVE SMOOTH",
"518 536 OFFCURVE",
"422 500 OFFCURVE",
"404 440 CURVE",
"456 440 LINE",
"434 492 OFFCURVE",
"382 536 OFFCURVE",
"262 536 CURVE SMOOTH",
"166 536 OFFCURVE",
"92 508 OFFCURVE",
"56 486 CURVE",
"110 358 LINE",
"140 380 OFFCURVE",
"198 402 OFFCURVE",
"258 402 CURVE SMOOTH",
"356 402 OFFCURVE",
"344 344 OFFCURVE",
"344 304 CURVE SMOOTH",
"344 204 LINE SMOOTH",
"344 150 OFFCURVE",
"308 116 OFFCURVE",
"254 116 CURVE SMOOTH",
"216 116 OFFCURVE",
"190 132 OFFCURVE",
"190 164 CURVE SMOOTH",
"190 214 OFFCURVE",
"248 216 OFFCURVE",
"264 216 CURVE SMOOTH",
"362 216 LINE",
"362 314 LINE",
"228 314 LINE SMOOTH",
"104 314 OFFCURVE",
"24 252 OFFCURVE",
"24 158 CURVE SMOOTH",
"24 72 OFFCURVE",
"94 -8 OFFCURVE",
"218 -8 CURVE SMOOTH"
);
}
);
width = 844;
}
);
leftKerningGroup = LAT_ASS02_LC;
leftMetricsKey = a;
rightKerningGroup = LAT_E_LC;
rightMetricsKey = e;
unicode = 00E6;
},
{
glyphname = b;
lastChange = "2021-01-08 01:36:39 +0000";
layers = (
{
anchors = (
{
name = bottom;
position = "{296, 0}";
},
{
name = center;
position = "{98, 616}";
},
{
name = top;
position = "{320, 564}";
}
);
components = (
{
name = _part.bowl;
}
);
layerId = "AB099EFE-E788-4EFC-8633-CF147CB782A6";
paths = (
{
closed = 1;
nodes = (
"84 0 LINE",
"114 0 LINE",
"114 108 LINE",
"130 108 LINE",
"108 152 LINE",
"108 356 LINE",
"124 408 LINE",
"114 408 LINE",
"114 752 LINE",
"84 752 LINE"
);
}
);
width = 588;
},
{
anchors = (
{
name = bottom;
position = "{312, 0}";
},
{
name = center;
position = "{134, 634}";
},
{
name = top;
position = "{386, 568}";
}
);
components = (
{
name = _part.bowl;
transform = "{1, 0, 0, 1, -12, 0}";
}
);
layerId = "2D8F7115-C311-411E-929D-56333CF7FFB2";
paths = (
{
closed = 1;
nodes = (
"48 0 LINE",
"212 0 LINE",
"212 56 LINE",
"234 56 LINE",
"212 110 LINE",
"212 398 LINE",
"234 488 LINE",
"222 488 LINE",
"222 752 LINE",
"48 752 LINE"
);
}
);
width = 618;
},
{
anchors = (
{
name = bottom;
position = "{304, 0}";
},
{
name = center;
position = "{114, 624}";
},
{
name = top;
position = "{346, 566}";
}
);
associatedMasterId = "AB099EFE-E788-4EFC-8633-CF147CB782A6";
components = (
{
alignment = -1;
name = _part.bowl;
transform = "{1, 0, 0, 1, -4, 0}";
}
);
layerId = "6D342056-F393-4E15-A020-D3735294CAB9";
name = "{88}";
paths = (
{
closed = 1;
nodes = (
"72 0 LINE",
"156 0 LINE",
"156 70 LINE",
"172 70 LINE",
"144 120 LINE",
"144 398 LINE",
"164 452 LINE",
"156 452 LINE",
"156 752 LINE",
"72 752 LINE"
);
}
);
width = 600;
}
);
leftKerningGroup = LAT_H_UC;
leftMetricsKey = h;
rightKerningGroup = LAT_O_LC;
rightMetricsKey = o;
unicode = 0062;
},
{
color = 4;
glyphname = b.ss01;
lastChange = "2021-01-08 04:55:54 +0000";
layers = (
{
anchors = (
{
name = bottom;
position = "{298, 0}";
},
{
name = center;
position = "{100, 616}";
},
{
name = top;
position = "{322, 564}";
}
);
components = (
{
name = _part.bowl.ss01;
transform = "{1, 0, 0, 1, -2, 0}";
}
);
layerId = "AB099EFE-E788-4EFC-8633-CF147CB782A6";
paths = (
{
closed = 1;
nodes = (
"84 0 LINE",
"114 0 LINE",
"114 116 LINE",
"124 116 LINE",
"112 132 LINE",
"112 364 LINE",
"120 394 LINE",
"114 394 LINE",
"114 752 LINE",
"84 752 LINE"
);
}
);
width = 622;
},
{
anchors = (
{
name = bottom;
position = "{306, 0}";
},
{
name = center;
position = "{114, 624}";
},
{
name = top;
position = "{346, 566}";
}
);
associatedMasterId = "AB099EFE-E788-4EFC-8633-CF147CB782A6";
components = (
{
alignment = -1;
name = _part.bowl.ss01;
transform = "{1, 0, 0, 1, -4, 0}";
}
);
layerId = "C834B1E7-C4D5-4508-B8E5-F0618CE2E605";
name = "{88}";
paths = (
{
closed = 1;
nodes = (
"72 0 LINE",
"156 0 LINE",
"156 76 LINE",
"168 76 LINE",
"154 104 LINE",
"154 394 LINE",
"166 444 LINE",
"156 444 LINE",
"156 752 LINE",
"72 752 LINE"
);
}
);
width = 632;
},
{
anchors = (
{
name = bottom;
position = "{312, 0}";
},
{
name = center;
position = "{134, 634}";
},
{
name = top;
position = "{386, 568}";
}
);
components = (
{
name = _part.bowl.ss01;
transform = "{1, 0, 0, 1, -18, 0}";
}
);
layerId = "2D8F7115-C311-411E-929D-56333CF7FFB2";
paths = (
{
closed = 1;
nodes = (
"48 0 LINE",
"212 0 LINE",
"212 60 LINE",
"234 60 LINE",
"208 110 LINE",
"208 398 LINE",
"234 484 LINE",
"222 484 LINE",
"222 752 LINE",
"48 752 LINE"
);
}
);
width = 630;
},
{
anchors = (
{
name = bottom;
position = "{308, 0}";
},
{
name = center;
position = "{120, 626}";
},
{
name = top;
position = "{356, 566}";
}
);
associatedMasterId = "AB099EFE-E788-4EFC-8633-CF147CB782A6";
components = (
{
alignment = -1;
name = _part.bowl.ss01;
transform = "{1, 0, 0, 1, -6, 0}";
}
);
layerId = "5A761FBB-D991-4916-A5B6-6B494825C86B";
name = "{106}";
paths = (
{
closed = 1;
nodes = (
"68 0 LINE",
"170 0 LINE",
"170 62 LINE",
"182 62 LINE",
"166 94 LINE",
"166 404 LINE",
"180 460 LINE",
"170 460 LINE",
"170 752 LINE",
"68 752 LINE"
);
}
);
width = 634;
}
);
leftKerningGroup = LAT_L_LC;
leftMetricsKey = h;
rightKerningGroup = LAT_O_LC;
rightMetricsKey = o;
},
{
glyphname = c;
lastChange = "2021-01-08 05:00:46 +0000";
layers = (
{
anchors = (
{
name = base;
position = "{404, 0}";
},
{
name = bottom;
position = "{288, 0}";
},
{
name = cedilla;
position = "{296, 0}";
},
{
name = top;
position = "{288, 512}";
}
);
layerId = "AB099EFE-E788-4EFC-8633-CF147CB782A6";
paths = (
{
closed = 1;
nodes = (
"358 -6 OFFCURVE",
"416 14 OFFCURVE",
"460 52 CURVE",
"446 82 LINE",
"418 50 OFFCURVE",
"362 24 OFFCURVE",
"300 24 CURVE SMOOTH",
"184 24 OFFCURVE",
"86 124 OFFCURVE",
"86 258 CURVE SMOOTH",
"86 394 OFFCURVE",
"190 492 OFFCURVE",
"302 492 CURVE SMOOTH",
"344 492 OFFCURVE",
"410 474 OFFCURVE",
"444 438 CURVE",
"458 468 LINE",
"416 500 OFFCURVE",
"356 520 OFFCURVE",
"302 520 CURVE SMOOTH",
"174 520 OFFCURVE",
"56 412 OFFCURVE",
"56 258 CURVE SMOOTH",
"56 106 OFFCURVE",
"168 -6 OFFCURVE",
"298 -6 CURVE SMOOTH"
);
}
);
userData = {
RMXScaler = {
height = 71.5;
weight = 20;
width = 77;
};
};
width = 504;
},
{
anchors = (
{
name = base;
position = "{420, 0}";
},
{
name = bottom;
position = "{306, 0}";
},
{
name = cedilla;
position = "{312, 0}";
},
{
name = top;
position = "{312, 528}";
}
);
layerId = "2D8F7115-C311-411E-929D-56333CF7FFB2";
paths = (
{
closed = 1;
nodes = (
"376 -6 OFFCURVE",
"432 12 OFFCURVE",
"470 34 CURVE",
"408 176 LINE",
"386 156 OFFCURVE",
"348 142 OFFCURVE",
"310 142 CURVE SMOOTH",
"236 142 OFFCURVE",
"188 198 OFFCURVE",
"188 266 CURVE SMOOTH",
"188 336 OFFCURVE",
"238 388 OFFCURVE",
"310 388 CURVE SMOOTH",
"348 388 OFFCURVE",
"380 374 OFFCURVE",
"406 350 CURVE",
"470 488 LINE",
"424 518 OFFCURVE",
"366 536 OFFCURVE",
"306 536 CURVE SMOOTH",
"156 536 OFFCURVE",
"24 422 OFFCURVE",
"24 266 CURVE SMOOTH",
"24 112 OFFCURVE",
"154 -6 OFFCURVE",
"314 -6 CURVE SMOOTH"
);
}
);
userData = {
RMXScaler = {
height = 73.5;
weight = -50;
width = 73;
};
};
width = 482;
},
{
anchors = (
{
name = base;
position = "{410, 0}";
},
{
name = bottom;
position = "{294, 0}";
},
{
name = cedilla;
position = "{302, 0}";
},
{
name = top;
position = "{296, 518}";
}
);
associatedMasterId = "AB099EFE-E788-4EFC-8633-CF147CB782A6";
layerId = "730CC673-E1F4-4EDE-A678-4178C1E89CEE";
name = "{88}";
paths = (
{
closed = 1;
nodes = (
"368 -6 OFFCURVE",
"426 16 OFFCURVE",
"464 46 CURVE",
"432 118 LINE",
"404 92 OFFCURVE",
"356 72 OFFCURVE",
"304 72 CURVE SMOOTH",
"202 72 OFFCURVE",
"130 152 OFFCURVE",
"130 260 CURVE SMOOTH",
"130 374 OFFCURVE",
"208 448 OFFCURVE",
"302 448 CURVE SMOOTH",
"346 448 OFFCURVE",
"400 430 OFFCURVE",
"430 404 CURVE",
"462 476 LINE",
"420 506 OFFCURVE",
"360 526 OFFCURVE",
"300 526 CURVE SMOOTH",
"162 526 OFFCURVE",
"44 418 OFFCURVE",
"44 262 CURVE SMOOTH",
"44 110 OFFCURVE",
"156 -6 OFFCURVE",
"302 -6 CURVE SMOOTH"
);
}
);
userData = {
RMXScaler = {
height = 71.5;
weight = 20;
width = 77;
};
};
width = 496;
}
);
leftKerningGroup = LAT_O_LC;
leftMetricsKey = o;
rightKerningGroup = LAT_C_LC;
unicode = 0063;
userData = {
RMXScaler = {
source = C;
};
};
},
{
glyphname = d;
lastChange = "2021-01-08 05:09:53 +0000";
layers = (
{
anchors = (
{
name = bottom;
position = "{300, 0}";
},
{
name = center;
position = "{488, 616}";
},
{
name = leghookretroflex;
position = "{488, 0}";
},
{
name = top;
position = "{486, 752}";
},
{
name = topright;
position = "{502, 752}";
}
);
components = (
{
name = _part.bowl;
transform = "{-1, 0, 0, 1, 588, 0}";
}
);
layerId = "AB099EFE-E788-4EFC-8633-CF147CB782A6";
paths = (
{
closed = 1;
nodes = (
"548 20 LINE",
"511 38 OFFCURVE",
"502 57 OFFCURVE",
"502 114 CURVE SMOOTH",
"502 754 LINE",
"472 754 LINE",
"472 408 LINE",
"460 408 LINE",
"478 370 LINE",
"478 144 LINE",
"462 108 LINE",
"476 108 LINE",
"472 114 LINE",
"474 39 OFFCURVE",
"492 16 OFFCURVE",
"534 -8 CURVE"
);
}
);
width = 594;
},
{
anchors = (
{
name = bottom;
position = "{306, 0}";
},
{
name = center;
position = "{480, 634}";
},
{
name = leghookretroflex;
position = "{482, 0}";
},
{
name = top;
position = "{482, 752}";
},
{
name = topright;
position = "{568, 752}";
}
);
components = (
{
name = _part.bowl;
transform = "{-1, 0, 0, 1, 630, 0}";
}
);
layerId = "2D8F7115-C311-411E-929D-56333CF7FFB2";
paths = (
{
closed = 1;
nodes = (
"610 136 LINE",
"581 145 OFFCURVE",
"568 155 OFFCURVE",
"568 192 CURVE SMOOTH",
"568 752 LINE",
"394 752 LINE",
"394 490 LINE",
"380 490 LINE",
"404 436 LINE",
"404 134 LINE",
"384 70 LINE",
"428 70 LINE",
"418 78 LINE",
"431 42 OFFCURVE",
"474 12 OFFCURVE",
"550 -8 CURVE"
);
}
);
width = 636;
},
{
anchors = (
{
name = bottom;
position = "{296, 0}";
},
{
name = center;
position = "{484, 622}";
},
{
name = leghookretroflex;
position = "{484, 0}";
},
{
name = top;
position = "{484, 752}";
},
{
name = topright;
position = "{586, 752}";
}
);
associatedMasterId = "AB099EFE-E788-4EFC-8633-CF147CB782A6";
components = (
{
alignment = -1;
name = _part.bowl;
transform = "{-1, 0, 0, 1, 604, 0}";
}
);
layerId = "70582F37-530C-4519-B5C3-20C9E2A2BC67";
name = "{88}";
paths = (
{
closed = 1;
nodes = (
"568 68 LINE",
"534 83 OFFCURVE",
"526 99 OFFCURVE",
"526 144 CURVE SMOOTH",
"526 752 LINE",
"442 752 LINE",
"442 454 LINE",
"432 454 LINE",
"456 402 LINE",
"456 142 LINE",
"430 84 LINE",
"478 84 LINE",
"454 96 LINE",
"454 50 OFFCURVE",
"476 19 OFFCURVE",
"536 -8 CURVE"
);
}
);
width = 614;
}
);
leftKerningGroup = LAT_O_LC;
leftMetricsKey = o;
rightKerningGroup = LAT_D_LC;
unicode = 0064;
},
{
glyphname = eth;
lastChange = "2021-01-08 01:20:23 +0000";
layers = (
{
layerId = "AB099EFE-E788-4EFC-8633-CF147CB782A6";
paths = (
{
closed = 1;
nodes = (
"442 -8 OFFCURVE",
"538 104 OFFCURVE",
"538 292 CURVE SMOOTH",
"538 550 OFFCURVE",
"352 708 OFFCURVE",
"172 762 CURVE",
"162 736 LINE",
"286 698 OFFCURVE",
"444 596 OFFCURVE",
"500 400 CURVE",
"506 408 LINE",
"490 408 LINE",
"508 390 LINE",
"470 462 OFFCURVE",
"386 500 OFFCURVE",
"306 500 CURVE SMOOTH",
"164 500 OFFCURVE",
"60 390 OFFCURVE",
"60 244 CURVE SMOOTH",
"60 102 OFFCURVE",
"164 -8 OFFCURVE",
"302 -8 CURVE SMOOTH"
);
},
{
closed = 1;
nodes = (
"182 16 OFFCURVE",
"90 118 OFFCURVE",
"90 248 CURVE SMOOTH",
"90 374 OFFCURVE",
"178 472 OFFCURVE",
"308 472 CURVE SMOOTH",
"406 472 OFFCURVE",
"508 414 OFFCURVE",
"508 268 CURVE SMOOTH",
"508 134 OFFCURVE",
"426 24 OFFCURVE",
"304 20 CURVE SMOOTH"
);
},
{
closed = 1;
nodes = (
"464 738 LINE",
"454 760 LINE",
"156 596 LINE",
"168 572 LINE"
);
}
);
width = 598;
},
{
associatedMasterId = "AB099EFE-E788-4EFC-8633-CF147CB782A6";
layerId = "46A73106-2076-4479-9456-DD205E3E29F4";
name = "{88}";
paths = (
{
closed = 1;
nodes = (
"452 -8 OFFCURVE",
"556 108 OFFCURVE",
"556 304 CURVE SMOOTH",
"556 554 OFFCURVE",
"382 706 OFFCURVE",
"178 788 CURVE",
"146 720 LINE",
"274 672 OFFCURVE",
"418 578 OFFCURVE",
"468 426 CURVE",
"480 440 LINE",
"456 440 LINE",
"472 422 LINE",
"450 466 OFFCURVE",
"380 504 OFFCURVE",
"298 504 CURVE SMOOTH",
"160 504 OFFCURVE",
"52 400 OFFCURVE",
"52 250 CURVE SMOOTH",
"52 98 OFFCURVE",
"164 -8 OFFCURVE",
"306 -8 CURVE SMOOTH"
);
},
{
closed = 1;
nodes = (
"214 68 OFFCURVE",
"136 144 OFFCURVE",
"136 252 CURVE SMOOTH",
"136 356 OFFCURVE",
"208 426 OFFCURVE",
"306 426 CURVE SMOOTH",
"398 426 OFFCURVE",
"474 364 OFFCURVE",
"474 258 CURVE SMOOTH",
"474 150 OFFCURVE",
"400 72 OFFCURVE",
"308 70 CURVE SMOOTH"
);
},
{
closed = 1;
nodes = (
"492 742 LINE",
"462 790 LINE",
"144 604 LINE",
"174 556 LINE"
);
}
);
width = 606;
},
{
layerId = "2D8F7115-C311-411E-929D-56333CF7FFB2";
paths = (
{
closed = 1;
nodes = (
"462 -8 OFFCURVE",
"576 126 OFFCURVE",
"576 318 CURVE SMOOTH",
"576 532 OFFCURVE",
"434 710 OFFCURVE",
"170 830 CURVE",
"104 696 LINE",
"254 642 OFFCURVE",
"364 550 OFFCURVE",
"410 438 CURVE",
"432 462 LINE",
"388 462 LINE",
"418 428 LINE",
"402 484 OFFCURVE",
"326 502 OFFCURVE",
"270 502 CURVE SMOOTH",
"136 502 OFFCURVE",
"20 396 OFFCURVE",
"20 252 CURVE SMOOTH",
"20 102 OFFCURVE",
"142 -8 OFFCURVE",
"294 -8 CURVE SMOOTH"
);
},
{
closed = 1;
nodes = (
"232 144 OFFCURVE",
"186 194 OFFCURVE",
"186 260 CURVE SMOOTH",
"186 324 OFFCURVE",
"232 368 OFFCURVE",
"298 368 CURVE SMOOTH",
"364 368 OFFCURVE",
"410 324 OFFCURVE",
"410 260 CURVE SMOOTH",
"410 194 OFFCURVE",
"364 144 OFFCURVE",
"298 144 CURVE SMOOTH"
);
},
{
closed = 1;
nodes = (
"512 738 LINE",
"452 826 LINE",
"106 592 LINE",
"150 528 LINE"
);
}
);
width = 596;
},
{
associatedMasterId = "AB099EFE-E788-4EFC-8633-CF147CB782A6";
background = {
components = (
{
name = delta;
transform = "{1, 0, 0, 1, -4, 0}";
}
);
};
layerId = "91BDAD2D-5B11-4BE0-BF5F-19682392A8C1";
name = "{106}";
paths = (
{
closed = 1;
nodes = (
"454 -8 OFFCURVE",
"560 108 OFFCURVE",
"560 306 CURVE SMOOTH",
"560 556 OFFCURVE",
"394 704 OFFCURVE",
"178 796 CURVE",
"140 714 LINE",
"272 662 OFFCURVE",
"410 574 OFFCURVE",
"456 434 CURVE",
"470 450 LINE",
"444 450 LINE",
"460 432 LINE",
"440 472 OFFCURVE",
"376 504 OFFCURVE",
"298 504 CURVE SMOOTH",
"158 504 OFFCURVE",
"48 402 OFFCURVE",
"48 254 CURVE SMOOTH",
"48 102 OFFCURVE",
"160 -8 OFFCURVE",
"306 -8 CURVE SMOOTH"
);
},
{
closed = 1;
nodes = (
"218 88 OFFCURVE",
"150 164 OFFCURVE",
"150 258 CURVE SMOOTH",
"150 350 OFFCURVE",
"218 414 OFFCURVE",
"308 414 CURVE SMOOTH",
"396 414 OFFCURVE",
"462 352 OFFCURVE",
"462 258 CURVE SMOOTH",
"462 164 OFFCURVE",
"396 88 OFFCURVE",
"308 88 CURVE SMOOTH"
);
},
{
closed = 1;
nodes = (
"500 742 LINE",
"464 798 LINE",
"140 606 LINE",
"174 550 LINE"
);
}
);
width = 608;
}
);
leftKerningGroup = LAT_ETH_LC;
rightKerningGroup = LAT_ETH_LC;
unicode = 00F0;
},
{
glyphname = e;
lastChange = "2021-01-08 06:57:48 +0000";
layers = (
{
anchors = (
{
name = bottom;
position = "{290, 0}";
},
{
name = cedilla;
position = "{284, 0}";
},
{
name = ogonek;
position = "{436, 38}";
},
{
name = top;
position = "{286, 512}";
}
);
layerId = "AB099EFE-E788-4EFC-8633-CF147CB782A6";
paths = (
{
closed = 1;
nodes = (
"362 -8 OFFCURVE",
"423 22 OFFCURVE",
"462 58 CURVE",
"450 86 LINE",
"406 48 OFFCURVE",
"354 22 OFFCURVE",
"288 20 CURVE SMOOTH",
"166 22 OFFCURVE",
"86 114 OFFCURVE",
"86 254 CURVE SMOOTH",
"86 402 OFFCURVE",
"176 492 OFFCURVE",
"286 492 CURVE SMOOTH",
"398 492 OFFCURVE",
"472 398 OFFCURVE",
"468 274 CURVE",
"80 274 LINE",
"80 246 LINE",
"500 246 LINE",
"500 260 OFFCURVE",
"500 272 OFFCURVE",
"500 284 CURVE SMOOTH",
"500 420 OFFCURVE",
"414 520 OFFCURVE",
"286 520 CURVE SMOOTH",
"156 520 OFFCURVE",
"56 418 OFFCURVE",
"56 254 CURVE SMOOTH",
"56 100 OFFCURVE",
"150 -8 OFFCURVE",
"290 -8 CURVE SMOOTH"
);
}
);
width = 554;
},
{
anchors = (
{
name = bottom;
position = "{292, 0}";
},
{
name = cedilla;
position = "{286, 0}";
},
{
name = ogonek;
position = "{454, 44}";
},
{
name = top;
position = "{282, 516}";
}
);
associatedMasterId = "AB099EFE-E788-4EFC-8633-CF147CB782A6";
layerId = "DEC75A3F-7345-4B73-A3DB-385CA58BC787";
name = "{68}";
paths = (
{
closed = 1;
nodes = (
"362 -8 OFFCURVE",
"424 18 OFFCURVE",
"464 50 CURVE",
"438 110 LINE",
"410 84 OFFCURVE",
"358 52 OFFCURVE",
"292 52 CURVE SMOOTH",
"184 52 OFFCURVE",
"110 134 OFFCURVE",
"110 258 CURVE SMOOTH",
"110 384 OFFCURVE",
"184 464 OFFCURVE",
"282 464 CURVE SMOOTH",
"380 464 OFFCURVE",
"442 386 OFFCURVE",
"442 290 CURVE",
"98 290 LINE",
"98 234 LINE",
"502 234 LINE",
"502 244 OFFCURVE",
"506 268 OFFCURVE",
"506 288 CURVE SMOOTH",
"510 406 OFFCURVE",
"424 524 OFFCURVE",
"280 524 CURVE SMOOTH",
"148 524 OFFCURVE",
"48 422 OFFCURVE",
"48 258 CURVE SMOOTH",
"48 96 OFFCURVE",
"146 -8 OFFCURVE",
"290 -8 CURVE SMOOTH"
);
}
);
width = 554;
},
{
anchors = (
{
name = bottom;
position = "{294, 0}";
},
{
name = cedilla;
position = "{288, 0}";
},
{
name = ogonek;
position = "{466, 46}";
},
{
name = top;
position = "{282, 518}";
}
);
associatedMasterId = "AB099EFE-E788-4EFC-8633-CF147CB782A6";
guideLines = (
{
angle = 112.5;
position = "{466, 46}";
}
);
layerId = "BF4E67D7-E1E9-4927-8F49-9D490C36FB3C";
name = "{88}";
paths = (
{
closed = 1;
nodes = (
"364 -8 OFFCURVE",
"426 16 OFFCURVE",
"466 46 CURVE",
"434 122 LINE",
"406 98 OFFCURVE",
"360 70 OFFCURVE",
"298 70 CURVE SMOOTH",
"192 70 OFFCURVE",
"126 146 OFFCURVE",
"126 260 CURVE SMOOTH",
"126 372 OFFCURVE",
"190 448 OFFCURVE",
"282 448 CURVE SMOOTH",
"372 448 OFFCURVE",
"428 378 OFFCURVE",
"428 294 CURVE",
"108 294 LINE",
"108 226 LINE",
"504 226 LINE",
"506 236 OFFCURVE",
"510 260 OFFCURVE",
"510 288 CURVE SMOOTH",
"510 426 OFFCURVE",
"416 526 OFFCURVE",
"282 526 CURVE SMOOTH",
"146 526 OFFCURVE",
"44 422 OFFCURVE",
"44 260 CURVE SMOOTH",
"44 96 OFFCURVE",
"148 -8 OFFCURVE",
"294 -8 CURVE SMOOTH"
);
}
);
width = 554;
},
{
anchors = (
{
name = bottom;
position = "{296, 0}";
},
{
name = cedilla;
position = "{296, 0}";
},
{
name = ogonek;
position = "{476, 40}";
},
{
name = top;
position = "{284, 524}";
}
);
associatedMasterId = "AB099EFE-E788-4EFC-8633-CF147CB782A6";
guideLines = (
{
angle = 112.5;
position = "{454, 92}";
}
);
layerId = "AA661440-5A2D-4B91-AB53-22C2BE9F23B9";
name = "{140}";
paths = (
{
closed = 1;
nodes = (
"370 -8 OFFCURVE",
"432 10 OFFCURVE",
"476 40 CURVE",
"432 146 LINE",
"398 120 OFFCURVE",
"350 102 OFFCURVE",
"300 102 CURVE SMOOTH",
"206 102 OFFCURVE",
"150 168 OFFCURVE",
"150 264 CURVE SMOOTH",
"150 358 OFFCURVE",
"202 420 OFFCURVE",
"280 420 CURVE SMOOTH",
"352 420 OFFCURVE",
"398 376 OFFCURVE",
"398 310 CURVE",
"132 310 LINE",
"132 218 LINE",
"514 218 LINE",
"520 248 OFFCURVE",
"522 276 OFFCURVE",
"522 294 CURVE SMOOTH",
"522 410 OFFCURVE",
"434 528 OFFCURVE",
"284 530 CURVE SMOOTH",
"142 532 OFFCURVE",
"32 418 OFFCURVE",
"32 260 CURVE SMOOTH",
"32 104 OFFCURVE",
"138 -8 OFFCURVE",
"304 -8 CURVE SMOOTH"
);
}
);
width = 554;
},
{
anchors = (
{
name = bottom;
position = "{304, 0}";
},
{
name = cedilla;
position = "{308, 0}";
},
{
name = ogonek;
position = "{482, 34}";
},
{
name = top;
position = "{290, 528}";
}
);
layerId = "2D8F7115-C311-411E-929D-56333CF7FFB2";
paths = (
{
closed = 1;
nodes = (
"380 -8 OFFCURVE",
"444 10 OFFCURVE",
"482 34 CURVE",
"430 158 LINE",
"412 144 OFFCURVE",
"354 128 OFFCURVE",
"310 128 CURVE SMOOTH",
"232 128 OFFCURVE",
"172 182 OFFCURVE",
"172 268 CURVE SMOOTH",
"172 338 OFFCURVE",
"212 404 OFFCURVE",
"290 404 CURVE SMOOTH",
"340 404 OFFCURVE",
"378 372 OFFCURVE",
"378 312 CURVE",
"160 312 LINE",
"160 208 LINE",
"530 208 LINE",
"534 222 OFFCURVE",
"538 256 OFFCURVE",
"538 286 CURVE SMOOTH",
"538 430 OFFCURVE",
"434 536 OFFCURVE",
"290 536 CURVE SMOOTH",
"146 536 OFFCURVE",
"26 428 OFFCURVE",
"24 262 CURVE SMOOTH",
"24 104 OFFCURVE",
"134 -8 OFFCURVE",
"310 -8 CURVE SMOOTH"
);
}
);
width = 562;
}
);
leftKerningGroup = LAT_O_LC;
leftMetricsKey = o;
rightKerningGroup = LAT_E_LC;
unicode = 0065;
},
{
glyphname = f;
lastChange = "2021-01-08 05:02:00 +0000";
layers = (
{
anchors = (
{
name = bottom;
position = "{152, 0}";
},
{
name = top;
position = "{244, 752}";
}
);
components = (
{
name = "_part.f-stem";
}
);
layerId = "AB099EFE-E788-4EFC-8633-CF147CB782A6";
paths = (
{
closed = 1;
nodes = (
"298 484 LINE",
"298 512 LINE",
"48 512 LINE",
"48 484 LINE"
);
}
);
width = 344;
},
{
anchors = (
{
name = bottom;
position = "{174, 0}";
},
{
name = top;
position = "{264, 752}";
}
);
associatedMasterId = "AB099EFE-E788-4EFC-8633-CF147CB782A6";
components = (
{
name = "_part.f-stem";
}
);
layerId = "725D9EF7-6360-48C2-AB1B-3E40E4C59398";
name = "{88}";
paths = (
{
closed = 1;
nodes = (
"340 442 LINE",
"340 518 LINE",
"38 518 LINE",
"36 442 LINE"
);
}
);
width = 382;
},
{
anchors = (
{
name = bottom;
position = "{200, 0}";
},
{
name = top;
position = "{272, 752}";
}
);
components = (
{
name = "_part.f-stem";
transform = "{1, 0, 0, 1, -12, 0}";
}
);
layerId = "2D8F7115-C311-411E-929D-56333CF7FFB2";
paths = (
{
closed = 1;
nodes = (
"406 380 LINE",
"406 528 LINE",
"8 528 LINE",
"8 380 LINE"
);
}
);
width = 434;
},
{
anchors = (
{
name = bottom;
position = "{186, 0}";
},
{
name = top;
position = "{268, 752}";
}
);
associatedMasterId = "AB099EFE-E788-4EFC-8633-CF147CB782A6";
components = (
{
name = "_part.f-stem";
transform = "{1, 0, 0, 1, -8, 0}";
}
);
layerId = "516F4623-5CD8-441C-8966-F6D84AE729AE";
name = "{140}";
paths = (
{
closed = 1;
nodes = (
"372 416 LINE",
"372 524 LINE",
"20 524 LINE",
"20 416 LINE"
);
}
);
width = 412;
}
);
leftKerningGroup = LAT_F_LC;
rightKerningGroup = LAT_F_LC;
unicode = 0066;
},
{
glyphname = g;
lastChange = "2021-01-08 04:36:42 +0000";
layers = (
{
anchors = (
{
name = bottom;
position = "{292, -206}";
},
{
name = top;
position = "{290, 512}";
}
);
layerId = "AB099EFE-E788-4EFC-8633-CF147CB782A6";
paths = (
{
closed = 1;
nodes = (
"378 -214 OFFCURVE",
"504 -156 OFFCURVE",
"504 4 CURVE SMOOTH",
"504 512 LINE",
"474 512 LINE",
"474 408 LINE",
"470 408 LINE",
"476 378 LINE",
"476 138 LINE",
"470 108 LINE",
"474 108 LINE",
"474 2 LINE SMOOTH",
"474 -120 OFFCURVE",
"390 -184 OFFCURVE",
"282 -184 CURVE SMOOTH",
"222 -184 OFFCURVE",
"164 -164 OFFCURVE",
"124 -130 CURVE",
"112 -160 LINE",
"150 -190 OFFCURVE",
"222 -214 OFFCURVE",
"284 -214 CURVE SMOOTH"
);
},
{
closed = 1;
nodes = (
"402 -8 OFFCURVE",
"504 78 OFFCURVE",
"504 258 CURVE SMOOTH",
"504 438 OFFCURVE",
"404 520 OFFCURVE",
"282 520 CURVE SMOOTH",
"144 520 OFFCURVE",
"58 420 OFFCURVE",
"58 258 CURVE SMOOTH",
"58 92 OFFCURVE",
"148 -8 OFFCURVE",
"282 -8 CURVE SMOOTH"
);
},
{
closed = 1;
nodes = (
"170 20 OFFCURVE",
"88 112 OFFCURVE",
"88 258 CURVE SMOOTH",
"88 398 OFFCURVE",
"162 492 OFFCURVE",
"280 492 CURVE SMOOTH",
"396 492 OFFCURVE",
"476 402 OFFCURVE",
"476 262 CURVE SMOOTH",
"476 120 OFFCURVE",
"396 20 OFFCURVE",
"280 20 CURVE SMOOTH"
);
}
);
width = 588;
},
{
anchors = (
{
name = bottom;
position = "{296, -206}";
},
{
name = top;
position = "{292, 518}";
}
);
associatedMasterId = "AB099EFE-E788-4EFC-8633-CF147CB782A6";
guideLines = (
{
angle = 67.5;
position = "{164, 4}";
}
);
layerId = "4C7B5ED9-CAFC-47FD-BB5A-CF614265E3B0";
name = "{88}";
paths = (
{
closed = 1;
nodes = (
"404 -214 OFFCURVE",
"528 -146 OFFCURVE",
"528 16 CURVE SMOOTH",
"528 518 LINE",
"444 518 LINE",
"444 452 LINE",
"426 452 LINE",
"450 404 LINE",
"450 126 LINE",
"432 80 LINE",
"446 80 LINE",
"446 12 LINE SMOOTH",
"446 -96 OFFCURVE",
"356 -138 OFFCURVE",
"280 -138 CURVE SMOOTH",
"220 -138 OFFCURVE",
"158 -114 OFFCURVE",
"126 -90 CURVE",
"94 -164 LINE",
"134 -190 OFFCURVE",
"208 -214 OFFCURVE",
"282 -214 CURVE SMOOTH"
);
},
{
closed = 1;
nodes = (
"406 -2 OFFCURVE",
"504 110 OFFCURVE",
"504 266 CURVE SMOOTH",
"504 420 OFFCURVE",
"410 526 OFFCURVE",
"280 526 CURVE SMOOTH",
"154 526 OFFCURVE",
"44 428 OFFCURVE",
"44 264 CURVE SMOOTH",
"44 100 OFFCURVE",
"152 -2 OFFCURVE",
"276 -2 CURVE SMOOTH"
);
},
{
closed = 1;
nodes = (
"196 76 OFFCURVE",
"130 154 OFFCURVE",
"130 264 CURVE SMOOTH",
"130 372 OFFCURVE",
"194 450 OFFCURVE",
"290 448 CURVE SMOOTH",
"382 450 OFFCURVE",
"448 376 OFFCURVE",
"448 266 CURVE SMOOTH",
"448 154 OFFCURVE",
"382 76 OFFCURVE",
"290 76 CURVE SMOOTH"
);
}
);
width = 600;
},
{
anchors = (
{
name = bottom;
position = "{302, -206}";
},
{
name = top;
position = "{292, 528}";
}
);
layerId = "2D8F7115-C311-411E-929D-56333CF7FFB2";
paths = (
{
closed = 1;
nodes = (
"450 -214 OFFCURVE",
"564 -126 OFFCURVE",
"564 34 CURVE SMOOTH",
"564 528 LINE",
"408 528 LINE",
"408 478 LINE",
"368 478 LINE",
"410 420 LINE",
"410 122 LINE",
"386 72 LINE",
"400 72 LINE",
"400 24 LINE SMOOTH",
"400 -42 OFFCURVE",
"318 -70 OFFCURVE",
"256 -70 CURVE SMOOTH",
"208 -70 OFFCURVE",
"162 -54 OFFCURVE",
"122 -32 CURVE",
"66 -166 LINE",
"108 -188 OFFCURVE",
"186 -214 OFFCURVE",
"276 -214 CURVE SMOOTH"
);
},
{
closed = 1;
nodes = (
"386 14 OFFCURVE",
"486 138 OFFCURVE",
"486 282 CURVE SMOOTH",
"486 420 OFFCURVE",
"394 536 OFFCURVE",
"258 536 CURVE SMOOTH",
"142 536 OFFCURVE",
"24 452 OFFCURVE",
"24 272 CURVE SMOOTH",
"24 90 OFFCURVE",
"144 14 OFFCURVE",
"252 14 CURVE SMOOTH"
);
},
{
closed = 1;
nodes = (
"236 154 OFFCURVE",
"192 202 OFFCURVE",
"192 278 CURVE SMOOTH",
"192 354 OFFCURVE",
"238 398 OFFCURVE",
"302 398 CURVE SMOOTH",
"364 398 OFFCURVE",
"408 354 OFFCURVE",
"408 278 CURVE SMOOTH",
"408 202 OFFCURVE",
"362 154 OFFCURVE",
"298 152 CURVE SMOOTH"
);
}
);
width = 612;
},
{
anchors = (
{
name = bottom;
position = "{298, -206}";
},
{
name = top;
position = "{292, 520}";
}
);
associatedMasterId = "AB099EFE-E788-4EFC-8633-CF147CB782A6";
guideLines = (
{
angle = 67.5;
position = "{160, 4}";
}
);
layerId = "D548E82C-F1D5-44DE-B786-3582CB4D3885";
name = "{106}";
paths = (
{
closed = 1;
nodes = (
"414 -214 OFFCURVE",
"536 -142 OFFCURVE",
"536 20 CURVE SMOOTH",
"536 520 LINE",
"434 520 LINE",
"434 464 LINE",
"412 464 LINE",
"440 412 LINE",
"440 122 LINE",
"420 74 LINE",
"438 74 LINE",
"438 14 LINE SMOOTH",
"438 -88 OFFCURVE",
"342 -124 OFFCURVE",
"272 -124 CURVE SMOOTH",
"216 -124 OFFCURVE",
"152 -98 OFFCURVE",
"126 -76 CURVE",
"90 -164 LINE",
"132 -188 OFFCURVE",
"204 -214 OFFCURVE",
"282 -214 CURVE SMOOTH"
);
},
{
closed = 1;
nodes = (
"410 0 OFFCURVE",
"502 120 OFFCURVE",
"502 266 CURVE SMOOTH",
"502 414 OFFCURVE",
"414 528 OFFCURVE",
"282 528 CURVE SMOOTH",
"158 528 OFFCURVE",
"40 428 OFFCURVE",
"40 264 CURVE SMOOTH",
"40 104 OFFCURVE",
"154 0 OFFCURVE",
"278 0 CURVE SMOOTH"
);
},
{
closed = 1;
nodes = (
"206 92 OFFCURVE",
"144 168 OFFCURVE",
"144 266 CURVE SMOOTH",
"144 364 OFFCURVE",
"206 438 OFFCURVE",
"294 436 CURVE SMOOTH",
"378 438 OFFCURVE",
"440 368 OFFCURVE",
"440 266 CURVE SMOOTH",
"440 164 OFFCURVE",
"378 92 OFFCURVE",
"294 90 CURVE SMOOTH"
);
}
);
width = 604;
}
);
leftKerningGroup = LAT_G_LC;
rightKerningGroup = LAT_G_LC;
unicode = 0067;
},
{
color = 4;
glyphname = g.ss01;
lastChange = "2021-01-08 01:30:08 +0000";
layers = (
{
anchors = (
{
name = bottom;
position = "{314, -206}";
},
{
name = top;
position = "{312, 512}";
}
);
components = (
{
name = _part.bowl.ss01;
transform = "{-1, 0, 0, 1, 626, 0}";
}
);
layerId = "AB099EFE-E788-4EFC-8633-CF147CB782A6";
paths = (
{
closed = 1;
nodes = (
"406 -214 OFFCURVE",
"540 -156 OFFCURVE",
"540 4 CURVE SMOOTH",
"540 512 LINE",
"510 512 LINE",
"510 396 LINE",
"502 396 LINE",
"512 362 LINE",
"512 154 LINE",
"504 120 LINE",
"510 120 LINE",
"510 2 LINE SMOOTH",
"510 -136 OFFCURVE",
"392 -186 OFFCURVE",
"306 -184 CURVE SMOOTH",
"242 -184 OFFCURVE",
"172 -164 OFFCURVE",
"132 -130 CURVE",
"120 -160 LINE",
"158 -190 OFFCURVE",
"242 -214 OFFCURVE",
"306 -214 CURVE SMOOTH"
);
}
);
width = 624;
},
{
anchors = (
{
name = bottom;
position = "{322, -206}";
},
{
name = top;
position = "{316, 518}";
}
);
associatedMasterId = "AB099EFE-E788-4EFC-8633-CF147CB782A6";
components = (
{
alignment = -1;
name = _part.bowl.ss01;
transform = "{-1, 0, 0, 0.98476, 636, 10}";
}
);
layerId = "33F2CFB4-E92F-45A8-B301-CE29318548B3";
name = "{88}";
paths = (
{
closed = 1;
nodes = (
"435 -216 OFFCURVE",
"558 -142 OFFCURVE",
"558 16 CURVE SMOOTH",
"558 518 LINE",
"474 518 LINE",
"474 446 LINE",
"462 446 LINE",
"480 404 LINE",
"480 128 LINE",
"464 82 LINE",
"474 82 LINE",
"474 12 LINE SMOOTH",
"474 -101 OFFCURVE",
"373 -140 OFFCURVE",
"296 -140 CURVE SMOOTH",
"232 -139 OFFCURVE",
"172 -118 OFFCURVE",
"130 -86 CURVE",
"98 -160 LINE",
"142 -192 OFFCURVE",
"221 -216 OFFCURVE",
"298 -216 CURVE SMOOTH"
);
}
);
width = 630;
},
{
anchors = (
{
name = bottom;
position = "{320, -206}";
},
{
name = top;
position = "{310, 528}";
}
);
components = (
{
name = _part.bowl.ss01;
transform = "{-1, 0, 0, 0.95973, 648, 22}";
}
);
layerId = "2D8F7115-C311-411E-929D-56333CF7FFB2";
paths = (
{
closed = 1;
nodes = (
"464 -214 OFFCURVE",
"582 -126 OFFCURVE",
"582 34 CURVE SMOOTH",
"582 528 LINE",
"418 528 LINE",
"418 478 LINE",
"396 478 LINE",
"418 418 LINE",
"418 104 LINE",
"390 78 LINE",
"418 78 LINE",
"418 24 LINE SMOOTH",
"418 -46 OFFCURVE",
"330 -70 OFFCURVE",
"270 -70 CURVE SMOOTH",
"220 -70 OFFCURVE",
"166 -54 OFFCURVE",
"126 -32 CURVE",
"70 -166 LINE",
"112 -188 OFFCURVE",
"186 -214 OFFCURVE",
"284 -214 CURVE SMOOTH"
);
}
);
width = 630;
},
{
anchors = (
{
name = bottom;
position = "{324, -206}";
},
{
name = top;
position = "{318, 520}";
}
);
associatedMasterId = "AB099EFE-E788-4EFC-8633-CF147CB782A6";
components = (
{
alignment = -1;
name = _part.bowl.ss01;
transform = "{-1, 0, 0, 0.97986, 640, 12}";
}
);
layerId = "D548E82C-F1D5-44DE-B786-3582CB4D3885";
name = "{106}";
paths = (
{
closed = 1;
nodes = (
"446 -216 OFFCURVE",
"564 -138 OFFCURVE",
"564 20 CURVE SMOOTH",
"564 520 LINE",
"464 520 LINE",
"464 460 LINE",
"450 460 LINE",
"468 416 LINE",
"468 120 LINE",
"458 70 LINE",
"462 70 LINE",
"462 14 LINE SMOOTH",
"462 -90 OFFCURVE",
"368 -125 OFFCURVE",
"294 -126 CURVE SMOOTH",
"230 -125 OFFCURVE",
"173 -101 OFFCURVE",
"130 -68 CURVE",
"92 -160 LINE",
"138 -193 OFFCURVE",
"216 -216 OFFCURVE",
"296 -216 CURVE SMOOTH"
);
}
);
width = 632;
}
);
leftKerningGroup = LAT_G_LC;
leftMetricsKey = g;
rightKerningGroup = LAT_G_LC;
rightMetricsKey = g;
},
{
color = 7;
glyphname = g.ss03;
lastChange = "2021-01-08 01:21:45 +0000";
layers = (
{
anchors = (
{
name = bottom;
position = "{278, -214}";
},
{
name = top;
position = "{266, 512}";
}
);
layerId = "AB099EFE-E788-4EFC-8633-CF147CB782A6";
paths = (
{
closed = 1;
nodes = (
"408 -214 OFFCURVE",
"512 -144 OFFCURVE",
"512 -52 CURVE SMOOTH",
"512 16 OFFCURVE",
"456 62 OFFCURVE",
"358 62 CURVE SMOOTH",
"222 62 LINE SMOOTH",
"156 62 OFFCURVE",
"106 96 OFFCURVE",
"106 154 CURVE SMOOTH",
"106 180 OFFCURVE",
"122 202 OFFCURVE",
"136 214 CURVE",
"116 236 LINE",
"98 220 OFFCURVE",
"78 190 OFFCURVE",
"78 154 CURVE SMOOTH",
"78 96 OFFCURVE",
"124 34 OFFCURVE",
"222 34 CURVE SMOOTH",
"366 34 LINE SMOOTH",
"440 34 OFFCURVE",
"482 0 OFFCURVE",
"482 -52 CURVE SMOOTH",
"482 -126 OFFCURVE",
"398 -186 OFFCURVE",
"272 -186 CURVE SMOOTH",
"160 -186 OFFCURVE",
"86 -138 OFFCURVE",
"86 -68 CURVE SMOOTH",
"86 -16 OFFCURVE",
"128 36 OFFCURVE",
"168 52 CURVE",
"142 70 LINE",
"94 44 OFFCURVE",
"56 -9 OFFCURVE",
"56 -68 CURVE SMOOTH",
"56 -154 OFFCURVE",
"142 -214 OFFCURVE",
"270 -214 CURVE SMOOTH"
);
},
{
closed = 1;
nodes = (
"384 162 OFFCURVE",
"466 236 OFFCURVE",
"466 342 CURVE SMOOTH",
"466 446 OFFCURVE",
"388 520 OFFCURVE",
"266 520 CURVE SMOOTH",
"150 520 OFFCURVE",
"68 450 OFFCURVE",
"68 344 CURVE SMOOTH",
"68 236 OFFCURVE",
"152 162 OFFCURVE",
"268 162 CURVE SMOOTH"
);
},
{
closed = 1;
nodes = (
"172 190 OFFCURVE",
"100 254 OFFCURVE",
"100 342 CURVE SMOOTH",
"100 432 OFFCURVE",
"172 492 OFFCURVE",
"266 492 CURVE SMOOTH",
"364 492 OFFCURVE",
"434 432 OFFCURVE",
"434 342 CURVE SMOOTH",
"434 254 OFFCURVE",
"364 190 OFFCURVE",
"266 190 CURVE SMOOTH"
);
},
{
closed = 1;
nodes = (
"448 470 OFFCURVE",
"482 488 OFFCURVE",
"522 506 CURVE",
"506 534 LINE",
"468 516 OFFCURVE",
"432 494 OFFCURVE",
"404 472 CURVE",
"418 446 LINE"
);
}
);
width = 562;
},
{
anchors = (
{
name = bottom;
position = "{284, -218}";
},
{
name = top;
position = "{274, 528}";
}
);
background = {
paths = (
{
closed = 1;
nodes = (
"486 -222 OFFCURVE",
"586 -148 OFFCURVE",
"586 -40 CURVE SMOOTH",
"586 48 OFFCURVE",
"518 102 OFFCURVE",
"408 102 CURVE SMOOTH",
"286 102 LINE SMOOTH",
"230 102 OFFCURVE",
"186 120 OFFCURVE",
"186 154 CURVE SMOOTH",
"186 174 OFFCURVE",
"198 188 OFFCURVE",
"212 194 CURVE",
"154 246 LINE",
"94 218 OFFCURVE",
"72 154 OFFCURVE",
"72 118 CURVE SMOOTH",
"72 40 OFFCURVE",
"164 -2 OFFCURVE",
"298 -2 CURVE SMOOTH",
"358 -2 LINE SMOOTH",
"400 -2 OFFCURVE",
"426 -18 OFFCURVE",
"426 -40 CURVE SMOOTH",
"426 -72 OFFCURVE",
"374 -88 OFFCURVE",
"306 -88 CURVE SMOOTH",
"234 -88 OFFCURVE",
"158 -70 OFFCURVE",
"158 -28 CURVE SMOOTH",
"158 -4 OFFCURVE",
"180 20 OFFCURVE",
"208 28 CURVE",
"112 62 LINE",
"64 50 OFFCURVE",
"20 -10 OFFCURVE",
"20 -68 CURVE SMOOTH",
"20 -156 OFFCURVE",
"120 -222 OFFCURVE",
"298 -222 CURVE SMOOTH"
);
}
);
};
layerId = "2D8F7115-C311-411E-929D-56333CF7FFB2";
paths = (
{
closed = 1;
nodes = (
"496 -214 OFFCURVE",
"574 -138 OFFCURVE",
"574 -40 CURVE SMOOTH",
"574 58 OFFCURVE",
"498 114 OFFCURVE",
"388 114 CURVE SMOOTH",
"266 114 LINE SMOOTH",
"210 114 OFFCURVE",
"168 114 OFFCURVE",
"168 148 CURVE SMOOTH",
"168 168 OFFCURVE",
"186 182 OFFCURVE",
"200 188 CURVE",
"102 230 LINE",
"82 222 OFFCURVE",
"40 192 OFFCURVE",
"40 138 CURVE SMOOTH",
"40 60 OFFCURVE",
"112 -2 OFFCURVE",
"246 -2 CURVE SMOOTH",
"356 -2 LINE SMOOTH",
"376 -2 OFFCURVE",
"414 -2 OFFCURVE",
"414 -34 CURVE SMOOTH",
"414 -74 OFFCURVE",
"360 -80 OFFCURVE",
"290 -80 CURVE SMOOTH",
"224 -80 OFFCURVE",
"146 -74 OFFCURVE",
"146 -26 CURVE SMOOTH",
"146 0 OFFCURVE",
"168 24 OFFCURVE",
"196 32 CURVE",
"100 62 LINE",
"52 50 OFFCURVE",
"8 -10 OFFCURVE",
"8 -72 CURVE SMOOTH",
"8 -160 OFFCURVE",
"98 -214 OFFCURVE",
"280 -214 CURVE SMOOTH"
);
},
{
closed = 1;
nodes = (
"408 150 OFFCURVE",
"504 232 OFFCURVE",
"504 344 CURVE SMOOTH",
"504 456 OFFCURVE",
"406 536 OFFCURVE",
"272 536 CURVE SMOOTH",
"142 536 OFFCURVE",
"46 460 OFFCURVE",
"46 350 CURVE SMOOTH",
"46 236 OFFCURVE",
"146 150 OFFCURVE",
"278 150 CURVE SMOOTH"
);
},
{
closed = 1;
nodes = (
"230 266 OFFCURVE",
"194 298 OFFCURVE",
"194 342 CURVE SMOOTH",
"194 382 OFFCURVE",
"230 416 OFFCURVE",
"274 416 CURVE SMOOTH",
"322 416 OFFCURVE",
"356 382 OFFCURVE",
"356 340 CURVE SMOOTH",
"356 298 OFFCURVE",
"324 266 OFFCURVE",
"276 266 CURVE SMOOTH"
);
},
{
closed = 1;
nodes = (
"500 452 OFFCURVE",
"516 458 OFFCURVE",
"580 458 CURVE",
"548 582 LINE",
"498 568 OFFCURVE",
"456 552 OFFCURVE",
"378 492 CURVE",
"450 434 LINE"
);
}
);
width = 580;
},
{
anchors = (
{
name = bottom;
position = "{280, -216}";
},
{
name = top;
position = "{274, 518}";
}
);
associatedMasterId = "AB099EFE-E788-4EFC-8633-CF147CB782A6";
layerId = "121B7FB0-DB9A-4507-ADFB-2D2A53DA814C";
name = "{88}";
paths = (
{
closed = 1;
nodes = (
"440 -214 OFFCURVE",
"534 -134 OFFCURVE",
"536 -46 CURVE SMOOTH",
"538 28 OFFCURVE",
"476 82 OFFCURVE",
"378 82 CURVE SMOOTH",
"256 82 LINE SMOOTH",
"214 82 OFFCURVE",
"158 94 OFFCURVE",
"158 146 CURVE SMOOTH",
"158 168 OFFCURVE",
"168 178 OFFCURVE",
"188 192 CURVE",
"132 238 LINE",
"104 214 OFFCURVE",
"84 182 OFFCURVE",
"84 144 CURVE SMOOTH",
"84 84 OFFCURVE",
"138 10 OFFCURVE",
"266 10 CURVE SMOOTH",
"352 10 LINE SMOOTH",
"408 10 OFFCURVE",
"452 -4 OFFCURVE",
"452 -46 CURVE SMOOTH",
"452 -100 OFFCURVE",
"382 -138 OFFCURVE",
"280 -138 CURVE SMOOTH",
"196 -138 OFFCURVE",
"124 -112 OFFCURVE",
"124 -52 CURVE SMOOTH",
"124 -8 OFFCURVE",
"162 22 OFFCURVE",
"194 32 CURVE",
"128 68 LINE",
"78 42 OFFCURVE",
"44 -6 OFFCURVE",
"44 -60 CURVE SMOOTH",
"44 -152 OFFCURVE",
"140 -214 OFFCURVE",
"280 -214 CURVE SMOOTH"
);
},
{
closed = 1;
nodes = (
"396 160 OFFCURVE",
"480 238 OFFCURVE",
"480 344 CURVE SMOOTH",
"480 452 OFFCURVE",
"394 526 OFFCURVE",
"276 526 CURVE SMOOTH",
"158 526 OFFCURVE",
"70 452 OFFCURVE",
"70 344 CURVE SMOOTH",
"70 234 OFFCURVE",
"158 160 OFFCURVE",
"276 160 CURVE SMOOTH"
);
},
{
closed = 1;
nodes = (
"208 232 OFFCURVE",
"154 278 OFFCURVE",
"154 342 CURVE SMOOTH",
"154 406 OFFCURVE",
"206 454 OFFCURVE",
"278 454 CURVE SMOOTH",
"340 454 OFFCURVE",
"396 416 OFFCURVE",
"396 344 CURVE SMOOTH",
"396 278 OFFCURVE",
"348 232 OFFCURVE",
"278 232 CURVE SMOOTH"
);
},
{
closed = 1;
nodes = (
"468 458 OFFCURVE",
"496 474 OFFCURVE",
"544 484 CURVE",
"508 558 LINE",
"466 540 OFFCURVE",
"426 518 OFFCURVE",
"380 486 CURVE",
"430 438 LINE"
);
}
);
width = 572;
},
{
anchors = (
{
name = bottom;
position = "{282, -214}";
},
{
name = top;
position = "{276, 524}";
}
);
associatedMasterId = "AB099EFE-E788-4EFC-8633-CF147CB782A6";
layerId = "78C318E5-0AD8-4118-B0BD-56513271A36A";
name = "{140}";
paths = (
{
closed = 1;
nodes = (
"466 -214 OFFCURVE",
"562 -146 OFFCURVE",
"562 -38 CURVE SMOOTH",
"562 62 OFFCURVE",
"478 106 OFFCURVE",
"354 106 CURVE SMOOTH",
"286 106 LINE SMOOTH",
"244 106 OFFCURVE",
"202 104 OFFCURVE",
"202 144 CURVE SMOOTH",
"202 166 OFFCURVE",
"216 182 OFFCURVE",
"234 192 CURVE",
"136 242 LINE",
"110 228 OFFCURVE",
"78 192 OFFCURVE",
"78 140 CURVE SMOOTH",
"78 68 OFFCURVE",
"134 0 OFFCURVE",
"266 0 CURVE SMOOTH",
"320 0 LINE SMOOTH",
"378 0 OFFCURVE",
"432 -2 OFFCURVE",
"432 -40 CURVE SMOOTH",
"432 -76 OFFCURVE",
"380 -102 OFFCURVE",
"294 -102 CURVE SMOOTH",
"198 -102 OFFCURVE",
"152 -68 OFFCURVE",
"152 -32 CURVE SMOOTH",
"152 -6 OFFCURVE",
"182 22 OFFCURVE",
"202 22 CURVE",
"114 86 LINE",
"64 58 OFFCURVE",
"24 4 OFFCURVE",
"24 -54 CURVE SMOOTH",
"24 -148 OFFCURVE",
"120 -214 OFFCURVE",
"300 -214 CURVE SMOOTH"
);
},
{
closed = 1;
nodes = (
"423 158 OFFCURVE",
"516 230 OFFCURVE",
"516 340 CURVE SMOOTH",
"516 450 OFFCURVE",
"421 532 OFFCURVE",
"286 532 CURVE SMOOTH",
"153 532 OFFCURVE",
"60 452 OFFCURVE",
"60 342 CURVE SMOOTH",
"60 230 OFFCURVE",
"155 158 OFFCURVE",
"290 158 CURVE SMOOTH"
);
},
{
closed = 1;
nodes = (
"232 260 OFFCURVE",
"193 292 OFFCURVE",
"192 340 CURVE SMOOTH",
"193 392 OFFCURVE",
"232 422 OFFCURVE",
"288 422 CURVE SMOOTH",
"346 422 OFFCURVE",
"385 392 OFFCURVE",
"386 342 CURVE SMOOTH",
"385 294 OFFCURVE",
"346 260 OFFCURVE",
"288 260 CURVE SMOOTH"
);
},
{
closed = 1;
nodes = (
"490 454 OFFCURVE",
"508 464 OFFCURVE",
"570 468 CURVE",
"536 574 LINE",
"466 550 OFFCURVE",
"420 532 OFFCURVE",
"374 490 CURVE",
"444 436 LINE"
);
}
);
width = 584;
}
);
leftKerningGroup = LAT_GSS03_LC;
rightKerningGroup = LAT_GSS03_LC;
},
{
glyphname = h;
lastChange = "2021-01-08 01:22:02 +0000";
layers = (
{
anchors = (
{
name = bottom;
position = "{276, 0}";
},
{
name = center;
position = "{100, 616}";
},
{
name = top;
position = "{100, 720}";
}
);
layerId = "AB099EFE-E788-4EFC-8633-CF147CB782A6";
paths = (
{
closed = 1;
nodes = (
"114 0 LINE",
"114 326 LINE SMOOTH",
"114 412 OFFCURVE",
"192 492 OFFCURVE",
"290 492 CURVE SMOOTH",
"374 492 OFFCURVE",
"436 434 OFFCURVE",
"436 322 CURVE SMOOTH",
"436 0 LINE",
"466 0 LINE",
"466 330 LINE SMOOTH",
"466 456 OFFCURVE",
"390 520 OFFCURVE",
"292 520 CURVE SMOOTH",
"204 520 OFFCURVE",
"132 468 OFFCURVE",
"108 402 CURVE",
"128 420 LINE",
"114 420 LINE",
"114 752 LINE",
"84 752 LINE",
"84 0 LINE"
);
}
);
width = 546;
},
{
anchors = (
{
name = bottom;
position = "{296, 0}";
},
{
name = center;
position = "{134, 634}";
},
{
name = top;
position = "{134, 752}";
}
);
layerId = "2D8F7115-C311-411E-929D-56333CF7FFB2";
paths = (
{
closed = 1;
nodes = (
"222 0 LINE",
"222 308 LINE SMOOTH",
"222 364 OFFCURVE",
"256 394 OFFCURVE",
"300 394 CURVE SMOOTH",
"344 394 OFFCURVE",
"372 366 OFFCURVE",
"372 310 CURVE SMOOTH",
"372 0 LINE",
"546 0 LINE",
"546 348 LINE SMOOTH",
"546 464 OFFCURVE",
"480 536 OFFCURVE",
"370 536 CURVE SMOOTH",
"292 536 OFFCURVE",
"212 500 OFFCURVE",
"196 424 CURVE",
"252 482 LINE",
"222 482 LINE",
"222 752 LINE",
"48 752 LINE",
"48 0 LINE"
);
}
);
width = 590;
},
{
anchors = (
{
name = bottom;
position = "{284, 0}";
},
{
name = center;
position = "{116, 622}";
},
{
name = top;
position = "{114, 740}";
}
);
associatedMasterId = "AB099EFE-E788-4EFC-8633-CF147CB782A6";
layerId = "00986AAE-4D41-460C-B46A-99650BE8CB7D";
name = "{88}";
paths = (
{
closed = 1;
nodes = (
"156 0 LINE",
"156 314 LINE SMOOTH",
"156 402 OFFCURVE",
"216 448 OFFCURVE",
"290 448 CURVE SMOOTH",
"364 448 OFFCURVE",
"414 402 OFFCURVE",
"414 314 CURVE SMOOTH",
"414 0 LINE",
"498 0 LINE",
"498 332 LINE SMOOTH",
"498 424 OFFCURVE",
"448 526 OFFCURVE",
"314 526 CURVE SMOOTH",
"230 526 OFFCURVE",
"162 486 OFFCURVE",
"138 420 CURVE",
"176 458 LINE",
"156 458 LINE",
"156 752 LINE",
"72 752 LINE",
"72 0 LINE"
);
}
);
width = 568;
}
);
leftKerningGroup = LAT_H_UC;
rightKerningGroup = LAT_N_LC;
rightMetricsKey = n;
unicode = 0068;
},
{
glyphname = idotless;
lastChange = "2021-01-08 01:22:17 +0000";
layers = (
{
anchors = (
{
name = bottom;
position = "{100, 0}";
},
{
name = ogonek;
position = "{118, 0}";
},
{
name = top;
position = "{102, 512}";
}
);
layerId = "AB099EFE-E788-4EFC-8633-CF147CB782A6";
paths = (
{
closed = 1;
nodes = (
"118 0 LINE",
"118 512 LINE",
"88 512 LINE",
"88 0 LINE"
);
}
);
width = 204;
},
{
anchors = (
{
name = bottom;
position = "{138, 0}";
},
{
name = ogonek;
position = "{138, 0}";
},
{
name = top;
position = "{138, 528}";
}
);
guideLines = (
{
angle = 60;
position = "{160, 0}";
}
);
layerId = "2D8F7115-C311-411E-929D-56333CF7FFB2";
paths = (
{
closed = 1;
nodes = (
"224 0 LINE",
"224 528 LINE",
"50 528 LINE",
"50 0 LINE"
);
}
);
width = 274;
},
{
anchors = (
{
name = bottom;
position = "{118, 0}";
},
{
name = ogonek;
position = "{126, 0}";
},
{
name = top;
position = "{118, 518}";
}
);
associatedMasterId = "AB099EFE-E788-4EFC-8633-CF147CB782A6";
layerId = "0DE48DDA-E6E3-4C58-AEA1-8A652859058F";
name = "{88}";
paths = (
{
closed = 1;
nodes = (
"160 0 LINE",
"160 518 LINE",
"76 518 LINE",
"76 0 LINE"
);
}
);
width = 236;
}
);
unicode = 0131;
},
{
color = 8;
glyphname = idotless.ss02;
lastChange = "2020-07-21 11:46:30 +0000";
layers = (
{
anchors = (
{
name = bottom;
position = "{146, 0}";
},
{
name = center;
position = "{106, 278}";
},
{
name = ogonek;
position = "{166, -8}";
},
{
name = top;
position = "{106, 512}";
}
);
background = {
anchors = (
{
name = bottom;
position = "{146, 0}";
},
{
name = center;
position = "{106, 278}";
},
{
name = ogonek;
position = "{214, 6}";
},
{
name = top;
position = "{106, 512}";
}
);
paths = (
{
closed = 1;
nodes = (
"183 -4 OFFCURVE",
"204 0 OFFCURVE",
"214 6 CURVE",
"214 36 LINE",
"200 29 OFFCURVE",
"181 24 OFFCURVE",
"164 24 CURVE SMOOTH",
"121 24 OFFCURVE",
"120 58 OFFCURVE",
"120 102 CURVE SMOOTH",
"120 512 LINE",
"90 512 LINE",
"90 108 LINE SMOOTH",
"90 54 OFFCURVE",
"90 -4 OFFCURVE",
"166 -4 CURVE SMOOTH"
);
}
);
};
guideLines = (
{
angle = 80;
position = "{178, -8}";
}
);
layerId = "AB099EFE-E788-4EFC-8633-CF147CB782A6";
paths = (
{
closed = 1;
nodes = (
"178 20 LINE",
"144 34 OFFCURVE",
"120 54 OFFCURVE",
"120 98 CURVE SMOOTH",
"120 512 LINE",
"90 512 LINE",
"90 116 LINE SMOOTH",
"90 56 OFFCURVE",
"106 18 OFFCURVE",
"166 -8 CURVE"
);
}
);
width = 242;
},
{
anchors = (
{
name = bottom;
position = "{164, 0}";
},
{
name = center;
position = "{152, 278}";
},
{
name = ogonek;
position = "{244, -8}";
},
{
name = top;
position = "{152, 528}";
}
);
background = {
anchors = (
{
name = bottom;
position = "{164, 0}";
},
{
name = center;
position = "{152, 278}";
},
{
name = ogonek;
position = "{292, 4}";
},
{
name = top;
position = "{152, 528}";
}
);
paths = (
{
closed = 1;
nodes = (
"236 -8 OFFCURVE",
"269 -5 OFFCURVE",
"292 4 CURVE",
"292 140 LINE",
"279 137 OFFCURVE",
"273 136 OFFCURVE",
"266 136 CURVE SMOOTH",
"238 136 OFFCURVE",
"236 156 OFFCURVE",
"236 184 CURVE SMOOTH",
"236 528 LINE",
"62 528 LINE",
"62 136 LINE SMOOTH",
"62 54 OFFCURVE",
"116 -8 OFFCURVE",
"210 -8 CURVE SMOOTH"
);
}
);
};
guideLines = (
{
angle = 80;
position = "{272, -8}";
}
);
layerId = "2D8F7115-C311-411E-929D-56333CF7FFB2";
paths = (
{
closed = 1;
nodes = (
"304 136 LINE",
"263 145 OFFCURVE",
"236 170 OFFCURVE",
"236 226 CURVE SMOOTH",
"236 528 LINE",
"62 528 LINE",
"62 218 LINE SMOOTH",
"62 84 OFFCURVE",
"115 -2 OFFCURVE",
"244 -8 CURVE"
);
}
);
width = 330;
},
{
anchors = (
{
name = bottom;
position = "{163, 0}";
},
{
name = center;
position = "{127, 278}";
},
{
name = ogonek;
position = "{206, -8}";
},
{
name = top;
position = "{128, 518}";
}
);
associatedMasterId = "AB099EFE-E788-4EFC-8633-CF147CB782A6";
background = {
paths = (
{
closed = 1;
nodes = (
"208 -8 OFFCURVE",
"226 -6 OFFCURVE",
"236 -2 CURVE",
"236 74 LINE",
"228 72 OFFCURVE",
"218 70 OFFCURVE",
"210 70 CURVE SMOOTH",
"168 70 OFFCURVE",
"168 102 OFFCURVE",
"168 122 CURVE SMOOTH",
"168 518 LINE",
"84 518 LINE",
"84 124 LINE SMOOTH",
"84 40 OFFCURVE",
"116 -8 OFFCURVE",
"192 -8 CURVE SMOOTH"
);
}
);
};
guideLines = (
{
angle = 80;
position = "{178, -8}";
}
);
layerId = "321AB8B9-A771-4B9B-B29D-85ACBBC34A03";
name = "{88}";
paths = (
{
closed = 1;
nodes = (
"220 70 LINE",
"193 76 OFFCURVE",
"166 94 OFFCURVE",
"166 136 CURVE SMOOTH",
"166 518 LINE",
"80 518 LINE",
"80 152 LINE SMOOTH",
"80 64 OFFCURVE",
"114 4 OFFCURVE",
"206 -8 CURVE"
);
}
);
width = 284;
}
);
},
{
glyphname = jdotless;
lastChange = "2021-01-08 01:22:39 +0000";
layers = (
{
anchors = (
{
name = center;
position = "{126, 278}";
},
{
name = top;
position = "{126, 512}";
}
);
layerId = "AB099EFE-E788-4EFC-8633-CF147CB782A6";
paths = (
{
closed = 1;
nodes = (
"102 -214 OFFCURVE",
"140 -150 OFFCURVE",
"140 -68 CURVE SMOOTH",
"140 512 LINE",
"110 512 LINE",
"110 -74 LINE SMOOTH",
"110 -132 OFFCURVE",
"82 -184 OFFCURVE",
"14 -184 CURVE SMOOTH",
"3 -184 OFFCURVE",
"-10 -182 OFFCURVE",
"-22 -178 CURVE",
"-22 -210 LINE",
"-9 -213 OFFCURVE",
"5 -214 OFFCURVE",
"16 -214 CURVE SMOOTH"
);
}
);
width = 226;
},
{
anchors = (
{
name = center;
position = "{142, 278}";
},
{
name = top;
position = "{142, 518}";
}
);
associatedMasterId = "AB099EFE-E788-4EFC-8633-CF147CB782A6";
layerId = "EB132040-D5D7-4295-AF68-F6014CBBD333";
name = "{88}";
paths = (
{
closed = 1;
nodes = (
"138 -214 OFFCURVE",
"184 -148 OFFCURVE",
"184 -62 CURVE SMOOTH",
"184 518 LINE",
"100 518 LINE",
"100 -54 LINE SMOOTH",
"100 -106 OFFCURVE",
"74 -134 OFFCURVE",
"26 -134 CURVE SMOOTH",
"14 -134 OFFCURVE",
"-4 -132 OFFCURVE",
"-18 -128 CURVE",
"-18 -208 LINE",
"-2 -212 OFFCURVE",
"14 -214 OFFCURVE",
"32 -214 CURVE SMOOTH"
);
}
);
width = 262;
},
{
anchors = (
{
name = center;
position = "{156, 278}";
},
{
name = top;
position = "{154, 528}";
}
);
layerId = "2D8F7115-C311-411E-929D-56333CF7FFB2";
paths = (
{
closed = 1;
nodes = (
"178 -218 OFFCURVE",
"242 -128 OFFCURVE",
"242 -6 CURVE SMOOTH",
"242 528 LINE",
"68 528 LINE",
"68 -18 LINE SMOOTH",
"68 -44 OFFCURVE",
"54 -64 OFFCURVE",
"14 -64 CURVE SMOOTH",
"0 -64 OFFCURVE",
"-19 -62 OFFCURVE",
"-34 -56 CURVE",
"-34 -210 LINE",
"-10 -215 OFFCURVE",
"18 -218 OFFCURVE",
"42 -218 CURVE SMOOTH"
);
}
);
width = 292;
},
{
anchors = (
{
name = center;
position = "{148, 278}";
},
{
name = top;
position = "{146, 520}";
}
);
associatedMasterId = "AB099EFE-E788-4EFC-8633-CF147CB782A6";
layerId = "07B42797-D86D-41F2-ABBA-4C41B9928AA5";
name = "{106}";
paths = (
{
closed = 1;
nodes = (
"148 -214 OFFCURVE",
"198 -148 OFFCURVE",
"198 -60 CURVE SMOOTH",
"198 520 LINE",
"94 520 LINE",
"94 -48 LINE SMOOTH",
"94 -96 OFFCURVE",
"70 -118 OFFCURVE",
"28 -118 CURVE SMOOTH",
"16 -118 OFFCURVE",
"-2 -116 OFFCURVE",
"-16 -110 CURVE",
"-16 -208 LINE",
"0 -212 OFFCURVE",
"16 -214 OFFCURVE",
"36 -214 CURVE SMOOTH"
);
}
);
width = 274;
}
);
leftKerningGroup = LAT_J_LC;
rightKerningGroup = LAT_J_LC;
unicode = 0237;
},
{
glyphname = k;
lastChange = "2021-01-08 01:22:42 +0000";
layers = (
{
anchors = (
{
name = bottom;
position = "{256, 0}";
},
{
name = top;
position = "{98, 752}";
}
);
layerId = "AB099EFE-E788-4EFC-8633-CF147CB782A6";
paths = (
{
closed = 1;
nodes = (
"114 0 LINE",
"114 246 LINE",
"156 246 LINE",
"132 258 LINE",
"404 0 LINE",
"446 0 LINE",
"162 270 LINE",
"162 252 LINE",
"428 512 LINE",
"384 512 LINE",
"132 264 LINE",
"156 276 LINE",
"114 276 LINE",
"114 752 LINE",
"84 752 LINE",
"84 0 LINE"
);
}
);
width = 478;
},
{
anchors = (
{
name = bottom;
position = "{304, 0}";
},
{
name = top;
position = "{136, 752}";
}
);
layerId = "2D8F7115-C311-411E-929D-56333CF7FFB2";
paths = (
{
closed = 1;
nodes = (
"222 0 LINE",
"222 222 LINE",
"264 222 LINE",
"210 248 LINE",
"398 0 LINE",
"600 0 LINE",
"338 326 LINE",
"338 226 LINE",
"590 528 LINE",
"388 528 LINE",
"212 296 LINE",
"264 322 LINE",
"222 322 LINE",
"222 752 LINE",
"48 752 LINE",
"48 0 LINE"
);
}
);
width = 596;
},
{
anchors = (
{
name = bottom;
position = "{274, 0}";
},
{
name = top;
position = "{114, 740}";
}
);
associatedMasterId = "AB099EFE-E788-4EFC-8633-CF147CB782A6";
layerId = "52B5A524-3FFA-473F-8AB4-14DE8555743B";
name = "{88}";
paths = (
{
closed = 1;
nodes = (
"156 0 LINE",
"156 234 LINE",
"198 234 LINE",
"160 258 LINE",
"400 0 LINE",
"510 0 LINE",
"236 294 LINE",
"236 248 LINE",
"494 518 LINE",
"384 518 LINE",
"160 284 LINE",
"198 306 LINE",
"156 306 LINE",
"156 752 LINE",
"72 752 LINE",
"72 0 LINE"
);
}
);
width = 530;
}
);
leftKerningGroup = LAT_H_UC;
leftMetricsKey = h;
rightKerningGroup = LAT_K_LC;
unicode = 006B;
},
{
glyphname = kgreenlandic;
lastChange = "2021-01-08 01:23:29 +0000";
layers = (
{
anchors = (
{
name = bottom;
position = "{242, 0}";
},
{
name = top;
position = "{242, 512}";
}
);
layerId = "AB099EFE-E788-4EFC-8633-CF147CB782A6";
paths = (
{
closed = 1;
nodes = (
"114 0 LINE",
"114 246 LINE",
"154 246 LINE",
"130 258 LINE",
"402 0 LINE",
"444 0 LINE",
"160 270 LINE",
"160 252 LINE",
"426 512 LINE",
"382 512 LINE",
"130 264 LINE",
"154 276 LINE",
"114 276 LINE",
"114 512 LINE",
"84 512 LINE",
"84 0 LINE"
);
}
);
width = 476;
},
{
anchors = (
{
name = bottom;
position = "{294, 0}";
},
{
name = top;
position = "{294, 528}";
}
);
layerId = "2D8F7115-C311-411E-929D-56333CF7FFB2";
paths = (
{
closed = 1;
nodes = (
"222 0 LINE",
"222 222 LINE",
"258 222 LINE",
"204 248 LINE",
"392 0 LINE",
"594 0 LINE",
"332 326 LINE",
"332 226 LINE",
"584 528 LINE",
"378 528 LINE",
"204 296 LINE",
"258 322 LINE",
"222 322 LINE",
"222 528 LINE",
"48 528 LINE",
"48 0 LINE"
);
}
);
width = 590;
},
{
anchors = (
{
name = bottom;
position = "{262, 0}";
},
{
name = top;
position = "{262, 518}";
}
);
associatedMasterId = "AB099EFE-E788-4EFC-8633-CF147CB782A6";
layerId = "66464B41-4D82-4B7E-BCF4-9E94F840820A";
name = "{88}";
paths = (
{
closed = 1;
nodes = (
"156 0 LINE",
"156 224 LINE",
"198 224 LINE",
"160 248 LINE",
"400 0 LINE",
"510 0 LINE",
"236 284 LINE",
"236 238 LINE",
"494 518 LINE",
"384 518 LINE",
"160 274 LINE",
"198 296 LINE",
"156 296 LINE",
"156 518 LINE",
"72 518 LINE",
"72 0 LINE"
);
}
);
width = 530;
}
);
leftMetricsKey = n;
rightMetricsKey = k;
unicode = 0138;
},
{
glyphname = l;
lastChange = "2021-01-08 05:13:02 +0000";
layers = (
{
anchors = (
{
name = bottom;
position = "{138, 0}";
},
{
name = center;
position = "{104, 360}";
},
{
name = dot;
position = "{236, 360}";
},
{
name = top;
position = "{104, 752}";
},
{
name = topright;
position = "{120, 752}";
}
);
layerId = "AB099EFE-E788-4EFC-8633-CF147CB782A6";
paths = (
{
closed = 1;
nodes = (
"166 -4 OFFCURVE",
"180 -2 OFFCURVE",
"190 2 CURVE",
"190 32 LINE",
"184 28 OFFCURVE",
"170 24 OFFCURVE",
"156 24 CURVE SMOOTH",
"118 24 OFFCURVE",
"118 54 OFFCURVE",
"118 86 CURVE SMOOTH",
"118 752 LINE",
"88 752 LINE",
"88 86 LINE SMOOTH",
"88 16 OFFCURVE",
"110 -4 OFFCURVE",
"154 -4 CURVE SMOOTH"
);
}
);
width = 222;
},
{
anchors = (
{
name = bottom;
position = "{166, 0}";
},
{
name = center;
position = "{138, 384}";
},
{
name = dot;
position = "{392, 368}";
},
{
name = top;
position = "{138, 752}";
},
{
name = topright;
position = "{226, 752}";
}
);
guideLines = (
{
angle = 100;
position = "{268, -12}";
}
);
layerId = "2D8F7115-C311-411E-929D-56333CF7FFB2";
paths = (
{
closed = 1;
nodes = (
"228 -8 OFFCURVE",
"258 -2 OFFCURVE",
"280 6 CURVE",
"280 140 LINE",
"276 138 OFFCURVE",
"268 136 OFFCURVE",
"260 136 CURVE SMOOTH",
"236 136 OFFCURVE",
"226 156 OFFCURVE",
"226 174 CURVE SMOOTH",
"226 752 LINE",
"52 752 LINE",
"52 144 LINE SMOOTH",
"52 64 OFFCURVE",
"102 -8 OFFCURVE",
"200 -8 CURVE SMOOTH"
);
}
);
width = 300;
},
{
anchors = (
{
name = bottom;
position = "{150, 0}";
},
{
name = center;
position = "{122, 378}";
},
{
name = dot;
position = "{298, 364}";
},
{
name = top;
position = "{120, 752}";
},
{
name = topright;
position = "{162, 752}";
}
);
associatedMasterId = "AB099EFE-E788-4EFC-8633-CF147CB782A6";
layerId = "7224A175-8AF7-41C8-847F-42415BA604E1";
name = "{88}";
paths = (
{
closed = 1;
nodes = (
"196 -7 OFFCURVE",
"212 -5 OFFCURVE",
"222 -2 CURVE",
"222 74 LINE",
"214 71 OFFCURVE",
"206 70 OFFCURVE",
"198 70 CURVE SMOOTH",
"160 70 OFFCURVE",
"160 101 OFFCURVE",
"160 122 CURVE SMOOTH",
"160 752 LINE",
"76 752 LINE",
"76 124 LINE SMOOTH",
"76 40 OFFCURVE",
"108 -7 OFFCURVE",
"182 -8 CURVE SMOOTH"
);
}
);
width = 258;
}
);
leftKerningGroup = LAT_L_LC;
leftMetricsKey = "=h+4";
rightKerningGroup = LAT_L_LC;
unicode = 006C;
},
{
color = 4;
glyphname = l.ss01;
lastChange = "2021-01-08 01:23:45 +0000";
layers = (
{
anchors = (
{
name = bottom;
position = "{110, 0}";
},
{
name = center;
position = "{108, 360}";
},
{
name = dot;
position = "{232, 360}";
},
{
name = top;
position = "{108, 752}";
},
{
name = topright;
position = "{124, 752}";
}
);
layerId = "AB099EFE-E788-4EFC-8633-CF147CB782A6";
paths = (
{
closed = 1;
nodes = (
"124 0 LINE",
"124 752 LINE",
"94 752 LINE",
"94 0 LINE"
);
}
);
width = 218;
},
{
anchors = (
{
name = bottom;
position = "{146, 0}";
},
{
name = center;
position = "{146, 384}";
},
{
name = dot;
position = "{388, 368}";
},
{
name = top;
position = "{146, 752}";
},
{
name = topright;
position = "{232, 752}";
}
);
layerId = "2D8F7115-C311-411E-929D-56333CF7FFB2";
paths = (
{
closed = 1;
nodes = (
"232 0 LINE",
"232 752 LINE",
"58 752 LINE",
"58 0 LINE"
);
}
);
width = 290;
},
{
anchors = (
{
name = bottom;
position = "{122, 0}";
},
{
name = center;
position = "{122, 370}";
},
{
name = dot;
position = "{290, 364}";
},
{
name = top;
position = "{122, 752}";
},
{
name = topright;
position = "{164, 752}";
}
);
associatedMasterId = "AB099EFE-E788-4EFC-8633-CF147CB782A6";
layerId = "077A86EF-F308-455C-9339-30CF63065697";
name = "{88}";
paths = (
{
closed = 1;
nodes = (
"164 0 LINE",
"164 752 LINE",
"80 752 LINE",
"80 0 LINE"
);
}
);
width = 244;
}
);
leftKerningGroup = LAT_H_UC;
rightKerningGroup = LAT_H_UC;
},
{
glyphname = m;
lastChange = "2021-01-08 04:31:52 +0000";
layers = (
{
anchors = (
{
name = bottom;
position = "{408, 0}";
},
{
name = leghookleft;
position = "{718, 0}";
},
{
name = top;
position = "{410, 512}";
}
);
background = {
paths = (
{
closed = 1;
nodes = (
"114 0 LINE",
"114 318 LINE SMOOTH",
"114 398 OFFCURVE",
"176 492 OFFCURVE",
"272 492 CURVE SMOOTH",
"332 492 OFFCURVE",
"396 454 OFFCURVE",
"396 332 CURVE SMOOTH",
"396 0 LINE",
"426 0 LINE",
"426 330 LINE SMOOTH",
"426 400 OFFCURVE",
"486 492 OFFCURVE",
"582 492 CURVE SMOOTH",
"646 492 OFFCURVE",
"704 454 OFFCURVE",
"704 326 CURVE SMOOTH",
"704 0 LINE",
"734 0 LINE",
"734 336 LINE SMOOTH",
"734 466 OFFCURVE",
"664 520 OFFCURVE",
"580 520 CURVE SMOOTH",
"488 520 OFFCURVE",
"434 456 OFFCURVE",
"416 404 CURVE",
"428 410 LINE",
"406 410 LINE",
"420 400 LINE",
"402 474 OFFCURVE",
"342 520 OFFCURVE",
"270 520 CURVE SMOOTH",
"192 520 OFFCURVE",
"138 468 OFFCURVE",
"108 402 CURVE",
"120 418 LINE",
"114 418 LINE",
"114 512 LINE",
"84 512 LINE",
"84 0 LINE"
);
}
);
};
guideLines = (
{
angle = 60;
position = "{142, 358}";
}
);
layerId = "AB099EFE-E788-4EFC-8633-CF147CB782A6";
paths = (
{
closed = 1;
nodes = (
"114 0 LINE",
"114 334 LINE SMOOTH",
"114 434 OFFCURVE",
"180 492 OFFCURVE",
"256 492 CURVE SMOOTH",
"332 492 OFFCURVE",
"394 440 OFFCURVE",
"394 352 CURVE SMOOTH",
"394 0 LINE",
"424 0 LINE",
"424 352 LINE SMOOTH",
"424 440 OFFCURVE",
"492 492 OFFCURVE",
"568 492 CURVE SMOOTH",
"644 492 OFFCURVE",
"704 440 OFFCURVE",
"704 352 CURVE SMOOTH",
"704 0 LINE",
"734 0 LINE",
"734 352 LINE SMOOTH",
"734 454 OFFCURVE",
"664 520 OFFCURVE",
"570 520 CURVE SMOOTH",
"496 520 OFFCURVE",
"426 480 OFFCURVE",
"402 408 CURVE",
"420 426 LINE",
"396 426 LINE",
"414 408 LINE",
"392 480 OFFCURVE",
"334 520 OFFCURVE",
"258 520 CURVE SMOOTH",
"195 520 OFFCURVE",
"137 489 OFFCURVE",
"108 420 CURVE",
"122 438 LINE",
"114 438 LINE",
"114 512 LINE",
"84 512 LINE",
"84 0 LINE"
);
}
);
width = 814;
},
{
anchors = (
{
name = bottom;
position = "{440, 0}";
},
{
name = leghookleft;
position = "{734, 0}";
},
{
name = top;
position = "{438, 528}";
}
);
layerId = "2D8F7115-C311-411E-929D-56333CF7FFB2";
paths = (
{
closed = 1;
nodes = (
"222 0 LINE",
"222 314 LINE SMOOTH",
"222 366 OFFCURVE",
"248 394 OFFCURVE",
"288 394 CURVE SMOOTH",
"328 394 OFFCURVE",
"348 364 OFFCURVE",
"348 314 CURVE SMOOTH",
"348 0 LINE",
"522 0 LINE",
"522 314 LINE SMOOTH",
"522 366 OFFCURVE",
"548 394 OFFCURVE",
"588 394 CURVE SMOOTH",
"628 394 OFFCURVE",
"648 364 OFFCURVE",
"648 314 CURVE SMOOTH",
"648 0 LINE",
"822 0 LINE",
"822 334 LINE SMOOTH",
"822 418 OFFCURVE",
"794 536 OFFCURVE",
"652 536 CURVE SMOOTH",
"578 536 OFFCURVE",
"514 506 OFFCURVE",
"474 446 CURVE",
"496 462 LINE",
"476 462 LINE",
"492 446 LINE",
"468 504 OFFCURVE",
"422 536 OFFCURVE",
"362 536 CURVE SMOOTH",
"280 536 OFFCURVE",
"222 494 OFFCURVE",
"182 398 CURVE",
"234 460 LINE",
"212 460 LINE",
"212 528 LINE",
"48 528 LINE",
"48 0 LINE"
);
}
);
width = 866;
},
{
anchors = (
{
name = bottom;
position = "{422, 0}";
},
{
name = leghookleft;
position = "{726, 0}";
},
{
name = top;
position = "{436, 518}";
}
);
associatedMasterId = "AB099EFE-E788-4EFC-8633-CF147CB782A6";
guideLines = (
{
angle = 60;
position = "{138, 358}";
}
);
layerId = "0FA8FAA4-A251-4FF7-A946-4BEBF8338AD4";
name = "{88}";
paths = (
{
closed = 1;
nodes = (
"156 0 LINE",
"156 316 LINE SMOOTH",
"156 404 OFFCURVE",
"210 448 OFFCURVE",
"272 448 CURVE SMOOTH",
"336 448 OFFCURVE",
"380 404 OFFCURVE",
"380 320 CURVE SMOOTH",
"380 0 LINE",
"464 0 LINE",
"464 320 LINE SMOOTH",
"464 406 OFFCURVE",
"518 448 OFFCURVE",
"580 448 CURVE SMOOTH",
"644 448 OFFCURVE",
"688 404 OFFCURVE",
"688 320 CURVE SMOOTH",
"688 0 LINE",
"772 0 LINE",
"772 338 LINE SMOOTH",
"772 442 OFFCURVE",
"710 526 OFFCURVE",
"594 526 CURVE SMOOTH",
"518 526 OFFCURVE",
"448 490 OFFCURVE",
"420 418 CURVE",
"466 452 LINE",
"412 452 LINE",
"450 418 LINE",
"432 480 OFFCURVE",
"376 526 OFFCURVE",
"298 526 CURVE SMOOTH",
"222 526 OFFCURVE",
"160 482 OFFCURVE",
"136 410 CURVE",
"172 456 LINE",
"156 456 LINE",
"156 518 LINE",
"72 518 LINE",
"72 0 LINE"
);
}
);
width = 842;
}
);
leftKerningGroup = LAT_N_LC;
leftMetricsKey = n;
rightKerningGroup = LAT_N_LC;
rightMetricsKey = n;
unicode = 006D;
},
{
glyphname = n;
lastChange = "2021-01-08 01:23:22 +0000";
layers = (
{
anchors = (
{
name = bottom;
position = "{286, 0}";
},
{
name = leghookleft;
position = "{100, 0}";
},
{
name = leghookretroflex;
position = "{452, 0}";
},
{
name = top;
position = "{288, 512}";
}
);
layerId = "AB099EFE-E788-4EFC-8633-CF147CB782A6";
paths = (
{
closed = 1;
nodes = (
"114 0 LINE",
"114 326 LINE SMOOTH",
"114 414 OFFCURVE",
"188 492 OFFCURVE",
"290 492 CURVE SMOOTH",
"379 492 OFFCURVE",
"436 435 OFFCURVE",
"436 322 CURVE SMOOTH",
"436 0 LINE",
"466 0 LINE",
"466 330 LINE SMOOTH",
"466 455 OFFCURVE",
"397 520 OFFCURVE",
"290 520 CURVE SMOOTH",
"196 520 OFFCURVE",
"132 468 OFFCURVE",
"106 402 CURVE",
"128 424 LINE",
"114 424 LINE",
"114 512 LINE",
"84 512 LINE",
"84 0 LINE"
);
}
);
width = 546;
},
{
anchors = (
{
name = bottom;
position = "{294, 0}";
},
{
name = leghookleft;
position = "{134, 0}";
},
{
name = leghookretroflex;
position = "{458, 0}";
},
{
name = top;
position = "{312, 528}";
}
);
layerId = "2D8F7115-C311-411E-929D-56333CF7FFB2";
paths = (
{
closed = 1;
nodes = (
"222 0 LINE",
"222 308 LINE SMOOTH",
"222 364 OFFCURVE",
"256 394 OFFCURVE",
"300 394 CURVE SMOOTH",
"344 394 OFFCURVE",
"372 366 OFFCURVE",
"372 310 CURVE SMOOTH",
"372 0 LINE",
"546 0 LINE",
"546 348 LINE SMOOTH",
"546 464 OFFCURVE",
"478 536 OFFCURVE",
"380 536 CURVE SMOOTH",
"292 536 OFFCURVE",
"212 488 OFFCURVE",
"194 398 CURVE",
"240 458 LINE",
"216 458 LINE",
"216 528 LINE",
"48 528 LINE",
"48 0 LINE"
);
}
);
width = 590;
},
{
anchors = (
{
name = bottom;
position = "{288, 0}";
},
{
name = leghookleft;
position = "{114, 0}";
},
{
name = leghookretroflex;
position = "{454, 0}";
},
{
name = top;
position = "{302, 518}";
}
);
associatedMasterId = "AB099EFE-E788-4EFC-8633-CF147CB782A6";
layerId = "884E0762-5DF7-42EB-AF56-C711D37DCD64";
name = "{88}";
paths = (
{
closed = 1;
nodes = (
"156 0 LINE",
"156 314 LINE SMOOTH",
"156 400 OFFCURVE",
"216 448 OFFCURVE",
"292 448 CURVE SMOOTH",
"368 448 OFFCURVE",
"414 402 OFFCURVE",
"414 314 CURVE SMOOTH",
"414 0 LINE",
"498 0 LINE",
"498 332 LINE SMOOTH",
"498 426 OFFCURVE",
"446 526 OFFCURVE",
"316 526 CURVE SMOOTH",
"234 526 OFFCURVE",
"166 488 OFFCURVE",
"140 418 CURVE",
"176 454 LINE",
"156 454 LINE",
"156 518 LINE",
"72 518 LINE",
"72 0 LINE"
);
}
);
width = 568;
},
{
anchors = (
{
name = bottom;
position = "{296, 0}";
},
{
name = leghookleft;
position = "{130, 0}";
},
{
name = leghookretroflex;
position = "{462, 0}";
},
{
name = top;
position = "{312, 524}";
}
);
associatedMasterId = "AB099EFE-E788-4EFC-8633-CF147CB782A6";
layerId = "F3CDA97A-5939-4999-94BA-ABB8D23516F0";
name = "{140}";
paths = (
{
closed = 1;
nodes = (
"198 0 LINE",
"198 312 LINE SMOOTH",
"198 380 OFFCURVE",
"243 417 OFFCURVE",
"302 418 CURVE SMOOTH",
"359 417 OFFCURVE",
"395 382 OFFCURVE",
"396 312 CURVE SMOOTH",
"396 0 LINE",
"530 0 LINE",
"530 342 LINE SMOOTH",
"530 447 OFFCURVE",
"469 532 OFFCURVE",
"358 532 CURVE SMOOTH",
"271 532 OFFCURVE",
"197 488 OFFCURVE",
"176 408 CURVE",
"218 456 LINE",
"194 456 LINE",
"194 524 LINE",
"64 524 LINE",
"64 0 LINE"
);
}
);
width = 590;
}
);
leftKerningGroup = LAT_N_LC;
rightKerningGroup = LAT_N_LC;
unicode = 006E;
},
{
glyphname = o;
lastChange = "2021-01-08 06:54:24 +0000";
layers = (
{
anchors = (
{
name = bottom;
position = "{306, 0}";
},
{
name = center;
position = "{306, 256}";
},
{
name = horn;
position = "{418, 494}";
},
{
name = ogonek;
position = "{368, 0}";
},
{
name = top;
position = "{306, 512}";
},
{
name = topright;
position = "{592, 512}";
}
);
layerId = "AB099EFE-E788-4EFC-8633-CF147CB782A6";
paths = (
{
closed = 1;
nodes = (
"450 -8 OFFCURVE",
"552 106 OFFCURVE",
"552 256 CURVE SMOOTH",
"552 410 OFFCURVE",
"450 520 OFFCURVE",
"304 520 CURVE SMOOTH",
"158 520 OFFCURVE",
"56 410 OFFCURVE",
"56 256 CURVE SMOOTH",
"56 106 OFFCURVE",
"158 -8 OFFCURVE",
"304 -8 CURVE SMOOTH"
);
},
{
closed = 1;
nodes = (
"180 22 OFFCURVE",
"86 118 OFFCURVE",
"86 256 CURVE SMOOTH",
"86 396 OFFCURVE",
"180 492 OFFCURVE",
"304 492 CURVE SMOOTH",
"432 492 OFFCURVE",
"522 396 OFFCURVE",
"522 256 CURVE SMOOTH",
"522 118 OFFCURVE",
"432 22 OFFCURVE",
"304 20 CURVE SMOOTH"
);
}
);
width = 608;
},
{
anchors = (
{
name = bottom;
position = "{296, 0}";
},
{
name = center;
position = "{296, 258}";
},
{
name = horn;
position = "{418, 496}";
},
{
name = ogonek;
position = "{362, 0}";
},
{
name = top;
position = "{296, 518}";
},
{
name = topright;
position = "{574, 518}";
}
);
associatedMasterId = "AB099EFE-E788-4EFC-8633-CF147CB782A6";
layerId = "847D73E2-D20D-4777-807C-C993B272D968";
name = "{88}";
paths = (
{
closed = 1;
nodes = (
"440 -8 OFFCURVE",
"548 102 OFFCURVE",
"548 262 CURVE SMOOTH",
"548 418 OFFCURVE",
"441 526 OFFCURVE",
"296 526 CURVE SMOOTH",
"150 526 OFFCURVE",
"43 418 OFFCURVE",
"44 262 CURVE SMOOTH",
"43 102 OFFCURVE",
"150 -8 OFFCURVE",
"296 -8 CURVE SMOOTH"
);
},
{
closed = 1;
nodes = (
"198 71 OFFCURVE",
"129 146 OFFCURVE",
"130 262 CURVE SMOOTH",
"129 374 OFFCURVE",
"199 448 OFFCURVE",
"296 448 CURVE SMOOTH",
"392 448 OFFCURVE",
"462 374 OFFCURVE",
"462 262 CURVE SMOOTH",
"462 146 OFFCURVE",
"392 71 OFFCURVE",
"296 70 CURVE SMOOTH"
);
}
);
width = 592;
},
{
anchors = (
{
name = bottom;
position = "{304, 0}";
},
{
name = center;
position = "{304, 264}";
},
{
name = horn;
position = "{454, 496}";
},
{
name = ogonek;
position = "{374, 0}";
},
{
name = top;
position = "{304, 528}";
},
{
name = topright;
position = "{586, 528}";
}
);
layerId = "2D8F7115-C311-411E-929D-56333CF7FFB2";
paths = (
{
closed = 1;
nodes = (
"460 -8 OFFCURVE",
"584 104 OFFCURVE",
"584 264 CURVE SMOOTH",
"584 424 OFFCURVE",
"460 536 OFFCURVE",
"304 536 CURVE SMOOTH",
"150 536 OFFCURVE",
"26 424 OFFCURVE",
"24 264 CURVE SMOOTH",
"26 104 OFFCURVE",
"150 -8 OFFCURVE",
"304 -8 CURVE SMOOTH"
);
},
{
closed = 1;
nodes = (
"239 136 OFFCURVE",
"188 189 OFFCURVE",
"188 264 CURVE SMOOTH",
"188 338 OFFCURVE",
"239 390 OFFCURVE",
"304 390 CURVE SMOOTH",
"369 390 OFFCURVE",
"420 338 OFFCURVE",
"420 264 CURVE SMOOTH",
"420 189 OFFCURVE",
"369 136 OFFCURVE",
"304 136 CURVE SMOOTH"
);
}
);
width = 608;
}
);
leftKerningGroup = LAT_O_LC;
rightKerningGroup = LAT_O_LC;
unicode = 006F;
},
{
color = 4;
glyphname = o.ss01;
lastChange = "2021-01-08 00:48:56 +0000";
layers = (
{
anchors = (
{
name = bottom;
position = "{306, 0}";
},
{
name = center;
position = "{306, 256}";
},
{
name = horn;
position = "{420, 494}";
},
{
name = ogonek;
position = "{358, 0}";
},
{
name = top;
position = "{306, 512}";
},
{
name = topright;
position = "{602, 512}";
}
);
layerId = "AB099EFE-E788-4EFC-8633-CF147CB782A6";
paths = (
{
closed = 1;
nodes = (
"448 -8 OFFCURVE",
"564 110 OFFCURVE",
"564 258 CURVE SMOOTH",
"564 404 OFFCURVE",
"448 520 OFFCURVE",
"306 520 CURVE SMOOTH",
"164 520 OFFCURVE",
"48 404 OFFCURVE",
"48 258 CURVE SMOOTH",
"48 110 OFFCURVE",
"164 -8 OFFCURVE",
"306 -8 CURVE SMOOTH"
);
},
{
closed = 1;
nodes = (
"180 20 OFFCURVE",
"78 128 OFFCURVE",
"78 258 CURVE SMOOTH",
"78 388 OFFCURVE",
"180 492 OFFCURVE",
"306 492 CURVE SMOOTH",
"432 492 OFFCURVE",
"534 388 OFFCURVE",
"534 258 CURVE SMOOTH",
"534 126 OFFCURVE",
"432 20 OFFCURVE",
"306 20 CURVE SMOOTH"
);
}
);
width = 612;
},
{
anchors = (
{
name = bottom;
position = "{306, 0}";
},
{
name = center;
position = "{306, 260}";
},
{
name = horn;
position = "{428, 496}";
},
{
name = ogonek;
position = "{360, 0}";
},
{
name = top;
position = "{306, 518}";
},
{
name = topright;
position = "{602, 518}";
}
);
associatedMasterId = "AB099EFE-E788-4EFC-8633-CF147CB782A6";
layerId = "894D9CFF-1C2D-485E-98D4-EA060EB0BB91";
name = "{88}";
paths = (
{
closed = 1;
nodes = (
"452 -8 OFFCURVE",
"572 112 OFFCURVE",
"572 262 CURVE SMOOTH",
"572 410 OFFCURVE",
"452 526 OFFCURVE",
"306 526 CURVE SMOOTH",
"156 526 OFFCURVE",
"40 410 OFFCURVE",
"40 262 CURVE SMOOTH",
"40 112 OFFCURVE",
"156 -8 OFFCURVE",
"306 -8 CURVE SMOOTH"
);
},
{
closed = 1;
nodes = (
"202 70 OFFCURVE",
"124 156 OFFCURVE",
"124 262 CURVE SMOOTH",
"124 366 OFFCURVE",
"202 448 OFFCURVE",
"306 448 CURVE SMOOTH",
"406 448 OFFCURVE",
"488 368 OFFCURVE",
"488 264 CURVE SMOOTH",
"488 156 OFFCURVE",
"406 70 OFFCURVE",
"306 70 CURVE SMOOTH"
);
}
);
width = 612;
},
{
anchors = (
{
name = bottom;
position = "{296, 0}";
},
{
name = center;
position = "{294, 264}";
},
{
name = horn;
position = "{444, 496}";
},
{
name = ogonek;
position = "{356, 0}";
},
{
name = top;
position = "{298, 528}";
},
{
name = topright;
position = "{592, 528}";
}
);
layerId = "2D8F7115-C311-411E-929D-56333CF7FFB2";
paths = (
{
closed = 1;
nodes = (
"452 -8 OFFCURVE",
"576 112 OFFCURVE",
"576 264 CURVE SMOOTH",
"576 416 OFFCURVE",
"452 536 OFFCURVE",
"296 536 CURVE SMOOTH",
"140 536 OFFCURVE",
"16 416 OFFCURVE",
"16 264 CURVE SMOOTH",
"16 112 OFFCURVE",
"140 -8 OFFCURVE",
"296 -8 CURVE SMOOTH"
);
},
{
closed = 1;
nodes = (
"232 140 OFFCURVE",
"180 194 OFFCURVE",
"180 264 CURVE SMOOTH",
"180 334 OFFCURVE",
"232 388 OFFCURVE",
"296 388 CURVE SMOOTH",
"360 388 OFFCURVE",
"412 336 OFFCURVE",
"412 266 CURVE SMOOTH",
"412 196 OFFCURVE",
"362 140 OFFCURVE",
"296 140 CURVE SMOOTH"
);
}
);
width = 592;
}
);
leftKerningGroup = LAT_O_LC;
rightKerningGroup = LAT_O_LC;
},
{
glyphname = oe;
lastChange = "2021-01-08 05:32:17 +0000";
layers = (
{
anchors = (
{
name = top;
position = "{524, 550}";
}
);
layerId = "AB099EFE-E788-4EFC-8633-CF147CB782A6";
paths = (
{
closed = 1;
nodes = (
"418 -8 OFFCURVE",
"510 106 OFFCURVE",
"510 256 CURVE SMOOTH",
"510 408 OFFCURVE",
"418 522 OFFCURVE",
"288 522 CURVE SMOOTH",
"156 522 OFFCURVE",
"56 408 OFFCURVE",
"56 256 CURVE SMOOTH",
"56 106 OFFCURVE",
"156 -8 OFFCURVE",
"288 -8 CURVE SMOOTH"
);
},
{
closed = 1;
nodes = (
"174 20 OFFCURVE",
"86 120 OFFCURVE",
"86 256 CURVE SMOOTH",
"86 396 OFFCURVE",
"178 494 OFFCURVE",
"288 494 CURVE SMOOTH",
"400 494 OFFCURVE",
"480 392 OFFCURVE",
"480 256 CURVE SMOOTH",
"480 122 OFFCURVE",
"400 20 OFFCURVE",
"286 20 CURVE SMOOTH"
);
},
{
closed = 1;
nodes = (
"770 -8 OFFCURVE",
"826 18 OFFCURVE",
"868 58 CURVE",
"856 90 LINE",
"822 52 OFFCURVE",
"762 20 OFFCURVE",
"700 20 CURVE SMOOTH",
"588 20 OFFCURVE",
"510 120 OFFCURVE",
"512 258 CURVE SMOOTH",
"514 394 OFFCURVE",
"590 492 OFFCURVE",
"696 492 CURVE SMOOTH",
"798 492 OFFCURVE",
"868 402 OFFCURVE",
"866 274 CURVE",
"504 274 LINE",
"504 246 LINE",
"896 246 LINE",
"898 260 OFFCURVE",
"898 270 OFFCURVE",
"898 276 CURVE SMOOTH",
"898 420 OFFCURVE",
"816 520 OFFCURVE",
"694 520 CURVE SMOOTH",
"572 520 OFFCURVE",
"482 414 OFFCURVE",
"482 254 CURVE SMOOTH",
"482 102 OFFCURVE",
"568 -8 OFFCURVE",
"704 -8 CURVE SMOOTH"
);
}
);
width = 952;
},
{
anchors = (
{
name = top;
position = "{468, 572}";
}
);
layerId = "2D8F7115-C311-411E-929D-56333CF7FFB2";
paths = (
{
closed = 1;
nodes = (
"436 -8 OFFCURVE",
"538 128 OFFCURVE",
"538 264 CURVE SMOOTH",
"538 398 OFFCURVE",
"436 536 OFFCURVE",
"284 536 CURVE SMOOTH",
"142 536 OFFCURVE",
"24 422 OFFCURVE",
"24 266 CURVE SMOOTH",
"24 110 OFFCURVE",
"142 -8 OFFCURVE",
"284 -8 CURVE SMOOTH"
);
},
{
closed = 1;
nodes = (
"226 134 OFFCURVE",
"184 186 OFFCURVE",
"184 264 CURVE SMOOTH",
"184 342 OFFCURVE",
"226 392 OFFCURVE",
"290 392 CURVE SMOOTH",
"352 392 OFFCURVE",
"394 342 OFFCURVE",
"394 264 CURVE SMOOTH",
"394 186 OFFCURVE",
"352 134 OFFCURVE",
"290 134 CURVE SMOOTH"
);
},
{
closed = 1;
nodes = (
"728 -8 OFFCURVE",
"798 8 OFFCURVE",
"832 32 CURVE",
"782 158 LINE",
"748 134 OFFCURVE",
"712 124 OFFCURVE",
"674 124 CURVE SMOOTH",
"618 124 OFFCURVE",
"530 146 OFFCURVE",
"530 272 CURVE SMOOTH",
"530 382 OFFCURVE",
"596 414 OFFCURVE",
"640 414 CURVE SMOOTH",
"700 414 OFFCURVE",
"738 370 OFFCURVE",
"738 312 CURVE",
"516 312 LINE",
"516 212 LINE",
"878 212 LINE",
"882 232 OFFCURVE",
"884 258 OFFCURVE",
"884 280 CURVE SMOOTH",
"884 470 OFFCURVE",
"756 536 OFFCURVE",
"654 536 CURVE SMOOTH",
"518 536 OFFCURVE",
"402 422 OFFCURVE",
"402 260 CURVE SMOOTH",
"402 104 OFFCURVE",
"508 -8 OFFCURVE",
"662 -8 CURVE SMOOTH"
);
}
);
width = 908;
},
{
anchors = (
{
name = top;
position = "{502, 556}";
}
);
associatedMasterId = "AB099EFE-E788-4EFC-8633-CF147CB782A6";
layerId = "4D1F9A81-61C5-4974-8815-69BBAC70B3C9";
name = "{88}";
paths = (
{
closed = 1;
nodes = (
"422 -8 OFFCURVE",
"520 106 OFFCURVE",
"520 260 CURVE SMOOTH",
"520 414 OFFCURVE",
"416 528 OFFCURVE",
"282 528 CURVE SMOOTH",
"150 528 OFFCURVE",
"44 416 OFFCURVE",
"44 262 CURVE SMOOTH",
"44 116 OFFCURVE",
"148 -8 OFFCURVE",
"286 -8 CURVE SMOOTH"
);
},
{
closed = 1;
nodes = (
"192 70 OFFCURVE",
"126 146 OFFCURVE",
"126 260 CURVE SMOOTH",
"126 372 OFFCURVE",
"192 450 OFFCURVE",
"286 450 CURVE SMOOTH",
"378 450 OFFCURVE",
"446 372 OFFCURVE",
"446 256 CURVE SMOOTH",
"446 144 OFFCURVE",
"384 70 OFFCURVE",
"288 70 CURVE SMOOTH"
);
},
{
closed = 1;
nodes = (
"756 -8 OFFCURVE",
"820 14 OFFCURVE",
"858 50 CURVE",
"826 126 LINE",
"790 90 OFFCURVE",
"746 70 OFFCURVE",
"692 70 CURVE SMOOTH",
"586 70 OFFCURVE",
"524 144 OFFCURVE",
"524 260 CURVE SMOOTH",
"524 376 OFFCURVE",
"586 448 OFFCURVE",
"674 448 CURVE SMOOTH",
"760 448 OFFCURVE",
"810 384 OFFCURVE",
"810 298 CURVE",
"506 298 LINE",
"506 226 LINE",
"884 226 LINE",
"886 238 OFFCURVE",
"888 266 OFFCURVE",
"888 286 CURVE SMOOTH",
"888 430 OFFCURVE",
"796 526 OFFCURVE",
"674 526 CURVE SMOOTH",
"548 526 OFFCURVE",
"452 422 OFFCURVE",
"452 262 CURVE SMOOTH",
"452 110 OFFCURVE",
"540 -8 OFFCURVE",
"690 -8 CURVE SMOOTH"
);
}
);
width = 932;
}
);
leftKerningGroup = LAT_O_LC;
leftMetricsKey = o;
rightKerningGroup = LAT_E_LC;
rightMetricsKey = e;
unicode = 0153;
},
{
glyphname = p;
lastChange = "2021-01-08 01:36:39 +0000";
layers = (
{
anchors = (
{
name = bottom;
position = "{100, -206}";
},
{
name = top;
position = "{300, 512}";
}
);
components = (
{
name = _part.bowl;
}
);
layerId = "AB099EFE-E788-4EFC-8633-CF147CB782A6";
paths = (
{
closed = 1;
nodes = (
"114 108 LINE",
"126 108 LINE",
"110 160 LINE",
"110 366 LINE",
"130 408 LINE",
"114 408 LINE",
"114 512 LINE",
"84 512 LINE",
"84 -206 LINE",
"114 -206 LINE"
);
}
);
width = 588;
},
{
anchors = (
{
name = bottom;
position = "{136, -206}";
},
{
name = top;
position = "{316, 528}";
}
);
components = (
{
name = _part.bowl;
transform = "{1, 0, 0, 1, -12, 0}";
}
);
layerId = "2D8F7115-C311-411E-929D-56333CF7FFB2";
paths = (
{
closed = 1;
nodes = (
"224 44 LINE",
"250 44 LINE",
"212 104 LINE",
"212 424 LINE",
"236 482 LINE",
"214 482 LINE",
"214 528 LINE",
"50 528 LINE",
"50 -206 LINE",
"224 -206 LINE"
);
}
);
width = 618;
},
{
anchors = (
{
name = bottom;
position = "{118, -206}";
},
{
name = top;
position = "{312, 518}";
}
);
associatedMasterId = "AB099EFE-E788-4EFC-8633-CF147CB782A6";
components = (
{
alignment = -1;
name = _part.bowl;
transform = "{1, 0, 0, 1, -4, 0}";
}
);
layerId = "72B01880-8C99-4D45-916B-5154C286C52B";
name = "{88}";
paths = (
{
closed = 1;
nodes = (
"156 70 LINE",
"172 70 LINE",
"142 130 LINE",
"142 402 LINE",
"168 450 LINE",
"156 450 LINE",
"156 518 LINE",
"72 518 LINE",
"72 -206 LINE",
"156 -206 LINE"
);
}
);
width = 600;
}
);
leftKerningGroup = LAT_P_LC;
rightKerningGroup = LAT_O_LC;
rightMetricsKey = o;
unicode = 0070;
},
{
color = 4;
glyphname = p.ss01;
lastChange = "2021-01-08 01:36:39 +0000";
layers = (
{
anchors = (
{
name = bottom;
position = "{100, -206}";
},
{
name = top;
position = "{300, 512}";
}
);
components = (
{
name = _part.bowl.ss01;
transform = "{1, 0, 0, 1, -2, 0}";
}
);
layerId = "AB099EFE-E788-4EFC-8633-CF147CB782A6";
paths = (
{
closed = 1;
nodes = (
"114 -206 LINE",
"114 118 LINE",
"120 118 LINE",
"112 148 LINE",
"112 380 LINE",
"124 396 LINE",
"114 396 LINE",
"114 512 LINE",
"84 512 LINE",
"84 -206 LINE"
);
}
);
width = 622;
},
{
anchors = (
{
name = bottom;
position = "{136, -206}";
},
{
name = top;
position = "{316, 528}";
}
);
components = (
{
name = _part.bowl.ss01;
transform = "{1, 0, 0, 1, -12, 0}";
}
);
layerId = "2D8F7115-C311-411E-929D-56333CF7FFB2";
paths = (
{
closed = 1;
nodes = (
"224 -208 LINE",
"224 52 LINE",
"236 52 LINE",
"214 104 LINE",
"214 424 LINE",
"236 470 LINE",
"214 470 LINE",
"214 528 LINE",
"50 528 LINE",
"50 -206 LINE"
);
}
);
width = 636;
},
{
anchors = (
{
name = bottom;
position = "{118, -206}";
},
{
name = top;
position = "{314, 518}";
}
);
associatedMasterId = "AB099EFE-E788-4EFC-8633-CF147CB782A6";
components = (
{
alignment = -1;
name = _part.bowl.ss01;
transform = "{1, 0, 0, 1, -4, 0}";
}
);
layerId = "8052E6E9-0DE8-4A72-8E5F-49FF1AF157DD";
name = "{88}";
paths = (
{
closed = 1;
nodes = (
"158 -206 LINE",
"158 72 LINE",
"170 72 LINE",
"152 134 LINE",
"152 408 LINE",
"166 444 LINE",
"156 444 LINE",
"156 518 LINE",
"72 518 LINE",
"72 -206 LINE"
);
}
);
width = 632;
}
);
leftKerningGroup = LAT_P_LC;
rightKerningGroup = LAT_O_LC;
rightMetricsKey = o;
},
{
glyphname = thorn;
lastChange = "2021-01-08 01:36:39 +0000";
layers = (
{
anchors = (
{
name = bottom;
position = "{308, -2}";
},
{
name = top;
position = "{100, 752}";
}
);
components = (
{
name = _part.bowl;
}
);
layerId = "AB099EFE-E788-4EFC-8633-CF147CB782A6";
paths = (
{
closed = 1;
nodes = (
"114 108 LINE",
"128 108 LINE",
"110 160 LINE",
"110 366 LINE",
"126 408 LINE",
"114 408 LINE",
"114 752 LINE",
"84 752 LINE",
"84 -206 LINE",
"114 -206 LINE"
);
}
);
width = 588;
},
{
anchors = (
{
name = bottom;
position = "{358, 0}";
},
{
name = top;
position = "{132, 752}";
}
);
components = (
{
name = _part.bowl;
transform = "{1, 0, 0, 1, -12, 0}";
}
);
layerId = "2D8F7115-C311-411E-929D-56333CF7FFB2";
paths = (
{
closed = 1;
nodes = (
"222 46 LINE",
"248 46 LINE",
"210 104 LINE",
"210 424 LINE",
"234 488 LINE",
"222 488 LINE",
"222 752 LINE",
"48 752 LINE",
"48 -206 LINE",
"222 -206 LINE"
);
}
);
width = 618;
},
{
anchors = (
{
name = bottom;
position = "{328, 0}";
},
{
name = top;
position = "{114, 740}";
}
);
associatedMasterId = "AB099EFE-E788-4EFC-8633-CF147CB782A6";
components = (
{
alignment = -1;
name = _part.bowl;
transform = "{1, 0, 0, 1, -4, 0}";
}
);
layerId = "BFAB46FD-77AB-4841-9D04-A9294A19A645";
name = "{88}";
paths = (
{
closed = 1;
nodes = (
"156 70 LINE",
"170 70 LINE",
"142 130 LINE",
"142 382 LINE",
"168 450 LINE",
"156 450 LINE",
"156 752 LINE",
"72 752 LINE",
"72 -206 LINE",
"156 -206 LINE"
);
}
);
width = 600;
}
);
leftKerningGroup = LAT_L_LC;
leftMetricsKey = h;
rightKerningGroup = LAT_O_LC;
rightMetricsKey = p;
unicode = 00FE;
},
{
color = 4;
glyphname = thorn.ss01;
lastChange = "2021-01-08 01:36:39 +0000";
layers = (
{
anchors = (
{
name = bottom;
position = "{326, 0}";
},
{
name = top;
position = "{100, 752}";
}
);
components = (
{
name = _part.bowl.ss01;
transform = "{1, 0, 0, 1, -2, 0}";
}
);
layerId = "AB099EFE-E788-4EFC-8633-CF147CB782A6";
paths = (
{
closed = 1;
nodes = (
"114 118 LINE",
"120 118 LINE",
"112 160 LINE",
"112 376 LINE",
"120 396 LINE",
"114 396 LINE",
"114 752 LINE",
"84 752 LINE",
"84 -206 LINE",
"114 -206 LINE"
);
}
);
width = 622;
},
{
anchors = (
{
name = bottom;
position = "{378, 0}";
},
{
name = top;
position = "{130, 752}";
}
);
components = (
{
name = _part.bowl.ss01;
transform = "{1, 0, 0, 1, -14, 0}";
}
);
layerId = "2D8F7115-C311-411E-929D-56333CF7FFB2";
paths = (
{
closed = 1;
nodes = (
"222 52 LINE",
"248 52 LINE",
"214 104 LINE",
"214 410 LINE",
"234 468 LINE",
"212 468 LINE",
"212 752 LINE",
"48 752 LINE",
"48 -206 LINE",
"222 -206 LINE"
);
}
);
width = 634;
},
{
anchors = (
{
name = bottom;
position = "{344, 0}";
},
{
name = top;
position = "{114, 740}";
}
);
associatedMasterId = "AB099EFE-E788-4EFC-8633-CF147CB782A6";
components = (
{
alignment = -1;
name = _part.bowl.ss01;
transform = "{1, 0, 0, 1, -6, 0}";
}
);
layerId = "498D7586-7692-4A96-AF46-89C4DEF17342";
name = "{88}";
paths = (
{
closed = 1;
nodes = (
"156 70 LINE",
"170 70 LINE",
"146 110 LINE",
"146 402 LINE",
"168 446 LINE",
"156 446 LINE",
"156 752 LINE",
"72 752 LINE",
"72 -206 LINE",
"156 -206 LINE"
);
}
);
width = 630;
}
);
leftKerningGroup = LAT_L_LC;
leftMetricsKey = h;
rightKerningGroup = LAT_O_LC;
rightMetricsKey = p;
},
{
glyphname = q;
lastChange = "2021-01-08 01:36:39 +0000";
layers = (
{
anchors = (
{
name = bottom;
position = "{488, -206}";
},
{
name = top;
position = "{278, 512}";
}
);
components = (
{
name = _part.bowl;
transform = "{-1, 0, 0, 1, 588, 0}";
}
);
layerId = "AB099EFE-E788-4EFC-8633-CF147CB782A6";
paths = (
{
closed = 1;
nodes = (
"548 -186 LINE",
"517 -170 OFFCURVE",
"502 -138 OFFCURVE",
"502 -92 CURVE SMOOTH",
"502 512 LINE",
"472 512 LINE",
"472 408 LINE",
"460 408 LINE",
"476 382 LINE",
"476 144 LINE",
"464 108 LINE",
"472 108 LINE",
"472 -96 LINE SMOOTH",
"472 -158 OFFCURVE",
"490 -188 OFFCURVE",
"536 -214 CURVE"
);
}
);
width = 590;
},
{
anchors = (
{
name = bottom;
position = "{482, -206}";
},
{
name = top;
position = "{266, 528}";
}
);
components = (
{
name = _part.bowl;
transform = "{-1, 0, 0, 1, 630, 0}";
}
);
layerId = "2D8F7115-C311-411E-929D-56333CF7FFB2";
paths = (
{
closed = 1;
nodes = (
"610 -72 LINE",
"580 -62 OFFCURVE",
"568 -51 OFFCURVE",
"568 -14 CURVE SMOOTH",
"568 528 LINE",
"404 528 LINE",
"404 482 LINE",
"388 482 LINE",
"404 418 LINE",
"404 84 LINE",
"370 44 LINE",
"394 44 LINE",
"394 -30 LINE SMOOTH",
"394 -118 OFFCURVE",
"447 -176 OFFCURVE",
"550 -214 CURVE"
);
}
);
width = 618;
},
{
anchors = (
{
name = bottom;
position = "{494, -206}";
},
{
name = top;
position = "{278, 518}";
}
);
associatedMasterId = "AB099EFE-E788-4EFC-8633-CF147CB782A6";
components = (
{
alignment = -1;
name = _part.bowl;
transform = "{-1, 0, 0, 1, 604, 0}";
}
);
layerId = "BDBCB6FE-EDB5-4B42-9CE9-E7FBE935B17E";
name = "{88}";
paths = (
{
closed = 1;
nodes = (
"570 -140 LINE",
"534 -124 OFFCURVE",
"530 -108 OFFCURVE",
"530 -48 CURVE SMOOTH",
"530 518 LINE",
"446 518 LINE",
"446 448 LINE",
"426 448 LINE",
"456 398 LINE",
"456 114 LINE",
"432 70 LINE",
"446 70 LINE",
"446 -74 LINE SMOOTH",
"446 -144 OFFCURVE",
"474 -185 OFFCURVE",
"540 -214 CURVE"
);
}
);
width = 606;
}
);
leftKerningGroup = LAT_O_LC;
leftMetricsKey = o;
rightKerningGroup = LAT_Q_LC;
unicode = 0071;
},
{
glyphname = r;
lastChange = "2021-01-08 01:26:10 +0000";
layers = (
{
anchors = (
{
name = bottom;
position = "{100, 0}";
},
{
name = top;
position = "{188, 512}";
}
);
guideLines = (
{
angle = 67.5;
position = "{30, -200}";
}
);
layerId = "AB099EFE-E788-4EFC-8633-CF147CB782A6";
paths = (
{
closed = 1;
nodes = (
"114 0 LINE",
"114 314 LINE SMOOTH",
"114 418 OFFCURVE",
"214 492 OFFCURVE",
"282 492 CURVE SMOOTH",
"294 492 OFFCURVE",
"302 490 OFFCURVE",
"314 486 CURVE",
"326 514 LINE",
"314 518 OFFCURVE",
"298 520 OFFCURVE",
"286 520 CURVE SMOOTH",
"216 520 OFFCURVE",
"144 470 OFFCURVE",
"106 396 CURVE",
"126 416 LINE",
"114 416 LINE",
"114 512 LINE",
"84 512 LINE",
"84 0 LINE"
);
}
);
width = 342;
},
{
anchors = (
{
name = bottom;
position = "{136, 0}";
},
{
name = top;
position = "{216, 528}";
}
);
guideLines = (
{
angle = 67.5;
position = "{108, -200}";
}
);
layerId = "2D8F7115-C311-411E-929D-56333CF7FFB2";
paths = (
{
closed = 1;
nodes = (
"222 0 LINE",
"222 264 LINE SMOOTH",
"222 338 OFFCURVE",
"276 368 OFFCURVE",
"322 368 CURVE SMOOTH",
"344 368 OFFCURVE",
"362 362 OFFCURVE",
"370 358 CURVE",
"440 524 LINE",
"430 530 OFFCURVE",
"406 536 OFFCURVE",
"378 536 CURVE SMOOTH",
"276 536 OFFCURVE",
"216 462 OFFCURVE",
"194 418 CURVE",
"232 456 LINE",
"216 456 LINE",
"216 528 LINE",
"48 528 LINE",
"48 0 LINE"
);
}
);
width = 432;
},
{
anchors = (
{
name = bottom;
position = "{114, 0}";
},
{
name = top;
position = "{200, 518}";
}
);
associatedMasterId = "AB099EFE-E788-4EFC-8633-CF147CB782A6";
guideLines = (
{
angle = 67.5;
position = "{72, -200}";
}
);
layerId = "4CEC5F73-1471-4852-9EBC-CEF451941A2E";
name = "{88}";
paths = (
{
closed = 1;
nodes = (
"156 0 LINE",
"156 296 LINE SMOOTH",
"156 388 OFFCURVE",
"238 442 OFFCURVE",
"298 442 CURVE SMOOTH",
"314 442 OFFCURVE",
"330 440 OFFCURVE",
"334 438 CURVE",
"368 520 LINE",
"360 522 OFFCURVE",
"338 526 OFFCURVE",
"316 526 CURVE SMOOTH",
"228 526 OFFCURVE",
"170 470 OFFCURVE",
"142 406 CURVE",
"170 438 LINE",
"156 438 LINE",
"156 518 LINE",
"72 518 LINE",
"72 0 LINE"
);
}
);
width = 376;
}
);
leftKerningGroup = LAT_N_LC;
leftMetricsKey = n;
rightKerningGroup = LAT_R_LC;
unicode = 0072;
},
{
glyphname = s;
lastChange = "2021-01-08 05:32:30 +0000";
layers = (
{
anchors = (
{
name = bottom;
position = "{216, 0}";
},
{
name = cedilla;
position = "{220, 0}";
},
{
name = top;
position = "{214, 512}";
}
);
layerId = "AB099EFE-E788-4EFC-8633-CF147CB782A6";
paths = (
{
closed = 1;
nodes = (
"310 -8 OFFCURVE",
"376 50 OFFCURVE",
"376 132 CURVE SMOOTH",
"376 234 OFFCURVE",
"280 262 OFFCURVE",
"218 282 CURVE SMOOTH",
"174 296 OFFCURVE",
"102 322 OFFCURVE",
"100 392 CURVE SMOOTH",
"98 448 OFFCURVE",
"142 492 OFFCURVE",
"208 492 CURVE SMOOTH",
"264 492 OFFCURVE",
"310 460 OFFCURVE",
"330 420 CURVE",
"358 432 LINE",
"334 482 OFFCURVE",
"278 520 OFFCURVE",
"210 520 CURVE SMOOTH",
"132 520 OFFCURVE",
"70 470 OFFCURVE",
"70 396 CURVE SMOOTH",
"70 310 OFFCURVE",
"158 270 OFFCURVE",
"214 254 CURVE SMOOTH",
"256 242 OFFCURVE",
"346 216 OFFCURVE",
"346 134 CURVE SMOOTH",
"346 66 OFFCURVE",
"290 20 OFFCURVE",
"222 20 CURVE SMOOTH",
"156 20 OFFCURVE",
"106 64 OFFCURVE",
"86 114 CURVE",
"56 102 LINE",
"78 46 OFFCURVE",
"138 -8 OFFCURVE",
"222 -8 CURVE SMOOTH"
);
}
);
width = 432;
},
{
anchors = (
{
name = bottom;
position = "{218, 0}";
},
{
name = cedilla;
position = "{222, 0}";
},
{
name = top;
position = "{216, 518}";
}
);
associatedMasterId = "AB099EFE-E788-4EFC-8633-CF147CB782A6";
guideLines = (
{
angle = 22.5;
position = "{80, 296}";
}
);
layerId = "3776DB26-7760-492E-8786-63C554B21AA1";
name = "{68}";
paths = (
{
closed = 1;
nodes = (
"310 -8 OFFCURVE",
"390 54 OFFCURVE",
"390 140 CURVE SMOOTH",
"390 240 OFFCURVE",
"288 274 OFFCURVE",
"236 290 CURVE SMOOTH",
"192 304 OFFCURVE",
"124 328 OFFCURVE",
"124 390 CURVE SMOOTH",
"124 434 OFFCURVE",
"166 464 OFFCURVE",
"214 464 CURVE SMOOTH",
"256 464 OFFCURVE",
"296 436 OFFCURVE",
"314 392 CURVE",
"372 416 LINE",
"348 476 OFFCURVE",
"284 524 OFFCURVE",
"210 524 CURVE SMOOTH",
"132 524 OFFCURVE",
"62 468 OFFCURVE",
"62 390 CURVE SMOOTH",
"62 304 OFFCURVE",
"140 262 OFFCURVE",
"198 244 CURVE SMOOTH",
"254 226 OFFCURVE",
"328 202 OFFCURVE",
"328 142 CURVE SMOOTH",
"328 84 OFFCURVE",
"272 52 OFFCURVE",
"224 52 CURVE SMOOTH",
"166 52 OFFCURVE",
"122 96 OFFCURVE",
"108 136 CURVE",
"48 110 LINE",
"68 52 OFFCURVE",
"134 -8 OFFCURVE",
"222 -8 CURVE SMOOTH"
);
}
);
width = 438;
},
{
anchors = (
{
name = bottom;
position = "{222, 0}";
},
{
name = cedilla;
position = "{228, 0}";
},
{
name = top;
position = "{222, 520}";
}
);
associatedMasterId = "AB099EFE-E788-4EFC-8633-CF147CB782A6";
guideLines = (
{
angle = 22.5;
position = "{80, 296}";
}
);
layerId = "941C535A-6DDC-4907-84C9-FC6A182065CF";
name = "{88}";
paths = (
{
closed = 1;
nodes = (
"318 -8 OFFCURVE",
"400 56 OFFCURVE",
"400 146 CURVE SMOOTH",
"400 246 OFFCURVE",
"298 280 OFFCURVE",
"244 298 CURVE SMOOTH",
"200 312 OFFCURVE",
"140 330 OFFCURVE",
"140 384 CURVE SMOOTH",
"140 426 OFFCURVE",
"178 450 OFFCURVE",
"220 450 CURVE SMOOTH",
"266 450 OFFCURVE",
"292 420 OFFCURVE",
"308 390 CURVE",
"384 422 LINE",
"360 474 OFFCURVE",
"304 526 OFFCURVE",
"220 526 CURVE SMOOTH",
"136 526 OFFCURVE",
"58 474 OFFCURVE",
"58 384 CURVE SMOOTH",
"58 292 OFFCURVE",
"138 258 OFFCURVE",
"196 238 CURVE SMOOTH",
"242 222 OFFCURVE",
"318 202 OFFCURVE",
"318 144 CURVE SMOOTH",
"318 98 OFFCURVE",
"272 70 OFFCURVE",
"226 70 CURVE SMOOTH",
"176 70 OFFCURVE",
"134 104 OFFCURVE",
"120 144 CURVE",
"44 112 LINE",
"64 52 OFFCURVE",
"134 -8 OFFCURVE",
"226 -8 CURVE SMOOTH"
);
}
);
width = 444;
},
{
anchors = (
{
name = bottom;
position = "{230, 0}";
},
{
name = cedilla;
position = "{238, 0}";
},
{
name = top;
position = "{230, 526}";
}
);
associatedMasterId = "AB099EFE-E788-4EFC-8633-CF147CB782A6";
guideLines = (
{
angle = 22.5;
position = "{76, 296}";
}
);
layerId = "2D4EE669-74DB-46FA-B066-FDF35B907363";
name = "{140}";
paths = (
{
closed = 1;
nodes = (
"338 -8 OFFCURVE",
"425 59 OFFCURVE",
"426 154 CURVE SMOOTH",
"425 261 OFFCURVE",
"318 292 OFFCURVE",
"272 308 CURVE SMOOTH",
"224 325 OFFCURVE",
"167 335 OFFCURVE",
"168 378 CURVE SMOOTH",
"167 406 OFFCURVE",
"193 426 OFFCURVE",
"228 426 CURVE SMOOTH",
"268 426 OFFCURVE",
"293 397 OFFCURVE",
"304 378 CURVE",
"412 424 LINE",
"382 488 OFFCURVE",
"308 532 OFFCURVE",
"224 532 CURVE SMOOTH",
"121 532 OFFCURVE",
"45 469 OFFCURVE",
"44 380 CURVE SMOOTH",
"45 292 OFFCURVE",
"112 250 OFFCURVE",
"188 226 CURVE SMOOTH",
"229 213 OFFCURVE",
"304 196 OFFCURVE",
"304 154 CURVE SMOOTH",
"304 125 OFFCURVE",
"274 100 OFFCURVE",
"234 100 CURVE SMOOTH",
"191 100 OFFCURVE",
"156 134 OFFCURVE",
"140 170 CURVE",
"28 120 LINE",
"60 43 OFFCURVE",
"144 -8 OFFCURVE",
"234 -8 CURVE SMOOTH"
);
}
);
width = 454;
},
{
anchors = (
{
name = bottom;
position = "{232, 0}";
},
{
name = cedilla;
position = "{240, 0}";
},
{
name = top;
position = "{232, 528}";
}
);
associatedMasterId = "AB099EFE-E788-4EFC-8633-CF147CB782A6";
guideLines = (
{
angle = 22.5;
position = "{146, 176}";
}
);
layerId = "E7831FF5-668F-4C95-A689-CAE55089C41D";
name = "{160}";
paths = (
{
closed = 1;
nodes = (
"344 -8 OFFCURVE",
"434 60 OFFCURVE",
"434 158 CURVE SMOOTH",
"434 270 OFFCURVE",
"326 300 OFFCURVE",
"284 312 CURVE SMOOTH",
"232 326 OFFCURVE",
"178 338 OFFCURVE",
"178 376 CURVE SMOOTH",
"178 396 OFFCURVE",
"198 416 OFFCURVE",
"232 416 CURVE SMOOTH",
"272 416 OFFCURVE",
"296 386 OFFCURVE",
"306 370 CURVE",
"424 420 LINE",
"398 484 OFFCURVE",
"320 536 OFFCURVE",
"226 536 CURVE SMOOTH",
"118 536 OFFCURVE",
"38 470 OFFCURVE",
"38 376 CURVE SMOOTH",
"38 290 OFFCURVE",
"102 242 OFFCURVE",
"180 220 CURVE SMOOTH",
"224 208 OFFCURVE",
"296 192 OFFCURVE",
"296 156 CURVE SMOOTH",
"296 136 OFFCURVE",
"276 114 OFFCURVE",
"238 114 CURVE SMOOTH",
"196 114 OFFCURVE",
"160 144 OFFCURVE",
"144 176 CURVE",
"20 124 LINE",
"54 44 OFFCURVE",
"144 -8 OFFCURVE",
"236 -8 CURVE SMOOTH"
);
}
);
width = 458;
},
{
anchors = (
{
name = bottom;
position = "{230, 0}";
},
{
name = cedilla;
position = "{238, 0}";
},
{
name = top;
position = "{230, 532}";
}
);
layerId = "2D8F7115-C311-411E-929D-56333CF7FFB2";
paths = (
{
closed = 1;
nodes = (
"346 -8 OFFCURVE",
"438 62 OFFCURVE",
"438 162 CURVE SMOOTH",
"438 270 OFFCURVE",
"332 304 OFFCURVE",
"284 316 CURVE SMOOTH",
"246 326 OFFCURVE",
"184 338 OFFCURVE",
"184 370 CURVE SMOOTH",
"184 392 OFFCURVE",
"208 404 OFFCURVE",
"230 404 CURVE SMOOTH",
"262 404 OFFCURVE",
"284 384 OFFCURVE",
"298 362 CURVE",
"428 420 LINE",
"396 494 OFFCURVE",
"314 536 OFFCURVE",
"224 536 CURVE SMOOTH",
"116 536 OFFCURVE",
"32 472 OFFCURVE",
"32 372 CURVE SMOOTH",
"32 284 OFFCURVE",
"98 238 OFFCURVE",
"178 214 CURVE SMOOTH",
"224 200 OFFCURVE",
"286 190 OFFCURVE",
"286 158 CURVE SMOOTH",
"286 140 OFFCURVE",
"266 124 OFFCURVE",
"236 124 CURVE SMOOTH",
"190 124 OFFCURVE",
"160 158 OFFCURVE",
"144 184 CURVE",
"12 126 LINE",
"50 38 OFFCURVE",
"142 -8 OFFCURVE",
"234 -8 CURVE SMOOTH"
);
}
);
width = 454;
}
);
leftKerningGroup = LAT_S_LC;
rightKerningGroup = LAT_S_LC;
unicode = 0073;
userData = {
com.typemytype.robofont.layerData = {
background = {
anchors = (
);
components = (
);
contours = (
{
points = (
{
segmentType = curve;
smooth = 1;
x = 213;
y = -12;
},
{
smooth = 0;
x = 318;
y = -12;
},
{
smooth = 0;
x = 376;
y = 50;
},
{
segmentType = curve;
smooth = 1;
x = 376;
y = 120;
},
{
smooth = 0;
x = 376;
y = 214;
},
{
smooth = 0;
x = 288;
y = 237;
},
{
segmentType = curve;
smooth = 1;
x = 208;
y = 266;
},
{
smooth = 0;
x = 147;
y = 288;
},
{
smooth = 0;
x = 85;
y = 310;
},
{
segmentType = curve;
smooth = 1;
x = 85;
y = 368;
},
{
smooth = 0;
x = 85;
y = 415;
},
{
smooth = 0;
x = 124;
y = 462;
},
{
segmentType = curve;
smooth = 1;
x = 208;
y = 462;
},
{
smooth = 0;
x = 253;
y = 462;
},
{
smooth = 0;
x = 284;
y = 448;
},
{
segmentType = curve;
smooth = 1;
x = 314;
y = 429;
},
{
smooth = 0;
x = 325;
y = 422;
},
{
smooth = 0;
x = 336;
y = 423;
},
{
segmentType = curve;
smooth = 1;
x = 343;
y = 434;
},
{
segmentType = line;
smooth = 1;
x = 346;
y = 439;
},
{
smooth = 0;
x = 347;
y = 441;
},
{
smooth = 0;
x = 347;
y = 443;
},
{
segmentType = curve;
smooth = 1;
x = 345;
y = 444;
},
{
smooth = 0;
x = 311;
y = 468;
},
{
smooth = 0;
x = 257;
y = 490;
},
{
segmentType = curve;
smooth = 1;
x = 211;
y = 490;
},
{
smooth = 0;
x = 108;
y = 490;
},
{
smooth = 0;
x = 54;
y = 432;
},
{
segmentType = curve;
smooth = 1;
x = 54;
y = 366;
},
{
smooth = 0;
x = 54;
y = 284;
},
{
smooth = 0;
x = 141;
y = 256;
},
{
segmentType = curve;
smooth = 1;
x = 218;
y = 230;
},
{
smooth = 0;
x = 277;
y = 210;
},
{
smooth = 0;
x = 344;
y = 182;
},
{
segmentType = curve;
smooth = 1;
x = 344;
y = 118;
},
{
smooth = 0;
x = 344;
y = 64;
},
{
smooth = 0;
x = 300;
y = 16;
},
{
segmentType = curve;
smooth = 1;
x = 215;
y = 16;
},
{
smooth = 0;
x = 148;
y = 16;
},
{
smooth = 0;
x = 105;
y = 37;
},
{
segmentType = curve;
smooth = 1;
x = 66;
y = 65;
},
{
smooth = 0;
x = 55;
y = 73;
},
{
smooth = 0;
x = 45;
y = 74;
},
{
segmentType = curve;
smooth = 1;
x = 37;
y = 63;
},
{
segmentType = line;
smooth = 1;
x = 33;
y = 57;
},
{
smooth = 0;
x = 32;
y = 55;
},
{
smooth = 0;
x = 32;
y = 53;
},
{
segmentType = curve;
smooth = 1;
x = 34;
y = 51;
},
{
smooth = 0;
x = 73;
y = 12;
},
{
smooth = 0;
x = 139;
y = -12;
}
);
}
);
lib = {
};
name = s;
unicodes = (
);
width = 439;
};
};
};
},
{
glyphname = germandbls;
lastChange = "2021-01-08 01:26:56 +0000";
layers = (
{
layerId = "AB099EFE-E788-4EFC-8633-CF147CB782A6";
paths = (
{
closed = 1;
nodes = (
"416 -8 OFFCURVE",
"500 94 OFFCURVE",
"500 204 CURVE SMOOTH",
"500 328 OFFCURVE",
"400 422 OFFCURVE",
"266 416 CURVE",
"266 402 LINE",
"368 396 OFFCURVE",
"446 472 OFFCURVE",
"446 580 CURVE SMOOTH",
"446 688 OFFCURVE",
"368 760 OFFCURVE",
"264 760 CURVE SMOOTH",
"156 760 OFFCURVE",
"84 682 OFFCURVE",
"84 574 CURVE SMOOTH",
"84 0 LINE",
"114 0 LINE",
"114 580 LINE SMOOTH",
"114 666 OFFCURVE",
"180 732 OFFCURVE",
"266 732 CURVE SMOOTH",
"352 732 OFFCURVE",
"416 666 OFFCURVE",
"416 578 CURVE SMOOTH",
"416 490 OFFCURVE",
"350 426 OFFCURVE",
"260 426 CURVE SMOOTH",
"226 426 LINE",
"226 396 LINE",
"240 396 LINE SMOOTH",
"372 396 OFFCURVE",
"468 322 OFFCURVE",
"468 208 CURVE SMOOTH",
"468 110 OFFCURVE",
"396 20 OFFCURVE",
"286 20 CURVE SMOOTH",
"250 20 OFFCURVE",
"218 28 OFFCURVE",
"198 34 CURVE",
"198 4 LINE",
"222 -4 OFFCURVE",
"264 -8 OFFCURVE",
"290 -8 CURVE SMOOTH"
);
}
);
width = 566;
},
{
layerId = "2D8F7115-C311-411E-929D-56333CF7FFB2";
paths = (
{
closed = 1;
nodes = (
"522 -8 OFFCURVE",
"622 70 OFFCURVE",
"622 196 CURVE SMOOTH",
"622 318 OFFCURVE",
"526 392 OFFCURVE",
"382 392 CURVE",
"382 364 LINE",
"460 364 OFFCURVE",
"560 430 OFFCURVE",
"560 550 CURVE SMOOTH",
"560 662 OFFCURVE",
"470 760 OFFCURVE",
"310 760 CURVE SMOOTH",
"156 760 OFFCURVE",
"48 670 OFFCURVE",
"48 516 CURVE SMOOTH",
"48 0 LINE",
"222 0 LINE",
"222 508 LINE SMOOTH",
"222 570 OFFCURVE",
"262 616 OFFCURVE",
"320 616 CURVE SMOOTH",
"368 616 OFFCURVE",
"408 584 OFFCURVE",
"408 532 CURVE SMOOTH",
"408 486 OFFCURVE",
"370 452 OFFCURVE",
"318 452 CURVE SMOOTH",
"290 452 LINE",
"290 298 LINE",
"338 298 LINE SMOOTH",
"406 298 OFFCURVE",
"450 266 OFFCURVE",
"450 212 CURVE SMOOTH",
"450 166 OFFCURVE",
"416 136 OFFCURVE",
"362 136 CURVE SMOOTH",
"344 136 OFFCURVE",
"304 140 OFFCURVE",
"286 144 CURVE",
"286 -6 LINE",
"312 -8 OFFCURVE",
"350 -8 OFFCURVE",
"364 -8 CURVE SMOOTH"
);
}
);
width = 646;
},
{
associatedMasterId = "AB099EFE-E788-4EFC-8633-CF147CB782A6";
layerId = "AD77B9FD-F34E-4944-9054-D024815C9E26";
name = "{88}";
paths = (
{
closed = 1;
nodes = (
"448 -8 OFFCURVE",
"548 86 OFFCURVE",
"548 206 CURVE SMOOTH",
"548 330 OFFCURVE",
"440 414 OFFCURVE",
"320 408 CURVE",
"320 384 LINE",
"416 380 OFFCURVE",
"494 462 OFFCURVE",
"494 570 CURVE SMOOTH",
"494 682 OFFCURVE",
"410 760 OFFCURVE",
"282 760 CURVE SMOOTH",
"154 760 OFFCURVE",
"72 678 OFFCURVE",
"72 544 CURVE SMOOTH",
"72 0 LINE",
"156 0 LINE",
"156 536 LINE SMOOTH",
"155 616 OFFCURVE",
"200 682 OFFCURVE",
"284 682 CURVE SMOOTH",
"356 682 OFFCURVE",
"410 636 OFFCURVE",
"410 562 CURVE SMOOTH",
"410 486 OFFCURVE",
"352 432 OFFCURVE",
"286 432 CURVE SMOOTH",
"254 432 LINE",
"254 356 LINE",
"278 356 LINE SMOOTH",
"396 356 OFFCURVE",
"460 290 OFFCURVE",
"462 208 CURVE SMOOTH",
"464 122 OFFCURVE",
"400 70 OFFCURVE",
"300 70 CURVE SMOOTH",
"282 70 OFFCURVE",
"254 72 OFFCURVE",
"232 76 CURVE",
"232 -2 LINE",
"254 -6 OFFCURVE",
"280 -8 OFFCURVE",
"302 -8 CURVE SMOOTH"
);
}
);
width = 602;
}
);
leftKerningGroup = LAT_L_LC;
leftMetricsKey = h;
rightKerningGroup = LAT_GERMANDBLS_LC;
rightMetricsKey = B;
unicode = 00DF;
},
{
glyphname = t;
lastChange = "2021-01-08 05:52:46 +0000";
layers = (
{
anchors = (
{
name = bottom;
position = "{228, 0}";
},
{
name = cedilla;
position = "{238, 0}";
},
{
name = center;
position = "{146, 256}";
},
{
name = top;
position = "{146, 690}";
},
{
name = topright;
position = "{176, 772}";
}
);
guideLines = (
{
angle = 112.5;
position = "{326, -12}";
}
);
layerId = "AB099EFE-E788-4EFC-8633-CF147CB782A6";
paths = (
{
closed = 1;
nodes = (
"270 -6 OFFCURVE",
"290 -4 OFFCURVE",
"308 4 CURVE",
"296 30 LINE",
"282 24 OFFCURVE",
"264 22 OFFCURVE",
"252 22 CURVE SMOOTH",
"188 22 OFFCURVE",
"160 66 OFFCURVE",
"160 134 CURVE SMOOTH",
"160 690 LINE",
"130 690 LINE",
"130 140 LINE SMOOTH",
"130 48 OFFCURVE",
"168 -6 OFFCURVE",
"254 -6 CURVE SMOOTH"
);
},
{
closed = 1;
nodes = (
"300 484 LINE",
"300 512 LINE",
"48 512 LINE",
"48 484 LINE"
);
}
);
width = 356;
},
{
anchors = (
{
name = bottom;
position = "{246, 0}";
},
{
name = cedilla;
position = "{258, 0}";
},
{
name = center;
position = "{166, 262}";
},
{
name = top;
position = "{164, 684}";
},
{
name = topright;
position = "{228, 796}";
}
);
associatedMasterId = "AB099EFE-E788-4EFC-8633-CF147CB782A6";
guideLines = (
{
angle = 112.5;
position = "{326, -12}";
}
);
layerId = "9FA3AEC7-B983-4B75-8327-8418045250DD";
name = "{88}";
paths = (
{
closed = 1;
nodes = (
"302 -8 OFFCURVE",
"326 -2 OFFCURVE",
"346 6 CURVE",
"314 80 LINE",
"302 74 OFFCURVE",
"288 70 OFFCURVE",
"272 70 CURVE SMOOTH",
"232 70 OFFCURVE",
"206 98 OFFCURVE",
"206 152 CURVE SMOOTH",
"206 684 LINE",
"122 684 LINE",
"122 144 LINE SMOOTH",
"122 54 OFFCURVE",
"172 -8 OFFCURVE",
"270 -8 CURVE SMOOTH"
);
},
{
closed = 1;
nodes = (
"334 442 LINE",
"334 518 LINE",
"36 518 LINE",
"36 442 LINE"
);
}
);
width = 378;
},
{
anchors = (
{
name = bottom;
position = "{256, 0}";
},
{
name = cedilla;
position = "{268, 0}";
},
{
name = center;
position = "{176, 264}";
},
{
name = top;
position = "{174, 680}";
},
{
name = topright;
position = "{254, 822}";
}
);
associatedMasterId = "AB099EFE-E788-4EFC-8633-CF147CB782A6";
guideLines = (
{
angle = 112.5;
position = "{348, 8}";
}
);
layerId = "EABF1B0F-8E52-47E5-9328-BC578E3E2863";
name = "{140}";
paths = (
{
closed = 1;
nodes = (
"319 -8 OFFCURVE",
"354 -1 OFFCURVE",
"382 12 CURVE",
"338 118 LINE",
"326 112 OFFCURVE",
"315 110 OFFCURVE",
"302 110 CURVE SMOOTH",
"264 110 OFFCURVE",
"240 129 OFFCURVE",
"240 176 CURVE SMOOTH",
"240 680 LINE",
"106 680 LINE",
"106 168 LINE SMOOTH",
"106 64 OFFCURVE",
"165 -8 OFFCURVE",
"284 -8 CURVE SMOOTH"
);
},
{
closed = 1;
nodes = (
"362 416 LINE",
"362 524 LINE",
"20 524 LINE",
"20 416 LINE"
);
}
);
width = 398;
},
{
anchors = (
{
name = bottom;
position = "{266, 0}";
},
{
name = cedilla;
position = "{278, 0}";
},
{
name = center;
position = "{188, 264}";
},
{
name = top;
position = "{186, 674}";
},
{
name = topright;
position = "{272, 846}";
}
);
guideLines = (
{
angle = 112.5;
position = "{402, -12}";
}
);
layerId = "2D8F7115-C311-411E-929D-56333CF7FFB2";
paths = (
{
closed = 1;
nodes = (
"344 -8 OFFCURVE",
"392 0 OFFCURVE",
"424 14 CURVE",
"368 150 LINE",
"356 144 OFFCURVE",
"348 140 OFFCURVE",
"330 140 CURVE SMOOTH",
"294 140 OFFCURVE",
"270 158 OFFCURVE",
"270 200 CURVE SMOOTH",
"270 674 LINE",
"96 674 LINE",
"96 200 LINE SMOOTH",
"96 78 OFFCURVE",
"162 -8 OFFCURVE",
"302 -8 CURVE SMOOTH"
);
},
{
closed = 1;
nodes = (
"392 380 LINE",
"392 528 LINE",
"8 528 LINE",
"8 380 LINE"
);
}
);
width = 428;
}
);
leftKerningGroup = LAT_T_LC;
rightKerningGroup = LAT_T_LC;
unicode = 0074;
},
{
color = 4;
glyphname = t.ss01;
lastChange = "2021-01-08 06:58:00 +0000";
layers = (
{
anchors = (
{
name = bottom;
position = "{170, 0}";
},
{
name = cedilla;
position = "{164, 0}";
},
{
name = center;
position = "{170, 256}";
},
{
name = top;
position = "{170, 690}";
},
{
name = topright;
position = "{206, 752}";
}
);
layerId = "AB099EFE-E788-4EFC-8633-CF147CB782A6";
paths = (
{
closed = 1;
nodes = (
"186 0 LINE",
"186 690 LINE",
"156 690 LINE",
"156 0 LINE"
);
},
{
closed = 1;
nodes = (
"306 484 LINE",
"306 512 LINE",
"36 512 LINE",
"36 484 LINE"
);
}
);
width = 342;
},
{
anchors = (
{
name = bottom;
position = "{206, 0}";
},
{
name = cedilla;
position = "{220, 0}";
},
{
name = center;
position = "{206, 264}";
},
{
name = top;
position = "{206, 674}";
},
{
name = topright;
position = "{278, 844}";
}
);
layerId = "2D8F7115-C311-411E-929D-56333CF7FFB2";
paths = (
{
closed = 1;
nodes = (
"294 0 LINE",
"294 674 LINE",
"120 674 LINE",
"120 0 LINE"
);
},
{
closed = 1;
nodes = (
"404 380 LINE",
"404 528 LINE",
"8 528 LINE",
"8 380 LINE"
);
}
);
width = 412;
},
{
anchors = (
{
name = bottom;
position = "{186, 0}";
},
{
name = cedilla;
position = "{188, 0}";
},
{
name = center;
position = "{188, 260}";
},
{
name = top;
position = "{188, 684}";
},
{
name = topright;
position = "{236, 788}";
}
);
associatedMasterId = "AB099EFE-E788-4EFC-8633-CF147CB782A6";
layerId = "A6C5D52A-00B6-422D-A441-4CB7F8C779A2";
name = "{88}";
paths = (
{
closed = 1;
nodes = (
"230 0 LINE",
"230 684 LINE",
"146 684 LINE",
"146 0 LINE"
);
},
{
closed = 1;
nodes = (
"348 442 LINE",
"348 518 LINE",
"28 518 LINE",
"28 442 LINE"
);
}
);
width = 376;
}
);
leftKerningGroup = LAT_T_LC;
rightKerningGroup = LAT_TSS01_LC;
},
{
glyphname = u;
lastChange = "2021-01-08 01:27:59 +0000";
layers = (
{
anchors = (
{
name = bottom;
position = "{298, 0}";
},
{
name = horn;
position = "{446, 512}";
},
{
name = ogonek;
position = "{496, -8}";
},
{
name = top;
position = "{278, 512}";
}
);
guideLines = (
{
angle = 67.5;
position = "{512, 2}";
}
);
layerId = "AB099EFE-E788-4EFC-8633-CF147CB782A6";
paths = (
{
closed = 1;
nodes = (
"346 -8 OFFCURVE",
"418 49 OFFCURVE",
"442 116 CURVE",
"422 90 LINE",
"446 90 LINE",
"432 110 LINE",
"432 50 OFFCURVE",
"450 15 OFFCURVE",
"496 -8 CURVE",
"508 20 LINE",
"471 38 OFFCURVE",
"462 57 OFFCURVE",
"462 114 CURVE SMOOTH",
"462 512 LINE",
"432 512 LINE",
"432 190 LINE SMOOTH",
"432 98 OFFCURVE",
"350 20 OFFCURVE",
"252 20 CURVE SMOOTH",
"166 22 OFFCURVE",
"110 84 OFFCURVE",
"110 182 CURVE SMOOTH",
"110 512 LINE",
"80 512 LINE",
"80 182 LINE SMOOTH",
"80 66 OFFCURVE",
"148 -8 OFFCURVE",
"252 -8 CURVE SMOOTH"
);
}
);
width = 560;
},
{
anchors = (
{
name = bottom;
position = "{326, 0}";
},
{
name = horn;
position = "{460, 528}";
},
{
name = ogonek;
position = "{520, -8}";
},
{
name = top;
position = "{306, 528}";
}
);
guideLines = (
{
angle = 67.5;
position = "{492, 0}";
}
);
layerId = "2D8F7115-C311-411E-929D-56333CF7FFB2";
paths = (
{
closed = 1;
nodes = (
"326 -8 OFFCURVE",
"394 38 OFFCURVE",
"442 106 CURVE",
"362 58 LINE",
"428 58 LINE",
"398 98 LINE",
"398 41 OFFCURVE",
"433 11 OFFCURVE",
"520 -8 CURVE",
"580 136 LINE",
"546 147 OFFCURVE",
"538 159 OFFCURVE",
"538 194 CURVE SMOOTH",
"538 528 LINE",
"364 528 LINE",
"364 220 LINE SMOOTH",
"364 166 OFFCURVE",
"334 138 OFFCURVE",
"292 138 CURVE SMOOTH",
"252 138 OFFCURVE",
"222 166 OFFCURVE",
"222 220 CURVE SMOOTH",
"222 528 LINE",
"48 528 LINE",
"48 194 LINE SMOOTH",
"48 60 OFFCURVE",
"138 -8 OFFCURVE",
"244 -8 CURVE SMOOTH"
);
}
);
width = 604;
},
{
anchors = (
{
name = bottom;
position = "{290, 0}";
},
{
name = horn;
position = "{448, 518}";
},
{
name = ogonek;
position = "{506, -8}";
},
{
name = top;
position = "{284, 518}";
}
);
associatedMasterId = "AB099EFE-E788-4EFC-8633-CF147CB782A6";
guideLines = (
{
angle = 67.5;
position = "{508, 2}";
}
);
layerId = "ECA0CA2F-3FD2-4856-BAC5-A4545FB03854";
name = "{88}";
paths = (
{
closed = 1;
nodes = (
"357 -8 OFFCURVE",
"417 41 OFFCURVE",
"444 98 CURVE",
"400 68 LINE",
"466 68 LINE",
"426 86 LINE",
"425 52 OFFCURVE",
"457 13 OFFCURVE",
"506 -8 CURVE",
"538 68 LINE",
"504 82 OFFCURVE",
"496 99 OFFCURVE",
"496 146 CURVE SMOOTH",
"496 518 LINE",
"412 518 LINE",
"412 202 LINE SMOOTH",
"412 130 OFFCURVE",
"357 70 OFFCURVE",
"278 70 CURVE SMOOTH",
"209 71 OFFCURVE",
"154 114 OFFCURVE",
"154 202 CURVE SMOOTH",
"154 518 LINE",
"70 518 LINE",
"70 198 LINE SMOOTH",
"70 68 OFFCURVE",
"147 -8 OFFCURVE",
"264 -8 CURVE SMOOTH"
);
}
);
width = 580;
}
);
leftKerningGroup = LAT_U_LC;
rightKerningGroup = LAT_A_LC;
unicode = 0075;
},
{
glyphname = v;
lastChange = "2021-01-08 04:19:38 +0000";
layers = (
{
anchors = (
{
name = bottom;
position = "{250, 0}";
},
{
name = top;
position = "{250, 512}";
}
);
layerId = "AB099EFE-E788-4EFC-8633-CF147CB782A6";
paths = (
{
closed = 1;
nodes = (
"234 0 LINE",
"266 0 LINE",
"466 512 LINE",
"434 512 LINE",
"308 182 LINE",
"252 40 LINE",
"248 40 LINE",
"192 182 LINE",
"66 512 LINE",
"34 512 LINE"
);
}
);
width = 500;
},
{
anchors = (
{
name = bottom;
position = "{288, 0}";
},
{
name = top;
position = "{288, 528}";
}
);
layerId = "2D8F7115-C311-411E-929D-56333CF7FFB2";
paths = (
{
closed = 1;
nodes = (
"206 0 LINE",
"370 0 LINE",
"572 528 LINE",
"390 528 LINE",
"324 316 LINE",
"290 180 LINE",
"286 180 LINE",
"252 316 LINE",
"188 528 LINE",
"4 528 LINE"
);
}
);
width = 576;
},
{
anchors = (
{
name = bottom;
position = "{268, 0}";
},
{
name = top;
position = "{268, 518}";
}
);
associatedMasterId = "AB099EFE-E788-4EFC-8633-CF147CB782A6";
layerId = "886503F6-57E3-430C-AB89-0C5C53687507";
name = "{88}";
paths = (
{
closed = 1;
nodes = (
"228 0 LINE",
"308 0 LINE",
"512 518 LINE",
"418 518 LINE",
"314 222 LINE",
"270 100 LINE",
"266 100 LINE",
"222 222 LINE",
"118 518 LINE",
"24 518 LINE"
);
}
);
width = 536;
}
);
leftKerningGroup = LAT_V_LC;
rightKerningGroup = LAT_V_LC;
unicode = 0076;
},
